SplineFontDB: 3.2
FontName: DejaPro-ThinItalic
FullName: DejaPro Thin Italic
FamilyName: DejaPro Thin
Weight: Thin
Copyright: Property of Defensecorps.
UComments: "2023-7-26: Created with FontForge (http://fontforge.org)"
Version: 1.00
ItalicAngle: -12
UnderlinePosition: -237
UnderlineWidth: 119
Ascent: 1638
Descent: 410
InvalidEm: 0
LayerCount: 2
Layer: 0 1 "Back" 1
Layer: 1 1 "Fore" 0
XUID: [1021 164 111113757 18505]
StyleMap: 0x0001
FSType: 0
OS2Version: 0
OS2_WeightWidthSlopeOnly: 0
OS2_UseTypoMetrics: 1
CreationTime: 1690353932
ModificationTime: 1690369392
PfmFamily: 17
TTFWeight: 200
TTFWidth: 5
LineGap: 0
VLineGap: 0
OS2TypoAscent: 1491
OS2TypoAOffset: 0
OS2TypoDescent: -431
OS2TypoDOffset: 0
OS2TypoLinegap: 269
OS2WinAscent: 2210
OS2WinAOffset: 0
OS2WinDescent: 514
OS2WinDOffset: 0
HheadAscent: 2210
HheadAOffset: 0
HheadDescent: -514
HheadDOffset: 0
OS2SubXSize: 1434
OS2SubYSize: 1331
OS2SubXOff: 0
OS2SubYOff: 283
OS2SupXSize: 1434
OS2SupYSize: 1331
OS2SupXOff: 0
OS2SupYOff: 977
OS2StrikeYSize: 102
OS2StrikeYPos: 530
OS2CapHeight: 1434
OS2XHeight: 1024
OS2Vendor: 'PfEd'
Lookup: 4 0 0 "SegoeUI-LightItalic-'dlig' Discretionary Ligatures lookup 0" { "SegoeUI-LightItalic-'dlig' Discretionary Ligatures lookup 0 subtable"  } ['dlig' ('cyrl' <'MKD ' 'SRB ' 'dflt' > 'grek' <'dflt' > 'latn' <'TRK ' 'dflt' > ) ]
Lookup: 4 0 0 "SegoeUI-LightItalic-'dlig' Discretionary Ligatures lookup 1" { "SegoeUI-LightItalic-'dlig' Discretionary Ligatures lookup 1 subtable"  } ['dlig' ('cyrl' <'MKD ' 'SRB ' 'dflt' > 'grek' <'dflt' > 'latn' <'TRK ' 'dflt' > ) ]
Lookup: 1 0 0 "SegoeUI-LightItalic-'frac' Diagonal Fractions lookup 2" { "SegoeUI-LightItalic-'frac' Diagonal Fractions lookup 2 subtable"  } ['frac' ('cyrl' <'MKD ' 'SRB ' 'dflt' > 'grek' <'dflt' > 'latn' <'TRK ' 'dflt' > ) ]

StartChar: SF100000
Encoding: 9472 9472 0
Width: 1024
Flags: W
LayerCount: 2
Fore
SplineSet
-10 463 m 1,0,-1
 -10 597 l 1,1,-1
 1034 597 l 1,2,-1
 1034 463 l 1,3,-1
 -10 463 l 1,0,-1
EndSplineSet
EndChar

StartChar: uni2501
Encoding: 9473 9473 1
Width: 1024
Flags: W
LayerCount: 2
Fore
SplineSet
-10 423 m 1,0,-1
 -10 637 l 1,1,-1
 1034 637 l 1,2,-1
 1034 423 l 1,3,-1
 -10 423 l 1,0,-1
EndSplineSet
EndChar

StartChar: SF110000
Encoding: 9474 9474 2
Width: 1024
Flags: W
LayerCount: 2
Fore
SplineSet
445 1501 m 1,0,-1
 579 1501 l 1,1,-1
 579 -440 l 1,2,-1
 445 -440 l 1,3,-1
 445 1501 l 1,0,-1
EndSplineSet
EndChar

StartChar: uni2503
Encoding: 9475 9475 3
Width: 1024
Flags: W
LayerCount: 2
Fore
SplineSet
405 1501 m 1,0,-1
 619 1501 l 1,1,-1
 619 -440 l 1,2,-1
 405 -440 l 1,3,-1
 405 1501 l 1,0,-1
EndSplineSet
EndChar

StartChar: uni2504
Encoding: 9476 9476 4
Width: 1024
Flags: W
LayerCount: 2
Fore
SplineSet
385 597 m 1,0,-1
 639 597 l 1,1,-1
 639 463 l 1,2,-1
 385 463 l 1,3,-1
 385 597 l 1,0,-1
-10 597 m 1,4,-1
 244 597 l 1,5,-1
 244 463 l 1,6,-1
 -10 463 l 1,7,-1
 -10 597 l 1,4,-1
780 597 m 1,8,-1
 1034 597 l 1,9,-1
 1034 463 l 1,10,-1
 780 463 l 1,11,-1
 780 597 l 1,8,-1
EndSplineSet
EndChar

StartChar: uni2505
Encoding: 9477 9477 5
Width: 1024
Flags: W
LayerCount: 2
Fore
SplineSet
385 637 m 1,0,-1
 639 637 l 1,1,-1
 639 423 l 1,2,-1
 385 423 l 1,3,-1
 385 637 l 1,0,-1
-10 637 m 1,4,-1
 244 637 l 1,5,-1
 244 423 l 1,6,-1
 -10 423 l 1,7,-1
 -10 637 l 1,4,-1
780 637 m 1,8,-1
 1034 637 l 1,9,-1
 1034 423 l 1,10,-1
 780 423 l 1,11,-1
 780 637 l 1,8,-1
EndSplineSet
EndChar

StartChar: uni2506
Encoding: 9478 9478 6
Width: 1024
Flags: W
LayerCount: 2
Fore
SplineSet
445 64 m 1,0,-1
 579 64 l 1,1,-1
 579 -440 l 1,2,-1
 445 -440 l 1,3,-1
 445 64 l 1,0,-1
579 279 m 1,4,-1
 445 279 l 1,5,-1
 445 782 l 1,6,-1
 579 782 l 1,7,-1
 579 279 l 1,4,-1
579 997 m 1,8,-1
 445 997 l 1,9,-1
 445 1501 l 1,10,-1
 579 1501 l 1,11,-1
 579 997 l 1,8,-1
EndSplineSet
EndChar

StartChar: uni2507
Encoding: 9479 9479 7
Width: 1024
Flags: W
LayerCount: 2
Fore
SplineSet
405 64 m 1,0,-1
 619 64 l 1,1,-1
 619 -440 l 1,2,-1
 405 -440 l 1,3,-1
 405 64 l 1,0,-1
619 279 m 1,4,-1
 405 279 l 1,5,-1
 405 782 l 1,6,-1
 619 782 l 1,7,-1
 619 279 l 1,4,-1
619 997 m 1,8,-1
 405 997 l 1,9,-1
 405 1501 l 1,10,-1
 619 1501 l 1,11,-1
 619 997 l 1,8,-1
EndSplineSet
EndChar

StartChar: uni2508
Encoding: 9480 9480 8
Width: 1024
Flags: W
LayerCount: 2
Fore
SplineSet
-10 597 m 1,0,-1
 139 597 l 1,1,-1
 139 463 l 1,2,-1
 -10 463 l 1,3,-1
 -10 597 l 1,0,-1
288 597 m 1,4,-1
 437 597 l 1,5,-1
 437 463 l 1,6,-1
 288 463 l 1,7,-1
 288 597 l 1,4,-1
587 597 m 1,8,-1
 736 597 l 1,9,-1
 736 463 l 1,10,-1
 587 463 l 1,11,-1
 587 597 l 1,8,-1
885 597 m 1,12,-1
 1034 597 l 1,13,-1
 1034 463 l 1,14,-1
 885 463 l 1,15,-1
 885 597 l 1,12,-1
EndSplineSet
EndChar

StartChar: uni2509
Encoding: 9481 9481 9
Width: 1024
Flags: W
LayerCount: 2
Fore
SplineSet
-10 637 m 1,0,-1
 139 637 l 1,1,-1
 139 423 l 1,2,-1
 -10 423 l 1,3,-1
 -10 637 l 1,0,-1
288 637 m 1,4,-1
 437 637 l 1,5,-1
 437 423 l 1,6,-1
 288 423 l 1,7,-1
 288 637 l 1,4,-1
587 637 m 1,8,-1
 736 637 l 1,9,-1
 736 423 l 1,10,-1
 587 423 l 1,11,-1
 587 637 l 1,8,-1
885 637 m 1,12,-1
 1034 637 l 1,13,-1
 1034 423 l 1,14,-1
 885 423 l 1,15,-1
 885 637 l 1,12,-1
EndSplineSet
EndChar

StartChar: uni250A
Encoding: 9482 9482 10
Width: 1024
Flags: W
LayerCount: 2
Fore
SplineSet
445 -106 m 1,0,-1
 579 -106 l 1,1,-1
 579 -440 l 1,2,-1
 445 -440 l 1,3,-1
 445 -106 l 1,0,-1
579 106 m 1,4,-1
 445 106 l 1,5,-1
 445 430 l 1,6,-1
 579 430 l 1,7,-1
 579 106 l 1,4,-1
579 1177 m 1,8,-1
 445 1177 l 1,9,-1
 445 1501 l 1,10,-1
 579 1501 l 1,11,-1
 579 1177 l 1,8,-1
579 641 m 1,12,-1
 445 641 l 1,13,-1
 445 965 l 1,14,-1
 579 965 l 1,15,-1
 579 641 l 1,12,-1
EndSplineSet
EndChar

StartChar: uni250B
Encoding: 9483 9483 11
Width: 1024
Flags: W
LayerCount: 2
Fore
SplineSet
405 -106 m 1,0,-1
 619 -106 l 1,1,-1
 619 -440 l 1,2,-1
 405 -440 l 1,3,-1
 405 -106 l 1,0,-1
619 106 m 1,4,-1
 405 106 l 1,5,-1
 405 430 l 1,6,-1
 619 430 l 1,7,-1
 619 106 l 1,4,-1
619 1177 m 1,8,-1
 405 1177 l 1,9,-1
 405 1501 l 1,10,-1
 619 1501 l 1,11,-1
 619 1177 l 1,8,-1
619 641 m 1,12,-1
 405 641 l 1,13,-1
 405 965 l 1,14,-1
 619 965 l 1,15,-1
 619 641 l 1,12,-1
EndSplineSet
EndChar

StartChar: SF010000
Encoding: 9484 9484 12
Width: 1024
Flags: W
LayerCount: 2
Fore
SplineSet
579 463 m 1,0,-1
 579 -440 l 1,1,-1
 445 -440 l 1,2,-1
 445 597 l 1,3,-1
 1034 597 l 1,4,-1
 1034 463 l 1,5,-1
 579 463 l 1,0,-1
EndSplineSet
EndChar

StartChar: uni250D
Encoding: 9485 9485 13
Width: 1024
Flags: W
LayerCount: 2
Fore
SplineSet
579 423 m 1,0,-1
 579 -440 l 1,1,-1
 445 -440 l 1,2,-1
 445 637 l 1,3,-1
 1034 637 l 1,4,-1
 1034 423 l 1,5,-1
 579 423 l 1,0,-1
EndSplineSet
EndChar

StartChar: uni250E
Encoding: 9486 9486 14
Width: 1024
Flags: W
LayerCount: 2
Fore
SplineSet
619 463 m 1,0,-1
 619 -440 l 1,1,-1
 405 -440 l 1,2,-1
 405 597 l 1,3,-1
 1034 597 l 1,4,-1
 1034 463 l 1,5,-1
 619 463 l 1,0,-1
EndSplineSet
EndChar

StartChar: uni250F
Encoding: 9487 9487 15
Width: 1024
Flags: W
LayerCount: 2
Fore
SplineSet
619 423 m 1,0,-1
 619 -440 l 1,1,-1
 405 -440 l 1,2,-1
 405 637 l 1,3,-1
 1034 637 l 1,4,-1
 1034 423 l 1,5,-1
 619 423 l 1,0,-1
EndSplineSet
EndChar

StartChar: SF030000
Encoding: 9488 9488 16
Width: 1024
Flags: W
LayerCount: 2
Fore
SplineSet
-10 463 m 1,0,-1
 -10 597 l 1,1,-1
 579 597 l 1,2,-1
 579 -440 l 1,3,-1
 445 -440 l 1,4,-1
 445 463 l 1,5,-1
 -10 463 l 1,0,-1
EndSplineSet
EndChar

StartChar: uni2511
Encoding: 9489 9489 17
Width: 1024
Flags: W
LayerCount: 2
Fore
SplineSet
-10 423 m 1,0,-1
 -10 637 l 1,1,-1
 579 637 l 1,2,-1
 579 -440 l 1,3,-1
 445 -440 l 1,4,-1
 445 423 l 1,5,-1
 -10 423 l 1,0,-1
EndSplineSet
EndChar

StartChar: uni2512
Encoding: 9490 9490 18
Width: 1024
Flags: W
LayerCount: 2
Fore
SplineSet
-10 463 m 1,0,-1
 -10 597 l 1,1,-1
 619 597 l 1,2,-1
 619 -440 l 1,3,-1
 405 -440 l 1,4,-1
 405 463 l 1,5,-1
 -10 463 l 1,0,-1
EndSplineSet
EndChar

StartChar: uni2513
Encoding: 9491 9491 19
Width: 1024
Flags: W
LayerCount: 2
Fore
SplineSet
-10 423 m 1,0,-1
 -10 637 l 1,1,-1
 619 637 l 1,2,-1
 619 -440 l 1,3,-1
 405 -440 l 1,4,-1
 405 423 l 1,5,-1
 -10 423 l 1,0,-1
EndSplineSet
EndChar

StartChar: SF020000
Encoding: 9492 9492 20
Width: 1024
Flags: W
LayerCount: 2
Fore
SplineSet
445 1501 m 1,0,-1
 579 1501 l 1,1,-1
 579 597 l 1,2,-1
 1034 597 l 1,3,-1
 1034 463 l 1,4,-1
 445 463 l 1,5,-1
 445 1501 l 1,0,-1
EndSplineSet
EndChar

StartChar: uni2515
Encoding: 9493 9493 21
Width: 1024
Flags: W
LayerCount: 2
Fore
SplineSet
445 1501 m 1,0,-1
 579 1501 l 1,1,-1
 579 637 l 1,2,-1
 1034 637 l 1,3,-1
 1034 423 l 1,4,-1
 445 423 l 1,5,-1
 445 1501 l 1,0,-1
EndSplineSet
EndChar

StartChar: uni2516
Encoding: 9494 9494 22
Width: 1024
Flags: W
LayerCount: 2
Fore
SplineSet
405 1501 m 1,0,-1
 619 1501 l 1,1,-1
 619 597 l 1,2,-1
 1034 597 l 1,3,-1
 1034 463 l 1,4,-1
 405 463 l 1,5,-1
 405 1501 l 1,0,-1
EndSplineSet
EndChar

StartChar: uni2517
Encoding: 9495 9495 23
Width: 1024
Flags: W
LayerCount: 2
Fore
SplineSet
405 1501 m 1,0,-1
 619 1501 l 1,1,-1
 619 637 l 1,2,-1
 1034 637 l 1,3,-1
 1034 423 l 1,4,-1
 405 423 l 1,5,-1
 405 1501 l 1,0,-1
EndSplineSet
EndChar

StartChar: SF040000
Encoding: 9496 9496 24
Width: 1024
Flags: W
LayerCount: 2
Fore
SplineSet
579 463 m 1,0,-1
 -10 463 l 1,1,-1
 -10 597 l 1,2,-1
 445 597 l 1,3,-1
 445 1501 l 1,4,-1
 579 1501 l 1,5,-1
 579 463 l 1,0,-1
EndSplineSet
EndChar

StartChar: uni2519
Encoding: 9497 9497 25
Width: 1024
Flags: W
LayerCount: 2
Fore
SplineSet
579 423 m 1,0,-1
 -10 423 l 1,1,-1
 -10 637 l 1,2,-1
 445 637 l 1,3,-1
 445 1501 l 1,4,-1
 579 1501 l 1,5,-1
 579 423 l 1,0,-1
EndSplineSet
EndChar

StartChar: uni251A
Encoding: 9498 9498 26
Width: 1024
Flags: W
LayerCount: 2
Fore
SplineSet
619 463 m 1,0,-1
 -10 463 l 1,1,-1
 -10 597 l 1,2,-1
 405 597 l 1,3,-1
 405 1501 l 1,4,-1
 619 1501 l 1,5,-1
 619 463 l 1,0,-1
EndSplineSet
EndChar

StartChar: uni251B
Encoding: 9499 9499 27
Width: 1024
Flags: W
LayerCount: 2
Fore
SplineSet
619 423 m 1,0,-1
 -10 423 l 1,1,-1
 -10 637 l 1,2,-1
 405 637 l 1,3,-1
 405 1501 l 1,4,-1
 619 1501 l 1,5,-1
 619 423 l 1,0,-1
EndSplineSet
EndChar

StartChar: SF080000
Encoding: 9500 9500 28
Width: 1024
Flags: W
LayerCount: 2
Fore
SplineSet
579 463 m 1,0,-1
 579 -440 l 1,1,-1
 445 -440 l 1,2,-1
 445 1501 l 1,3,-1
 579 1501 l 1,4,-1
 579 597 l 1,5,-1
 1034 597 l 1,6,-1
 1034 463 l 1,7,-1
 579 463 l 1,0,-1
EndSplineSet
EndChar

StartChar: uni251D
Encoding: 9501 9501 29
Width: 1024
Flags: W
LayerCount: 2
Fore
SplineSet
579 423 m 1,0,-1
 579 -440 l 1,1,-1
 445 -440 l 1,2,-1
 445 1501 l 1,3,-1
 579 1501 l 1,4,-1
 579 637 l 1,5,-1
 1034 637 l 1,6,-1
 1034 423 l 1,7,-1
 579 423 l 1,0,-1
EndSplineSet
EndChar

StartChar: uni251E
Encoding: 9502 9502 30
Width: 1024
Flags: W
LayerCount: 2
Fore
SplineSet
579 463 m 1,0,-1
 579 -440 l 1,1,-1
 445 -440 l 1,2,-1
 445 463 l 1,3,-1
 405 463 l 1,4,-1
 405 1501 l 1,5,-1
 619 1501 l 1,6,-1
 619 597 l 1,7,-1
 1034 597 l 1,8,-1
 1034 463 l 1,9,-1
 579 463 l 1,0,-1
EndSplineSet
EndChar

StartChar: uni251F
Encoding: 9503 9503 31
Width: 1024
Flags: W
LayerCount: 2
Fore
SplineSet
619 463 m 1,0,-1
 619 -440 l 1,1,-1
 405 -440 l 1,2,-1
 405 597 l 1,3,-1
 445 597 l 1,4,-1
 445 1501 l 1,5,-1
 579 1501 l 1,6,-1
 579 597 l 1,7,-1
 1034 597 l 1,8,-1
 1034 463 l 1,9,-1
 619 463 l 1,0,-1
EndSplineSet
EndChar

StartChar: uni2520
Encoding: 9504 9504 32
Width: 1024
Flags: W
LayerCount: 2
Fore
SplineSet
619 463 m 1,0,-1
 619 -440 l 1,1,-1
 405 -440 l 1,2,-1
 405 1501 l 1,3,-1
 619 1501 l 1,4,-1
 619 597 l 1,5,-1
 1034 597 l 1,6,-1
 1034 463 l 1,7,-1
 619 463 l 1,0,-1
EndSplineSet
EndChar

StartChar: uni2521
Encoding: 9505 9505 33
Width: 1024
Flags: W
LayerCount: 2
Fore
SplineSet
579 423 m 1,0,-1
 579 -438 l 1,1,-1
 445 -438 l 1,2,-1
 445 423 l 1,3,-1
 405 423 l 1,4,-1
 405 1501 l 1,5,-1
 619 1501 l 1,6,-1
 619 637 l 1,7,-1
 1034 637 l 1,8,-1
 1034 423 l 1,9,-1
 579 423 l 1,0,-1
EndSplineSet
EndChar

StartChar: uni2522
Encoding: 9506 9506 34
Width: 1024
Flags: W
LayerCount: 2
Fore
SplineSet
405 637 m 1,0,-1
 445 637 l 1,1,-1
 445 1501 l 1,2,-1
 579 1501 l 1,3,-1
 579 637 l 1,4,-1
 1034 637 l 1,5,-1
 1034 423 l 1,6,-1
 619 423 l 1,7,-1
 619 -441 l 1,8,-1
 405 -441 l 1,9,-1
 405 637 l 1,0,-1
EndSplineSet
EndChar

StartChar: uni2523
Encoding: 9507 9507 35
Width: 1024
Flags: W
LayerCount: 2
Fore
SplineSet
1034 637 m 1,0,-1
 1034 423 l 1,1,-1
 619 423 l 1,2,-1
 619 -441 l 1,3,-1
 405 -441 l 1,4,-1
 405 1501 l 1,5,-1
 619 1501 l 1,6,-1
 619 637 l 1,7,-1
 1034 637 l 1,0,-1
EndSplineSet
EndChar

StartChar: SF090000
Encoding: 9508 9508 36
Width: 1024
Flags: W
LayerCount: 2
Fore
SplineSet
445 463 m 1,0,-1
 -10 463 l 1,1,-1
 -10 597 l 1,2,-1
 445 597 l 1,3,-1
 445 1501 l 1,4,-1
 579 1501 l 1,5,-1
 579 -440 l 1,6,-1
 445 -440 l 1,7,-1
 445 463 l 1,0,-1
EndSplineSet
EndChar

StartChar: uni2525
Encoding: 9509 9509 37
Width: 1024
Flags: W
LayerCount: 2
Fore
SplineSet
445 423 m 1,0,-1
 -10 423 l 1,1,-1
 -10 637 l 1,2,-1
 445 637 l 1,3,-1
 445 1501 l 1,4,-1
 579 1501 l 1,5,-1
 579 -440 l 1,6,-1
 445 -440 l 1,7,-1
 445 423 l 1,0,-1
EndSplineSet
EndChar

StartChar: uni2526
Encoding: 9510 9510 38
Width: 1024
Flags: W
LayerCount: 2
Fore
SplineSet
579 463 m 1,0,-1
 579 -440 l 1,1,-1
 445 -440 l 1,2,-1
 445 463 l 1,3,-1
 -10 463 l 1,4,-1
 -10 597 l 1,5,-1
 405 597 l 1,6,-1
 405 1501 l 1,7,-1
 619 1501 l 1,8,-1
 619 463 l 1,9,-1
 579 463 l 1,0,-1
EndSplineSet
EndChar

StartChar: uni2527
Encoding: 9511 9511 39
Width: 1024
Flags: W
LayerCount: 2
Fore
SplineSet
619 597 m 1,0,-1
 619 -440 l 1,1,-1
 405 -440 l 1,2,-1
 405 463 l 1,3,-1
 -10 463 l 1,4,-1
 -10 597 l 1,5,-1
 445 597 l 1,6,-1
 445 1501 l 1,7,-1
 579 1501 l 1,8,-1
 579 597 l 1,9,-1
 619 597 l 1,0,-1
EndSplineSet
EndChar

StartChar: uni2528
Encoding: 9512 9512 40
Width: 1024
Flags: W
LayerCount: 2
Fore
SplineSet
405 463 m 1,0,-1
 -10 463 l 1,1,-1
 -10 597 l 1,2,-1
 405 597 l 1,3,-1
 405 1501 l 1,4,-1
 619 1501 l 1,5,-1
 619 -440 l 1,6,-1
 405 -440 l 1,7,-1
 405 463 l 1,0,-1
EndSplineSet
EndChar

StartChar: uni2529
Encoding: 9513 9513 41
Width: 1024
Flags: W
LayerCount: 2
Fore
SplineSet
405 1501 m 1,0,-1
 619 1501 l 1,1,-1
 619 423 l 1,2,-1
 579 423 l 1,3,-1
 579 -440 l 1,4,-1
 445 -440 l 1,5,-1
 445 423 l 1,6,-1
 -10 423 l 1,7,-1
 -10 637 l 1,8,-1
 405 637 l 1,9,-1
 405 1501 l 1,0,-1
EndSplineSet
EndChar

StartChar: uni252A
Encoding: 9514 9514 42
Width: 1024
Flags: W
LayerCount: 2
Fore
SplineSet
405 423 m 1,0,-1
 -10 423 l 1,1,-1
 -10 637 l 1,2,-1
 445 637 l 1,3,-1
 445 1501 l 1,4,-1
 579 1501 l 1,5,-1
 579 637 l 1,6,-1
 619 637 l 1,7,-1
 619 -440 l 1,8,-1
 405 -440 l 1,9,-1
 405 423 l 1,0,-1
EndSplineSet
EndChar

StartChar: uni252B
Encoding: 9515 9515 43
Width: 1024
Flags: W
LayerCount: 2
Fore
SplineSet
405 423 m 1,0,-1
 -10 423 l 1,1,-1
 -10 637 l 1,2,-1
 405 637 l 1,3,-1
 405 1501 l 1,4,-1
 619 1501 l 1,5,-1
 619 -440 l 1,6,-1
 405 -440 l 1,7,-1
 405 423 l 1,0,-1
EndSplineSet
EndChar

StartChar: SF060000
Encoding: 9516 9516 44
Width: 1024
Flags: W
LayerCount: 2
Fore
SplineSet
579 463 m 1,0,-1
 579 -440 l 1,1,-1
 445 -440 l 1,2,-1
 445 463 l 1,3,-1
 -10 463 l 1,4,-1
 -10 597 l 1,5,-1
 1034 597 l 1,6,-1
 1034 463 l 1,7,-1
 579 463 l 1,0,-1
EndSplineSet
EndChar

StartChar: uni252D
Encoding: 9517 9517 45
Width: 1024
Flags: W
LayerCount: 2
Fore
SplineSet
579 463 m 1,0,-1
 579 -440 l 1,1,-1
 445 -440 l 1,2,-1
 445 423 l 1,3,-1
 -10 423 l 1,4,-1
 -10 637 l 1,5,-1
 579 637 l 1,6,-1
 579 597 l 1,7,-1
 1034 597 l 1,8,-1
 1034 463 l 1,9,-1
 579 463 l 1,0,-1
EndSplineSet
EndChar

StartChar: uni252E
Encoding: 9518 9518 46
Width: 1024
Flags: W
LayerCount: 2
Fore
SplineSet
-10 463 m 1,0,-1
 -10 597 l 1,1,-1
 445 597 l 1,2,-1
 445 637 l 1,3,-1
 1034 637 l 1,4,-1
 1034 423 l 1,5,-1
 579 423 l 1,6,-1
 579 -440 l 1,7,-1
 445 -440 l 1,8,-1
 445 463 l 1,9,-1
 -10 463 l 1,0,-1
EndSplineSet
EndChar

StartChar: uni252F
Encoding: 9519 9519 47
Width: 1024
Flags: W
LayerCount: 2
Fore
SplineSet
579 423 m 1,0,-1
 579 -440 l 1,1,-1
 445 -440 l 1,2,-1
 445 423 l 1,3,-1
 -10 423 l 1,4,-1
 -10 637 l 1,5,-1
 1034 637 l 1,6,-1
 1034 423 l 1,7,-1
 579 423 l 1,0,-1
EndSplineSet
EndChar

StartChar: uni2530
Encoding: 9520 9520 48
Width: 1024
Flags: W
LayerCount: 2
Fore
SplineSet
619 463 m 1,0,-1
 619 -440 l 1,1,-1
 405 -440 l 1,2,-1
 405 463 l 1,3,-1
 -10 463 l 1,4,-1
 -10 597 l 1,5,-1
 1034 597 l 1,6,-1
 1034 463 l 1,7,-1
 619 463 l 1,0,-1
EndSplineSet
EndChar

StartChar: uni2531
Encoding: 9521 9521 49
Width: 1024
Flags: W
LayerCount: 2
Fore
SplineSet
619 463 m 1,0,-1
 619 -440 l 1,1,-1
 405 -440 l 1,2,-1
 405 423 l 1,3,-1
 -10 423 l 1,4,-1
 -10 637 l 1,5,-1
 619 637 l 1,6,-1
 619 597 l 1,7,-1
 1034 597 l 1,8,-1
 1034 463 l 1,9,-1
 619 463 l 1,0,-1
EndSplineSet
EndChar

StartChar: uni2532
Encoding: 9522 9522 50
Width: 1024
Flags: W
LayerCount: 2
Fore
SplineSet
-10 463 m 1,0,-1
 -10 597 l 1,1,-1
 405 597 l 1,2,-1
 405 637 l 1,3,-1
 1034 637 l 1,4,-1
 1034 423 l 1,5,-1
 619 423 l 1,6,-1
 619 -440 l 1,7,-1
 405 -440 l 1,8,-1
 405 463 l 1,9,-1
 -10 463 l 1,0,-1
EndSplineSet
EndChar

StartChar: uni2533
Encoding: 9523 9523 51
Width: 1024
Flags: W
LayerCount: 2
Fore
SplineSet
619 423 m 1,0,-1
 619 -440 l 1,1,-1
 405 -440 l 1,2,-1
 405 423 l 1,3,-1
 -10 423 l 1,4,-1
 -10 637 l 1,5,-1
 1034 637 l 1,6,-1
 1034 423 l 1,7,-1
 619 423 l 1,0,-1
EndSplineSet
EndChar

StartChar: SF070000
Encoding: 9524 9524 52
Width: 1024
Flags: W
LayerCount: 2
Fore
SplineSet
-10 463 m 1,0,-1
 -10 597 l 1,1,-1
 445 597 l 1,2,-1
 445 1501 l 1,3,-1
 579 1501 l 1,4,-1
 579 597 l 1,5,-1
 1034 597 l 1,6,-1
 1034 463 l 1,7,-1
 -10 463 l 1,0,-1
EndSplineSet
EndChar

StartChar: uni2535
Encoding: 9525 9525 53
Width: 1024
Flags: W
LayerCount: 2
Fore
SplineSet
-10 423 m 1,0,-1
 -10 637 l 1,1,-1
 445 637 l 1,2,-1
 445 1501 l 1,3,-1
 579 1501 l 1,4,-1
 579 597 l 1,5,-1
 1034 597 l 1,6,-1
 1034 463 l 1,7,-1
 579 463 l 1,8,-1
 579 423 l 1,9,-1
 -10 423 l 1,0,-1
EndSplineSet
EndChar

StartChar: uni2536
Encoding: 9526 9526 54
Width: 1024
Flags: W
LayerCount: 2
Fore
SplineSet
445 423 m 1,0,-1
 445 463 l 1,1,-1
 -10 463 l 1,2,-1
 -10 597 l 1,3,-1
 445 597 l 1,4,-1
 445 1501 l 1,5,-1
 579 1501 l 1,6,-1
 579 637 l 1,7,-1
 1034 637 l 1,8,-1
 1034 423 l 1,9,-1
 445 423 l 1,0,-1
EndSplineSet
EndChar

StartChar: uni2537
Encoding: 9527 9527 55
Width: 1024
Flags: W
LayerCount: 2
Fore
SplineSet
-10 423 m 1,0,-1
 -10 637 l 1,1,-1
 445 637 l 1,2,-1
 445 1501 l 1,3,-1
 579 1501 l 1,4,-1
 579 637 l 1,5,-1
 1034 637 l 1,6,-1
 1034 423 l 1,7,-1
 -10 423 l 1,0,-1
EndSplineSet
EndChar

StartChar: uni2538
Encoding: 9528 9528 56
Width: 1024
Flags: W
LayerCount: 2
Fore
SplineSet
-10 463 m 1,0,-1
 -10 597 l 1,1,-1
 405 597 l 1,2,-1
 405 1501 l 1,3,-1
 619 1501 l 1,4,-1
 619 597 l 1,5,-1
 1034 597 l 1,6,-1
 1034 463 l 1,7,-1
 -10 463 l 1,0,-1
EndSplineSet
EndChar

StartChar: uni2539
Encoding: 9529 9529 57
Width: 1024
Flags: W
LayerCount: 2
Fore
SplineSet
-10 423 m 1,0,-1
 -10 637 l 1,1,-1
 405 637 l 1,2,-1
 405 1501 l 1,3,-1
 619 1501 l 1,4,-1
 619 597 l 1,5,-1
 1034 597 l 1,6,-1
 1034 463 l 1,7,-1
 619 463 l 1,8,-1
 619 423 l 1,9,-1
 -10 423 l 1,0,-1
EndSplineSet
EndChar

StartChar: uni253A
Encoding: 9530 9530 58
Width: 1024
Flags: W
LayerCount: 2
Fore
SplineSet
405 423 m 1,0,-1
 405 463 l 1,1,-1
 -10 463 l 1,2,-1
 -10 597 l 1,3,-1
 405 597 l 1,4,-1
 405 1501 l 1,5,-1
 619 1501 l 1,6,-1
 619 637 l 1,7,-1
 1034 637 l 1,8,-1
 1034 423 l 1,9,-1
 405 423 l 1,0,-1
EndSplineSet
EndChar

StartChar: uni253B
Encoding: 9531 9531 59
Width: 1024
Flags: W
LayerCount: 2
Fore
SplineSet
-10 423 m 1,0,-1
 -10 637 l 1,1,-1
 405 637 l 1,2,-1
 405 1501 l 1,3,-1
 619 1501 l 1,4,-1
 619 637 l 1,5,-1
 1034 637 l 1,6,-1
 1034 423 l 1,7,-1
 -10 423 l 1,0,-1
EndSplineSet
EndChar

StartChar: SF050000
Encoding: 9532 9532 60
Width: 1024
Flags: W
LayerCount: 2
Fore
SplineSet
579 463 m 1,0,-1
 579 -440 l 1,1,-1
 445 -440 l 1,2,-1
 445 463 l 1,3,-1
 -10 463 l 1,4,-1
 -10 597 l 1,5,-1
 445 597 l 1,6,-1
 445 1501 l 1,7,-1
 579 1501 l 1,8,-1
 579 597 l 1,9,-1
 1034 597 l 1,10,-1
 1034 463 l 1,11,-1
 579 463 l 1,0,-1
EndSplineSet
EndChar

StartChar: uni253D
Encoding: 9533 9533 61
Width: 1024
Flags: W
LayerCount: 2
Fore
SplineSet
445 423 m 1,0,-1
 -10 423 l 1,1,-1
 -10 637 l 1,2,-1
 445 637 l 1,3,-1
 445 1501 l 1,4,-1
 579 1501 l 1,5,-1
 579 597 l 1,6,-1
 1034 597 l 1,7,-1
 1034 463 l 1,8,-1
 579 463 l 1,9,-1
 579 -440 l 1,10,-1
 445 -440 l 1,11,-1
 445 423 l 1,0,-1
EndSplineSet
EndChar

StartChar: uni253E
Encoding: 9534 9534 62
Width: 1024
Flags: W
LayerCount: 2
Fore
SplineSet
579 -440 m 1,0,-1
 445 -440 l 1,1,-1
 445 463 l 1,2,-1
 -10 463 l 1,3,-1
 -10 597 l 1,4,-1
 445 597 l 1,5,-1
 445 1501 l 1,6,-1
 579 1501 l 1,7,-1
 579 637 l 1,8,-1
 1034 637 l 1,9,-1
 1034 423 l 1,10,-1
 579 423 l 1,11,-1
 579 -440 l 1,0,-1
EndSplineSet
EndChar

StartChar: uni253F
Encoding: 9535 9535 63
Width: 1024
Flags: W
LayerCount: 2
Fore
SplineSet
579 423 m 1,0,-1
 579 -440 l 1,1,-1
 445 -440 l 1,2,-1
 445 423 l 1,3,-1
 -10 423 l 1,4,-1
 -10 637 l 1,5,-1
 445 637 l 1,6,-1
 445 1501 l 1,7,-1
 579 1501 l 1,8,-1
 579 637 l 1,9,-1
 1034 637 l 1,10,-1
 1034 423 l 1,11,-1
 579 423 l 1,0,-1
EndSplineSet
EndChar

StartChar: uni2540
Encoding: 9536 9536 64
Width: 1024
Flags: W
LayerCount: 2
Fore
SplineSet
445 463 m 1,0,-1
 -10 463 l 1,1,-1
 -10 597 l 1,2,-1
 405 597 l 1,3,-1
 405 1501 l 1,4,-1
 619 1501 l 1,5,-1
 619 597 l 1,6,-1
 1034 597 l 1,7,-1
 1034 463 l 1,8,-1
 579 463 l 1,9,-1
 579 -440 l 1,10,-1
 445 -440 l 1,11,-1
 445 463 l 1,0,-1
EndSplineSet
EndChar

StartChar: uni2541
Encoding: 9537 9537 65
Width: 1024
Flags: W
LayerCount: 2
Fore
SplineSet
405 463 m 1,0,-1
 -10 463 l 1,1,-1
 -10 597 l 1,2,-1
 445 597 l 1,3,-1
 445 1501 l 1,4,-1
 579 1501 l 1,5,-1
 579 597 l 1,6,-1
 1034 597 l 1,7,-1
 1034 463 l 1,8,-1
 619 463 l 1,9,-1
 619 -440 l 1,10,-1
 405 -440 l 1,11,-1
 405 463 l 1,0,-1
EndSplineSet
EndChar

StartChar: uni2542
Encoding: 9538 9538 66
Width: 1024
Flags: W
LayerCount: 2
Fore
SplineSet
405 463 m 1,0,-1
 -10 463 l 1,1,-1
 -10 597 l 1,2,-1
 405 597 l 1,3,-1
 405 1501 l 1,4,-1
 619 1501 l 1,5,-1
 619 597 l 1,6,-1
 1034 597 l 1,7,-1
 1034 463 l 1,8,-1
 619 463 l 1,9,-1
 619 -440 l 1,10,-1
 405 -440 l 1,11,-1
 405 463 l 1,0,-1
EndSplineSet
EndChar

StartChar: uni2543
Encoding: 9539 9539 67
Width: 1024
Flags: W
LayerCount: 2
Fore
SplineSet
445 423 m 1,0,-1
 -10 423 l 1,1,-1
 -10 637 l 1,2,-1
 405 637 l 1,3,-1
 405 1501 l 1,4,-1
 619 1501 l 1,5,-1
 619 597 l 1,6,-1
 1034 597 l 1,7,-1
 1034 463 l 1,8,-1
 619 463 l 1,9,-1
 619 423 l 1,10,-1
 579 423 l 1,11,-1
 579 -440 l 1,12,-1
 445 -440 l 1,13,-1
 445 423 l 1,0,-1
EndSplineSet
EndChar

StartChar: uni2544
Encoding: 9540 9540 68
Width: 1024
Flags: W
LayerCount: 2
Fore
SplineSet
579 -440 m 1,0,-1
 445 -440 l 1,1,-1
 445 423 l 1,2,-1
 405 423 l 1,3,-1
 405 463 l 1,4,-1
 -10 463 l 1,5,-1
 -10 597 l 1,6,-1
 405 597 l 1,7,-1
 405 1501 l 1,8,-1
 619 1501 l 1,9,-1
 619 637 l 1,10,-1
 1034 637 l 1,11,-1
 1034 423 l 1,12,-1
 579 423 l 1,13,-1
 579 -440 l 1,0,-1
EndSplineSet
EndChar

StartChar: uni2545
Encoding: 9541 9541 69
Width: 1024
Flags: W
LayerCount: 2
Fore
SplineSet
405 -440 m 1,0,-1
 405 423 l 1,1,-1
 -10 423 l 1,2,-1
 -10 637 l 1,3,-1
 445 637 l 1,4,-1
 445 1501 l 1,5,-1
 579 1501 l 1,6,-1
 579 637 l 1,7,-1
 619 637 l 1,8,-1
 619 597 l 1,9,-1
 1034 597 l 1,10,-1
 1034 463 l 1,11,-1
 619 463 l 1,12,-1
 619 -440 l 1,13,-1
 405 -440 l 1,0,-1
EndSplineSet
EndChar

StartChar: uni2546
Encoding: 9542 9542 70
Width: 1024
Flags: W
LayerCount: 2
Fore
SplineSet
405 -440 m 1,0,-1
 405 423 l 1,1,-1
 -10 423 l 1,2,-1
 -10 637 l 1,3,-1
 445 637 l 1,4,-1
 445 1501 l 1,5,-1
 579 1501 l 1,6,-1
 579 637 l 1,7,-1
 619 637 l 1,8,-1
 619 597 l 1,9,-1
 1034 597 l 1,10,-1
 1034 463 l 1,11,-1
 619 463 l 1,12,-1
 619 -440 l 1,13,-1
 405 -440 l 1,0,-1
EndSplineSet
EndChar

StartChar: uni2547
Encoding: 9543 9543 71
Width: 1024
Flags: W
LayerCount: 2
Fore
SplineSet
579 -440 m 1,0,-1
 445 -440 l 1,1,-1
 445 423 l 1,2,-1
 -10 423 l 1,3,-1
 -10 637 l 1,4,-1
 405 637 l 1,5,-1
 405 1501 l 1,6,-1
 619 1501 l 1,7,-1
 619 637 l 1,8,-1
 1034 637 l 1,9,-1
 1034 423 l 1,10,-1
 579 423 l 1,11,-1
 579 -440 l 1,0,-1
EndSplineSet
EndChar

StartChar: uni2548
Encoding: 9544 9544 72
Width: 1024
Flags: W
LayerCount: 2
Fore
SplineSet
579 637 m 1,0,-1
 1034 637 l 1,1,-1
 1034 423 l 1,2,-1
 619 423 l 1,3,-1
 619 -440 l 1,4,-1
 405 -440 l 1,5,-1
 405 423 l 1,6,-1
 -10 423 l 1,7,-1
 -10 637 l 1,8,-1
 445 637 l 1,9,-1
 445 1501 l 1,10,-1
 579 1501 l 1,11,-1
 579 637 l 1,0,-1
EndSplineSet
EndChar

StartChar: uni2549
Encoding: 9545 9545 73
Width: 1024
Flags: W
LayerCount: 2
Fore
SplineSet
405 423 m 1,0,-1
 -10 423 l 1,1,-1
 -10 637 l 1,2,-1
 405 637 l 1,3,-1
 405 1501 l 1,4,-1
 619 1501 l 1,5,-1
 619 597 l 1,6,-1
 1034 597 l 1,7,-1
 1034 463 l 1,8,-1
 619 463 l 1,9,-1
 619 -440 l 1,10,-1
 405 -440 l 1,11,-1
 405 423 l 1,0,-1
EndSplineSet
EndChar

StartChar: uni254A
Encoding: 9546 9546 74
Width: 1024
Flags: W
LayerCount: 2
Fore
SplineSet
405 -440 m 1,0,-1
 405 463 l 1,1,-1
 -10 463 l 1,2,-1
 -10 597 l 1,3,-1
 405 597 l 1,4,-1
 405 1501 l 1,5,-1
 619 1501 l 1,6,-1
 619 637 l 1,7,-1
 1034 637 l 1,8,-1
 1034 423 l 1,9,-1
 619 423 l 1,10,-1
 619 -440 l 1,11,-1
 405 -440 l 1,0,-1
EndSplineSet
EndChar

StartChar: uni254B
Encoding: 9547 9547 75
Width: 1024
Flags: W
LayerCount: 2
Fore
SplineSet
619 423 m 1,0,-1
 619 -440 l 1,1,-1
 405 -440 l 1,2,-1
 405 423 l 1,3,-1
 -10 423 l 1,4,-1
 -10 637 l 1,5,-1
 405 637 l 1,6,-1
 405 1501 l 1,7,-1
 619 1501 l 1,8,-1
 619 637 l 1,9,-1
 1034 637 l 1,10,-1
 1034 423 l 1,11,-1
 619 423 l 1,0,-1
EndSplineSet
EndChar

StartChar: uni2581
Encoding: 9601 9601 76
Width: 1921
Flags: W
LayerCount: 2
Fore
SplineSet
-10 -180 m 1,0,-1
 1931 -180 l 1,1,-1
 1931 -440 l 1,2,-1
 -10 -440 l 1,3,-1
 -10 -180 l 1,0,-1
EndSplineSet
EndChar

StartChar: uni2582
Encoding: 9602 9602 77
Width: 1921
Flags: W
LayerCount: 2
Fore
SplineSet
-10 45 m 1,0,-1
 1931 45 l 1,1,-1
 1931 -440 l 1,2,-1
 -10 -440 l 1,3,-1
 -10 45 l 1,0,-1
EndSplineSet
EndChar

StartChar: uni2583
Encoding: 9603 9603 78
Width: 1921
Flags: W
LayerCount: 2
Fore
SplineSet
-10 288 m 1,0,-1
 1931 288 l 1,1,-1
 1931 -440 l 1,2,-1
 -10 -440 l 1,3,-1
 -10 288 l 1,0,-1
EndSplineSet
EndChar

StartChar: dnblock
Encoding: 9604 9604 79
Width: 1921
Flags: W
LayerCount: 2
Fore
SplineSet
-10 530 m 1,0,-1
 1931 530 l 1,1,-1
 1931 -440 l 1,2,-1
 -10 -440 l 1,3,-1
 -10 530 l 1,0,-1
EndSplineSet
EndChar

StartChar: uni2585
Encoding: 9605 9605 80
Width: 1921
Flags: W
LayerCount: 2
Fore
SplineSet
-10 773 m 1,0,-1
 1931 773 l 1,1,-1
 1931 -440 l 1,2,-1
 -10 -440 l 1,3,-1
 -10 773 l 1,0,-1
EndSplineSet
EndChar

StartChar: uni2586
Encoding: 9606 9606 81
Width: 1921
Flags: W
LayerCount: 2
Fore
SplineSet
-10 1016 m 1,0,-1
 1931 1016 l 1,1,-1
 1931 -440 l 1,2,-1
 -10 -440 l 1,3,-1
 -10 1016 l 1,0,-1
EndSplineSet
EndChar

StartChar: uni2587
Encoding: 9607 9607 82
Width: 1921
Flags: W
LayerCount: 2
Fore
SplineSet
-10 1258 m 1,0,-1
 1931 1258 l 1,1,-1
 1931 -440 l 1,2,-1
 -10 -440 l 1,3,-1
 -10 1258 l 1,0,-1
EndSplineSet
EndChar

StartChar: block
Encoding: 9608 9608 83
Width: 1921
Flags: W
LayerCount: 2
Fore
SplineSet
-10 1501 m 1,0,-1
 1931 1501 l 1,1,-1
 1931 -440 l 1,2,-1
 -10 -440 l 1,3,-1
 -10 1501 l 1,0,-1
EndSplineSet
EndChar

StartChar: uni2589
Encoding: 9609 9609 84
Width: 1678
Flags: W
LayerCount: 2
Fore
SplineSet
-10 1501 m 1,0,-1
 1688 1501 l 1,1,-1
 1688 -440 l 1,2,-1
 -10 -440 l 1,3,-1
 -10 1501 l 1,0,-1
EndSplineSet
EndChar

StartChar: uni258A
Encoding: 9610 9610 85
Width: 1436
Flags: W
LayerCount: 2
Fore
SplineSet
-10 1501 m 1,0,-1
 1446 1501 l 1,1,-1
 1446 -440 l 1,2,-1
 -10 -440 l 1,3,-1
 -10 1501 l 1,0,-1
EndSplineSet
EndChar

StartChar: uni258B
Encoding: 9611 9611 86
Width: 1193
Flags: W
LayerCount: 2
Fore
SplineSet
-10 1501 m 1,0,-1
 1203 1501 l 1,1,-1
 1203 -440 l 1,2,-1
 -10 -440 l 1,3,-1
 -10 1501 l 1,0,-1
EndSplineSet
EndChar

StartChar: lfblock
Encoding: 9612 9612 87
Width: 950
Flags: W
LayerCount: 2
Fore
SplineSet
-10 1501 m 1,0,-1
 960 1501 l 1,1,-1
 960 -440 l 1,2,-1
 -10 -440 l 1,3,-1
 -10 1501 l 1,0,-1
EndSplineSet
EndChar

StartChar: uni258D
Encoding: 9613 9613 88
Width: 708
Flags: W
LayerCount: 2
Fore
SplineSet
-10 1501 m 1,0,-1
 718 1501 l 1,1,-1
 718 -440 l 1,2,-1
 -10 -440 l 1,3,-1
 -10 1501 l 1,0,-1
EndSplineSet
EndChar

StartChar: uni258E
Encoding: 9614 9614 89
Width: 465
Flags: W
LayerCount: 2
Fore
SplineSet
-10 1501 m 1,0,-1
 475 1501 l 1,1,-1
 475 -440 l 1,2,-1
 -10 -440 l 1,3,-1
 -10 1501 l 1,0,-1
EndSplineSet
EndChar

StartChar: uni258F
Encoding: 9615 9615 90
Width: 223
Flags: W
LayerCount: 2
Fore
SplineSet
-10 1501 m 1,0,-1
 233 1501 l 1,1,-1
 233 -440 l 1,2,-1
 -10 -440 l 1,3,-1
 -10 1501 l 1,0,-1
EndSplineSet
EndChar

StartChar: uni2669
Encoding: 9833 9833 91
Width: 803
Flags: W
LayerCount: 2
Fore
SplineSet
144 169 m 0,0,1
 144 225 144 225 167 273.5 c 128,-1,2
 190 322 190 322 229.5 357.5 c 128,-1,3
 269 393 269 393 321 413.5 c 128,-1,4
 373 434 373 434 431 434 c 0,5,6
 476 434 476 434 512 423 c 1,7,-1
 512 1434 l 1,8,-1
 615 1434 l 1,9,-1
 615 289 l 2,10,11
 615 226 615 226 595.5 169 c 128,-1,12
 576 112 576 112 541 69 c 128,-1,13
 506 26 506 26 457 0.5 c 128,-1,14
 408 -25 408 -25 349 -25 c 0,15,16
 250 -25 250 -25 197 27 c 128,-1,17
 144 79 144 79 144 169 c 0,0,1
EndSplineSet
EndChar

StartChar: musicalnote
Encoding: 9834 9834 92
Width: 1087
Flags: W
LayerCount: 2
Fore
SplineSet
144 169 m 0,0,1
 144 225 144 225 167 273.5 c 128,-1,2
 190 322 190 322 229.5 357.5 c 128,-1,3
 269 393 269 393 321 413.5 c 128,-1,4
 373 434 373 434 431 434 c 0,5,6
 476 434 476 434 512 423 c 1,7,-1
 512 1434 l 1,8,-1
 615 1434 l 1,9,-1
 615 1407 l 2,10,11
 615 1383 615 1383 623 1364 c 128,-1,12
 631 1345 631 1345 651 1324.5 c 128,-1,13
 671 1304 671 1304 704 1279 c 128,-1,14
 737 1254 737 1254 787 1220 c 0,15,16
 835 1187 835 1187 867 1154.5 c 128,-1,17
 899 1122 899 1122 918 1087.5 c 128,-1,18
 937 1053 937 1053 944.5 1015.5 c 128,-1,19
 952 978 952 978 952 933 c 0,20,21
 952 876 952 876 936.5 825 c 128,-1,22
 921 774 921 774 894 726 c 1,23,-1
 816 752 l 1,24,25
 826 789 826 789 830.5 819.5 c 128,-1,26
 835 850 835 850 835 882 c 0,27,28
 835 919 835 919 829 948.5 c 128,-1,29
 823 978 823 978 808.5 1004.5 c 128,-1,30
 794 1031 794 1031 768.5 1055.5 c 128,-1,31
 743 1080 743 1080 704 1108 c 0,32,33
 673 1130 673 1130 651.5 1143.5 c 128,-1,34
 630 1157 630 1157 615 1173 c 1,35,-1
 615 289 l 2,36,37
 615 226 615 226 595.5 169 c 128,-1,38
 576 112 576 112 541 69 c 128,-1,39
 506 26 506 26 457 0.5 c 128,-1,40
 408 -25 408 -25 349 -25 c 0,41,42
 250 -25 250 -25 197 27 c 128,-1,43
 144 79 144 79 144 169 c 0,0,1
EndSplineSet
EndChar

StartChar: musicalnotedbl
Encoding: 9835 9835 93
Width: 1718
Flags: W
LayerCount: 2
Fore
SplineSet
855 -27 m 0,0,1
 855 29 855 29 878 77.5 c 128,-1,2
 901 126 901 126 940.5 161.5 c 128,-1,3
 980 197 980 197 1032 217.5 c 128,-1,4
 1084 238 1084 238 1142 238 c 0,5,6
 1187 238 1187 238 1223 227 c 1,7,-1
 1223 1109 l 1,8,-1
 615 1255 l 1,9,-1
 615 289 l 2,10,11
 615 226 615 226 595.5 169 c 128,-1,12
 576 112 576 112 541 69 c 128,-1,13
 506 26 506 26 457 0.5 c 128,-1,14
 408 -25 408 -25 349 -25 c 0,15,16
 250 -25 250 -25 197 27 c 128,-1,17
 144 79 144 79 144 169 c 0,18,19
 144 225 144 225 167 273.5 c 128,-1,20
 190 322 190 322 229.5 357.5 c 128,-1,21
 269 393 269 393 321 413.5 c 128,-1,22
 373 434 373 434 431 434 c 0,23,24
 476 434 476 434 512 423 c 1,25,-1
 512 1434 l 1,26,-1
 1326 1238 l 1,27,-1
 1326 93 l 2,28,29
 1326 30 1326 30 1306.5 -27 c 128,-1,30
 1287 -84 1287 -84 1252 -127 c 128,-1,31
 1217 -170 1217 -170 1168 -195.5 c 128,-1,32
 1119 -221 1119 -221 1060 -221 c 0,33,34
 961 -221 961 -221 908 -169 c 128,-1,35
 855 -117 855 -117 855 -27 c 0,0,1
EndSplineSet
EndChar

StartChar: uni266C
Encoding: 9836 9836 94
Width: 1856
Flags: W
LayerCount: 2
Fore
SplineSet
993 169 m 0,0,1
 993 225 993 225 1016 273.5 c 128,-1,2
 1039 322 1039 322 1078.5 357.5 c 128,-1,3
 1118 393 1118 393 1170 413.5 c 128,-1,4
 1222 434 1222 434 1280 434 c 0,5,6
 1325 434 1325 434 1361 423 c 1,7,-1
 1361 966 l 1,8,-1
 615 966 l 1,9,-1
 615 289 l 2,10,11
 615 226 615 226 595.5 169 c 128,-1,12
 576 112 576 112 541 69 c 128,-1,13
 506 26 506 26 457 0.5 c 128,-1,14
 408 -25 408 -25 349 -25 c 0,15,16
 250 -25 250 -25 197 27 c 128,-1,17
 144 79 144 79 144 169 c 0,18,19
 144 225 144 225 167 273.5 c 128,-1,20
 190 322 190 322 229.5 357.5 c 128,-1,21
 269 393 269 393 321 413.5 c 128,-1,22
 373 434 373 434 431 434 c 0,23,24
 476 434 476 434 512 423 c 1,25,-1
 512 1434 l 1,26,-1
 1464 1434 l 1,27,-1
 1464 289 l 2,28,29
 1464 226 1464 226 1444.5 169 c 128,-1,30
 1425 112 1425 112 1390 69 c 128,-1,31
 1355 26 1355 26 1306 0.5 c 128,-1,32
 1257 -25 1257 -25 1198 -25 c 0,33,34
 1099 -25 1099 -25 1046 27 c 128,-1,35
 993 79 993 79 993 169 c 0,0,1
615 1118 m 1,36,-1
 1361 1118 l 1,37,-1
 1361 1282 l 1,38,-1
 615 1282 l 1,39,-1
 615 1118 l 1,36,-1
EndSplineSet
EndChar

StartChar: uni266D
Encoding: 9837 9837 95
Width: 924
Flags: W
LayerCount: 2
Fore
SplineSet
780 414 m 0,0,1
 780 333 780 333 754 271.5 c 128,-1,2
 728 210 728 210 684.5 164 c 128,-1,3
 641 118 641 118 584.5 86.5 c 128,-1,4
 528 55 528 55 466.5 36 c 128,-1,5
 405 17 405 17 343 8.5 c 128,-1,6
 281 0 281 0 226 0 c 2,7,-1
 188 0 l 1,8,-1
 188 1434 l 1,9,-1
 291 1434 l 1,10,-1
 291 588 l 1,11,12
 347 638 347 638 406 666.5 c 128,-1,13
 465 695 465 695 544 695 c 0,14,15
 601 695 601 695 645 674.5 c 128,-1,16
 689 654 689 654 719 617 c 128,-1,17
 749 580 749 580 764.5 528 c 128,-1,18
 780 476 780 476 780 414 c 0,0,1
291 54 m 1,19,20
 370 62 370 62 429.5 92.5 c 128,-1,21
 489 123 489 123 528.5 170.5 c 128,-1,22
 568 218 568 218 587.5 280 c 128,-1,23
 607 342 607 342 607 414 c 0,24,25
 607 452 607 452 598 485.5 c 128,-1,26
 589 519 589 519 570.5 543.5 c 128,-1,27
 552 568 552 568 524 582.5 c 128,-1,28
 496 597 496 597 458 597 c 0,29,30
 412 597 412 597 370.5 577.5 c 128,-1,31
 329 558 329 558 291 528 c 1,32,-1
 291 54 l 1,19,20
EndSplineSet
EndChar

StartChar: uni266E
Encoding: 9838 9838 96
Width: 843
Flags: W
LayerCount: 2
Fore
SplineSet
188 243 m 1,0,-1
 188 1434 l 1,1,-1
 291 1434 l 1,2,-1
 291 1021 l 1,3,-1
 592 1190 l 1,4,-1
 655 1190 l 1,5,-1
 655 -1 l 1,6,-1
 552 -1 l 1,7,-1
 552 411 l 1,8,-1
 249 243 l 1,9,-1
 188 243 l 1,0,-1
291 418 m 1,10,-1
 552 563 l 1,11,-1
 552 1016 l 1,12,-1
 291 871 l 1,13,-1
 291 418 l 1,10,-1
EndSplineSet
EndChar

StartChar: uni267A
Encoding: 9850 9850 97
Width: 1801
Flags: W
LayerCount: 2
Fore
SplineSet
912 -197 m 1,0,-1
 907 -197 l 1,1,-1
 713 69 l 1,2,-1
 907 332 l 1,3,-1
 912 332 l 1,4,-1
 912 137 l 1,5,-1
 1450 137 l 2,6,7
 1513 137 1513 137 1541.5 162.5 c 128,-1,8
 1570 188 1570 188 1570 230 c 0,9,10
 1570 262 1570 262 1558 296.5 c 128,-1,11
 1546 331 1546 331 1515 384 c 2,12,-1
 1418 547 l 1,13,-1
 1535 618 l 1,14,-1
 1644 431 l 2,15,16
 1675 378 1675 378 1691 326 c 128,-1,17
 1707 274 1707 274 1707 226 c 256,18,19
 1707 178 1707 178 1691 137 c 128,-1,20
 1675 96 1675 96 1643 65.5 c 128,-1,21
 1611 35 1611 35 1563 17.5 c 128,-1,22
 1515 0 1515 0 1450 0 c 2,23,-1
 910 0 l 1,24,-1
 912 -197 l 1,0,-1
237 947 m 1,25,-1
 240 953 l 1,26,-1
 568 983 l 1,27,-1
 696 685 l 1,28,-1
 694 682 l 1,29,-1
 529 780 l 1,30,-1
 260 316 l 2,31,32
 246 291 246 291 239.5 272.5 c 128,-1,33
 233 254 233 254 233 237 c 0,34,35
 233 183 233 183 267.5 160 c 128,-1,36
 302 137 302 137 378 137 c 2,37,-1
 632 137 l 1,38,-1
 632 0 l 1,39,-1
 378 0 l 2,40,41
 317 0 317 0 265 13.5 c 128,-1,42
 213 27 213 27 175 54.5 c 128,-1,43
 137 82 137 82 115.5 125 c 128,-1,44
 94 168 94 168 94 228 c 0,45,46
 94 263 94 263 105.5 302.5 c 128,-1,47
 117 342 117 342 143 386 c 2,48,-1
 411 851 l 1,49,-1
 237 947 l 1,25,-1
1572 950 m 1,50,-1
 1575 945 l 1,51,-1
 1443 642 l 1,52,-1
 1122 673 l 1,53,-1
 1120 678 l 1,54,-1
 1285 776 l 1,55,-1
 1023 1218 l 2,56,57
 993 1268 993 1268 970 1291.5 c 128,-1,58
 947 1315 947 1315 911 1315 c 0,59,60
 874 1315 874 1315 848 1292 c 128,-1,61
 822 1269 822 1269 793 1220 c 2,62,-1
 665 1004 l 1,63,-1
 549 1075 l 1,64,-1
 677 1289 l 2,65,66
 703 1332 703 1332 727.5 1364 c 128,-1,67
 752 1396 752 1396 779 1417 c 128,-1,68
 806 1438 806 1438 838 1448 c 128,-1,69
 870 1458 870 1458 912 1458 c 0,70,71
 950 1458 950 1458 981 1447.5 c 128,-1,72
 1012 1437 1012 1437 1039 1416 c 128,-1,73
 1066 1395 1066 1395 1090 1363 c 128,-1,74
 1114 1331 1114 1331 1140 1288 c 2,75,-1
 1401 847 l 1,76,-1
 1572 950 l 1,50,-1
EndSplineSet
EndChar

StartChar: uni26A0
Encoding: 9888 9888 98
Width: 1764
Flags: W
LayerCount: 2
Fore
SplineSet
1693 -62 m 2,0,-1
 67 -62 l 2,1,2
 50 -62 50 -62 36.5 -52 c 128,-1,3
 23 -42 23 -42 15 -28 c 256,4,5
 7 -14 7 -14 7 2 c 0,6,7
 7 17 7 17 15 33 c 2,8,-1
 827 1475 l 2,9,10
 835 1489 835 1489 849 1496 c 128,-1,11
 863 1503 863 1503 879 1503 c 256,12,13
 895 1503 895 1503 909 1496 c 128,-1,14
 923 1489 923 1489 931 1475 c 2,15,-1
 1745 33 l 2,16,17
 1753 17 1753 17 1753 2 c 0,18,19
 1753 -14 1753 -14 1745 -28 c 256,20,21
 1737 -42 1737 -42 1723.5 -52 c 128,-1,22
 1710 -62 1710 -62 1693 -62 c 2,0,-1
171 66 m 1,23,-1
 1587 66 l 1,24,-1
 879 1320 l 1,25,-1
 171 66 l 1,23,-1
972 430 m 1,26,-1
 786 430 l 1,27,-1
 786 985 l 1,28,-1
 972 985 l 1,29,-1
 972 430 l 1,26,-1
1000 248 m 0,30,31
 1000 222 1000 222 990.5 200 c 128,-1,32
 981 178 981 178 964.5 161.5 c 128,-1,33
 948 145 948 145 926 135.5 c 128,-1,34
 904 126 904 126 879 126 c 256,35,36
 854 126 854 126 832 135.5 c 128,-1,37
 810 145 810 145 794 161.5 c 128,-1,38
 778 178 778 178 769 200 c 128,-1,39
 760 222 760 222 760 248 c 0,40,41
 760 273 760 273 769 296 c 128,-1,42
 778 319 778 319 794 335.5 c 128,-1,43
 810 352 810 352 832 362 c 128,-1,44
 854 372 854 372 879 372 c 256,45,46
 904 372 904 372 926 362 c 128,-1,47
 948 352 948 352 964.5 335.5 c 128,-1,48
 981 319 981 319 990.5 296 c 128,-1,49
 1000 273 1000 273 1000 248 c 0,30,31
EndSplineSet
EndChar

StartChar: .notdef
Encoding: 1114112 -1 99
Width: 1322
GlyphClass: 2
Flags: W
LayerCount: 2
Fore
SplineSet
166 1398 m 1,0,-1
 1156 1398 l 1,1,-1
 1156 0 l 1,2,-1
 166 0 l 1,3,-1
 166 1398 l 1,0,-1
1008 148 m 1,4,-1
 1008 1250 l 1,5,-1
 314 1250 l 1,6,-1
 314 148 l 1,7,-1
 1008 148 l 1,4,-1
EndSplineSet
EndChar

StartChar: exclam
Encoding: 33 33 103
Width: 537
GlyphClass: 2
Flags: W
LayerCount: 2
Fore
SplineSet
401 1434 m 1,0,-1
 508 1434 l 1,1,-1
 279 403 l 1,2,-1
 193 403 l 1,3,-1
 401 1434 l 1,0,-1
94 63 m 0,4,5
 94 98 94 98 117 120.5 c 128,-1,6
 140 143 140 143 174 143 c 256,7,8
 208 143 208 143 232 120.5 c 128,-1,9
 256 98 256 98 256 63 c 0,10,11
 256 29 256 29 232 5.5 c 128,-1,12
 208 -18 208 -18 174 -18 c 256,13,14
 140 -18 140 -18 117 5.5 c 128,-1,15
 94 29 94 29 94 63 c 0,4,5
EndSplineSet
Substitution2: "SegoeUI-LightItalic-'ss19' Style Set 19 lookup 28 subtable" exclam.ss19
EndChar

StartChar: quotedbl
Encoding: 34 34 104
Width: 662
GlyphClass: 2
Flags: W
LayerCount: 2
Fore
SplineSet
535 1434 m 1,0,-1
 631 1434 l 1,1,-1
 621 985 l 1,2,-1
 545 985 l 1,3,-1
 535 1434 l 1,0,-1
287 1434 m 1,4,-1
 383 1434 l 1,5,-1
 373 985 l 1,6,-1
 297 985 l 1,7,-1
 287 1434 l 1,4,-1
EndSplineSet
EndChar

StartChar: numbersign
Encoding: 35 35 105
Width: 1237
GlyphClass: 2
Flags: W
LayerCount: 2
Fore
SplineSet
401 522 m 1,0,-1
 119 522 l 1,1,-1
 137 600 l 1,2,-1
 418 600 l 1,3,-1
 494 946 l 1,4,-1
 201 946 l 1,5,-1
 219 1024 l 1,6,-1
 510 1024 l 1,7,-1
 598 1434 l 1,8,-1
 678 1434 l 1,9,-1
 590 1024 l 1,10,-1
 858 1024 l 1,11,-1
 946 1434 l 1,12,-1
 1026 1434 l 1,13,-1
 938 1024 l 1,14,-1
 1212 1024 l 1,15,-1
 1194 946 l 1,16,-1
 922 946 l 1,17,-1
 846 600 l 1,18,-1
 1130 600 l 1,19,-1
 1112 522 l 1,20,-1
 829 522 l 1,21,-1
 743 123 l 1,22,-1
 664 123 l 1,23,-1
 750 522 l 1,24,-1
 481 522 l 1,25,-1
 395 123 l 1,26,-1
 315 123 l 1,27,-1
 401 522 l 1,0,-1
766 600 m 1,28,-1
 842 946 l 1,29,-1
 573 946 l 1,30,-1
 498 600 l 1,31,-1
 766 600 l 1,28,-1
EndSplineSet
EndChar

StartChar: dollar
Encoding: 36 36 106
Width: 1055
GlyphClass: 2
Flags: W
LayerCount: 2
Fore
SplineSet
88 180 m 1,0,1
 214 98 214 98 387 86 c 1,2,-1
 516 686 l 1,3,4
 382 784 382 784 326 867.5 c 128,-1,5
 270 951 270 951 270 1059 c 0,6,7
 270 1214 270 1214 383.5 1318 c 128,-1,8
 497 1422 497 1422 674 1434 c 1,9,-1
 713 1614 l 1,10,-1
 791 1614 l 1,11,-1
 752 1432 l 1,12,13
 880 1425 880 1425 997 1382 c 1,14,-1
 977 1284 l 1,15,16
 872 1344 872 1344 733 1350 c 1,17,-1
 604 737 l 1,18,19
 747 632 747 632 800.5 552.5 c 128,-1,20
 854 473 854 473 854 371 c 0,21,22
 854 206 854 206 744.5 106 c 128,-1,23
 635 6 635 6 449 0 c 1,24,-1
 403 -209 l 1,25,-1
 326 -209 l 1,26,-1
 371 2 l 1,27,28
 197 12 197 12 70 80 c 1,29,-1
 88 180 l 1,0,1
655 1348 m 1,30,31
 526 1338 526 1338 446.5 1259.5 c 128,-1,32
 367 1181 367 1181 367 1067 c 0,33,34
 367 984 367 984 405.5 920.5 c 128,-1,35
 444 857 444 857 537 786 c 1,36,-1
 655 1348 l 1,30,31
467 86 m 1,37,38
 606 95 606 95 682 166.5 c 128,-1,39
 758 238 758 238 758 358 c 0,40,41
 758 429 758 429 717 495.5 c 128,-1,42
 676 562 676 562 584 635 c 1,43,-1
 467 86 l 1,37,38
EndSplineSet
EndChar

StartChar: percent
Encoding: 37 37 107
Width: 1632
GlyphClass: 2
Flags: W
LayerCount: 2
Fore
SplineSet
1174 -20 m 0,0,1
 1053 -20 1053 -20 982 54.5 c 128,-1,2
 911 129 911 129 911 256 c 0,3,4
 911 449 911 449 1021 580 c 128,-1,5
 1131 711 1131 711 1292 711 c 0,6,7
 1412 711 1412 711 1481 636 c 128,-1,8
 1550 561 1550 561 1550 434 c 0,9,10
 1550 239 1550 239 1443.5 109.5 c 128,-1,11
 1337 -20 1337 -20 1174 -20 c 0,0,1
1395 1434 m 1,12,-1
 1503 1434 l 1,13,-1
 334 0 l 1,14,-1
 225 0 l 1,15,-1
 1395 1434 l 1,12,-1
416 723 m 0,16,17
 295 723 295 723 224.5 796 c 128,-1,18
 154 869 154 869 154 999 c 0,19,20
 154 1192 154 1192 264 1323 c 128,-1,21
 374 1454 374 1454 535 1454 c 0,22,23
 653 1454 653 1454 723 1379.5 c 128,-1,24
 793 1305 793 1305 793 1178 c 0,25,26
 793 983 793 983 686.5 853 c 128,-1,27
 580 723 580 723 416 723 c 0,16,17
1180 59 m 0,28,29
 1299 59 1299 59 1379.5 164 c 128,-1,30
 1460 269 1460 269 1460 426 c 0,31,32
 1460 526 1460 526 1414.5 578.5 c 128,-1,33
 1369 631 1369 631 1284 631 c 0,34,35
 1163 631 1163 631 1083.5 524.5 c 128,-1,36
 1004 418 1004 418 1004 262 c 0,37,38
 1004 165 1004 165 1051 112 c 128,-1,39
 1098 59 1098 59 1180 59 c 0,28,29
422 803 m 0,40,41
 542 803 542 803 622 907.5 c 128,-1,42
 702 1012 702 1012 702 1169 c 0,43,44
 702 1269 702 1269 656.5 1321.5 c 128,-1,45
 611 1374 611 1374 526 1374 c 0,46,47
 407 1374 407 1374 326.5 1268.5 c 128,-1,48
 246 1163 246 1163 246 1006 c 0,49,50
 246 909 246 909 291.5 856 c 128,-1,51
 337 803 337 803 422 803 c 0,40,41
EndSplineSet
EndChar

StartChar: ampersand
Encoding: 38 38 108
Width: 1470
GlyphClass: 2
Flags: W
LayerCount: 2
Fore
SplineSet
997 161 m 1,0,1
 777 -29 777 -29 501 -29 c 0,2,3
 312 -29 312 -29 202 69 c 128,-1,4
 92 167 92 167 92 327 c 0,5,6
 92 428 92 428 138.5 507 c 128,-1,7
 185 586 185 586 277.5 648.5 c 128,-1,8
 370 711 370 711 551 779 c 1,9,10
 463 903 463 903 434.5 968 c 128,-1,11
 406 1033 406 1033 406 1110 c 0,12,13
 406 1208 406 1208 457 1288.5 c 128,-1,14
 508 1369 508 1369 598 1414.5 c 128,-1,15
 688 1460 688 1460 788 1460 c 0,16,17
 943 1460 943 1460 1036 1382 c 128,-1,18
 1129 1304 1129 1304 1129 1170 c 0,19,20
 1129 1025 1129 1025 1022 928.5 c 128,-1,21
 915 832 915 832 680 747 c 1,22,-1
 1011 291 l 1,23,24
 1185 480 1185 480 1278 764 c 1,25,-1
 1362 764 l 1,26,27
 1264 434 1264 434 1062 222 c 1,28,-1
 1225 0 l 1,29,-1
 1114 0 l 1,30,-1
 997 161 l 1,0,1
1041 1170 m 0,31,32
 1041 1270 1041 1270 973 1325.5 c 128,-1,33
 905 1381 905 1381 784 1381 c 0,34,35
 656 1381 656 1381 575 1305 c 128,-1,36
 494 1229 494 1229 494 1111 c 0,37,38
 494 1054 494 1054 523 987.5 c 128,-1,39
 552 921 552 921 633 808 c 1,40,41
 789 865 789 865 876 915.5 c 128,-1,42
 963 966 963 966 1002 1022 c 128,-1,43
 1041 1078 1041 1078 1041 1170 c 0,31,32
597 716 m 1,44,45
 430 651 430 651 345 598 c 128,-1,46
 260 545 260 545 223 483.5 c 128,-1,47
 186 422 186 422 186 327 c 0,48,49
 186 205 186 205 276.5 129 c 128,-1,50
 367 53 367 53 509 53 c 0,51,52
 750 53 750 53 948 229 c 1,53,-1
 597 716 l 1,44,45
EndSplineSet
Substitution2: "SegoeUI-LightItalic-'ss20' Style Set 20 lookup 29 subtable" ampersand.ss20
Substitution2: "SegoeUI-LightItalic-'smcp' Lowercase to Small Capitals lookup 18 subtable" ampersand.c2sc
Substitution2: "SegoeUI-LightItalic-'c2sc' Capitals to Small Capitals lookup 17 subtable" ampersand.c2sc
EndChar

StartChar: quotesingle
Encoding: 39 39 109
Width: 414
GlyphClass: 2
Flags: W
LayerCount: 2
Fore
SplineSet
287 1434 m 1,0,-1
 383 1434 l 1,1,-1
 373 985 l 1,2,-1
 297 985 l 1,3,-1
 287 1434 l 1,0,-1
EndSplineSet
EndChar

StartChar: parenleft
Encoding: 40 40 110
Width: 588
GlyphClass: 2
Flags: W
LayerCount: 2
Fore
SplineSet
289 -281 m 1,0,1
 123 12 123 12 123 317 c 0,2,3
 123 644 123 644 245 901.5 c 128,-1,4
 367 1159 367 1159 649 1434 c 1,5,-1
 754 1434 l 1,6,7
 468 1152 468 1152 341.5 893.5 c 128,-1,8
 215 635 215 635 215 330 c 0,9,10
 215 5 215 5 385 -281 c 1,11,-1
 289 -281 l 1,0,1
EndSplineSet
Position2: "SegoeUI-LightItalic-'case' Case-Sensitive Forms lookup 3 subtable" dx=30 dy=140 dh=0 dv=0
EndChar

StartChar: parenright
Encoding: 41 41 111
Width: 588
GlyphClass: 2
Flags: W
LayerCount: 2
Fore
SplineSet
-143 -281 m 1,0,1
 138 -4 138 -4 266.5 255 c 128,-1,2
 395 514 395 514 395 823 c 0,3,4
 395 1148 395 1148 225 1434 c 1,5,-1
 322 1434 l 1,6,7
 487 1138 487 1138 487 836 c 0,8,9
 487 512 487 512 364.5 252 c 128,-1,10
 242 -8 242 -8 -39 -281 c 1,11,-1
 -143 -281 l 1,0,1
EndSplineSet
Position2: "SegoeUI-LightItalic-'case' Case-Sensitive Forms lookup 3 subtable" dx=30 dy=140 dh=0 dv=0
EndChar

StartChar: asterisk
Encoding: 42 42 112
Width: 831
GlyphClass: 2
Flags: W
LayerCount: 2
Fore
SplineSet
494 1051 m 1,0,-1
 199 1126 l 1,1,-1
 225 1212 l 1,2,-1
 514 1110 l 1,3,-1
 498 1434 l 1,4,-1
 592 1434 l 1,5,-1
 578 1110 l 1,6,-1
 864 1212 l 1,7,-1
 891 1126 l 1,8,-1
 598 1051 l 1,9,-1
 797 784 l 1,10,-1
 721 733 l 1,11,-1
 547 1010 l 1,12,-1
 369 733 l 1,13,-1
 295 784 l 1,14,-1
 494 1051 l 1,0,-1
EndSplineSet
EndChar

StartChar: plus
Encoding: 43 43 113
Width: 1331
GlyphClass: 2
Flags: W
LayerCount: 2
Fore
SplineSet
233 639 m 1,0,-1
 645 639 l 1,1,-1
 645 1051 l 1,2,-1
 729 1051 l 1,3,-1
 729 639 l 1,4,-1
 1141 639 l 1,5,-1
 1141 555 l 1,6,-1
 729 555 l 1,7,-1
 729 143 l 1,8,-1
 645 143 l 1,9,-1
 645 555 l 1,10,-1
 233 555 l 1,11,-1
 233 639 l 1,0,-1
EndSplineSet
EndChar

StartChar: comma
Encoding: 44 44 114
Width: 455
GlyphClass: 2
Flags: W
LayerCount: 2
Fore
SplineSet
160 227 m 1,0,-1
 266 227 l 1,1,-1
 61 -248 l 1,2,-1
 -25 -248 l 1,3,-1
 160 227 l 1,0,-1
EndSplineSet
Substitution2: "SegoeUI-LightItalic-'ss19' Style Set 19 lookup 28 subtable" comma.ss19
EndChar

StartChar: hyphen
Encoding: 45 45 115
AltUni2: 002010.ffffffff.0 002010.ffffffff.0
Width: 815
GlyphClass: 2
Flags: W
LayerCount: 2
Fore
SplineSet
164 645 m 1,0,-1
 711 645 l 1,1,-1
 690 555 l 1,2,-1
 143 555 l 1,3,-1
 164 645 l 1,0,-1
EndSplineSet
Position2: "SegoeUI-LightItalic-'case' Case-Sensitive Forms lookup 3 subtable" dx=23 dy=110 dh=0 dv=0
EndChar

StartChar: period
Encoding: 46 46 116
Width: 455
GlyphClass: 2
Flags: W
LayerCount: 2
Fore
SplineSet
143 -18 m 256,0,1
 109 -18 109 -18 86 5.5 c 128,-1,2
 63 29 63 29 63 63 c 0,3,4
 63 98 63 98 86 120.5 c 128,-1,5
 109 143 109 143 143 143 c 256,6,7
 177 143 177 143 201 120.5 c 128,-1,8
 225 98 225 98 225 63 c 0,9,10
 225 29 225 29 201 5.5 c 128,-1,11
 177 -18 177 -18 143 -18 c 256,0,1
EndSplineSet
EndChar

StartChar: slash
Encoding: 47 47 117
Width: 791
GlyphClass: 2
Flags: W
LayerCount: 2
Fore
SplineSet
874 1434 m 1,0,-1
 975 1434 l 1,1,-1
 -66 -238 l 1,2,-1
 -166 -238 l 1,3,-1
 874 1434 l 1,0,-1
EndSplineSet
Substitution2: "SegoeUI-LightItalic-'frac' Diagonal Fractions lookup 2 subtable" fraction
EndChar

StartChar: zero
Encoding: 48 48 118
Width: 1055
GlyphClass: 2
Flags: W
LayerCount: 2
Fore
SplineSet
102 444 m 0,0,1
 102 712 102 712 188.5 957.5 c 128,-1,2
 275 1203 275 1203 415.5 1330.5 c 128,-1,3
 556 1458 556 1458 721 1458 c 0,4,5
 880 1458 880 1458 964.5 1351 c 128,-1,6
 1049 1244 1049 1244 1049 1036 c 0,7,8
 1049 744 1049 744 971.5 502 c 128,-1,9
 894 260 894 260 753.5 117.5 c 128,-1,10
 613 -25 613 -25 436 -25 c 0,11,12
 276 -25 276 -25 189 90 c 128,-1,13
 102 205 102 205 102 444 c 0,0,1
199 453 m 0,14,15
 199 251 199 251 262 155 c 128,-1,16
 325 59 325 59 451 59 c 0,17,18
 582 59 582 59 695 180.5 c 128,-1,19
 808 302 808 302 881 543 c 128,-1,20
 954 784 954 784 954 1030 c 0,21,22
 954 1198 954 1198 890.5 1286 c 128,-1,23
 827 1374 827 1374 713 1374 c 0,24,25
 572 1374 572 1374 453 1246.5 c 128,-1,26
 334 1119 334 1119 266.5 908 c 128,-1,27
 199 697 199 697 199 453 c 0,14,15
EndSplineSet
Substitution2: "SegoeUI-LightItalic-Single Substitution lookup 30 subtable" glyph2828
Substitution2: "SegoeUI-LightItalic-'ss20' Style Set 20 lookup 27 subtable" zero.pnum
Substitution2: "SegoeUI-LightItalic-'sups' Superscript lookup 24 subtable" uni2070
Substitution2: "SegoeUI-LightItalic-'subs' Subscript lookup 23 subtable" uni2080
Substitution2: "SegoeUI-LightItalic-'pnum' Proportional Numbers lookup 7 subtable" zero.pnum
Substitution2: "SegoeUI-LightItalic-'onum' Oldstyle Figures lookup 5 subtable" zero.oldstyle
Substitution2: "SegoeUI-LightItalic-'frac' Diagonal Fractions lookup 4 subtable" zero.frac
EndChar

StartChar: one
Encoding: 49 49 119
Width: 836
GlyphClass: 2
Flags: W
LayerCount: 2
Fore
SplineSet
583 1330 m 1,0,-1
 206 1216 l 1,1,-1
 225 1315 l 1,2,-1
 700 1458 l 1,3,-1
 392 0 l 1,4,-1
 299 0 l 1,5,-1
 583 1330 l 1,0,-1
EndSplineSet
Substitution2: "SegoeUI-LightItalic-Single Substitution lookup 30 subtable" glyph2829
Substitution2: "SegoeUI-LightItalic-'ss20' Style Set 20 lookup 27 subtable" one.pnum
Substitution2: "SegoeUI-LightItalic-'sups' Superscript lookup 24 subtable" uni00B9
Substitution2: "SegoeUI-LightItalic-'subs' Subscript lookup 23 subtable" uni2081
Substitution2: "SegoeUI-LightItalic-'pnum' Proportional Numbers lookup 7 subtable" one.pnum
Substitution2: "SegoeUI-LightItalic-'onum' Oldstyle Figures lookup 5 subtable" one.oldstyle
Substitution2: "SegoeUI-LightItalic-'frac' Diagonal Fractions lookup 4 subtable" one.frac
EndChar

StartChar: two
Encoding: 50 50 120
Width: 958
GlyphClass: 2
Flags: W
LayerCount: 2
Fore
SplineSet
876 1136 m 0,0,1
 876 1243 876 1243 804.5 1308.5 c 128,-1,2
 733 1374 733 1374 610 1374 c 0,3,4
 469 1374 469 1374 266 1253 c 1,5,-1
 288 1364 l 1,6,7
 355 1404 355 1404 448 1431 c 128,-1,8
 541 1458 541 1458 620 1458 c 0,9,10
 783 1458 783 1458 877 1372.5 c 128,-1,11
 971 1287 971 1287 971 1140 c 0,12,13
 971 1008 971 1008 932.5 927.5 c 128,-1,14
 894 847 894 847 804 769.5 c 128,-1,15
 714 692 714 692 528 574 c 0,16,17
 288 422 288 422 211.5 361 c 128,-1,18
 135 300 135 300 97.5 241 c 128,-1,19
 60 182 60 182 38 84 c 1,20,-1
 751 84 l 1,21,-1
 734 0 l 1,22,-1
 -74 0 l 1,23,-1
 -60 67 l 2,24,25
 -38 177 -38 177 -18.5 220.5 c 128,-1,26
 1 264 1 264 33.5 305 c 128,-1,27
 66 346 66 346 122.5 393.5 c 128,-1,28
 179 441 179 441 264 499.5 c 128,-1,29
 349 558 349 558 457 625 c 0,30,31
 675 763 675 763 744 828 c 128,-1,32
 813 893 813 893 844.5 964.5 c 128,-1,33
 876 1036 876 1036 876 1136 c 0,0,1
EndSplineSet
Substitution2: "SegoeUI-LightItalic-Single Substitution lookup 30 subtable" glyph2830
Substitution2: "SegoeUI-LightItalic-'ss20' Style Set 20 lookup 27 subtable" two.pnum
Substitution2: "SegoeUI-LightItalic-'sups' Superscript lookup 24 subtable" uni00B2
Substitution2: "SegoeUI-LightItalic-'subs' Subscript lookup 23 subtable" uni2082
Substitution2: "SegoeUI-LightItalic-'pnum' Proportional Numbers lookup 7 subtable" two.pnum
Substitution2: "SegoeUI-LightItalic-'onum' Oldstyle Figures lookup 5 subtable" two.oldstyle
Substitution2: "SegoeUI-LightItalic-'frac' Diagonal Fractions lookup 4 subtable" two.frac
EndChar

StartChar: three
Encoding: 51 51 121
Width: 1055
GlyphClass: 2
Flags: W
LayerCount: 2
Fore
SplineSet
55 152 m 1,0,1
 122 109 122 109 209 84 c 128,-1,2
 296 59 296 59 371 59 c 0,3,4
 563 59 563 59 669.5 149.5 c 128,-1,5
 776 240 776 240 776 408 c 0,6,7
 776 698 776 698 414 698 c 2,8,-1
 311 698 l 1,9,-1
 332 788 l 1,10,-1
 426 788 l 2,11,12
 661 788 661 788 779 876.5 c 128,-1,13
 897 965 897 965 897 1135 c 0,14,15
 897 1247 897 1247 831.5 1310.5 c 128,-1,16
 766 1374 766 1374 649 1374 c 0,17,18
 512 1374 512 1374 352 1286 c 1,19,-1
 369 1386 l 1,20,21
 513 1458 513 1458 657 1458 c 0,22,23
 815 1458 815 1458 904 1374.5 c 128,-1,24
 993 1291 993 1291 993 1143 c 0,25,26
 993 990 993 990 895.5 881.5 c 128,-1,27
 798 773 798 773 625 741 c 1,28,-1
 625 737 l 1,29,30
 737 715 737 715 804.5 628 c 128,-1,31
 872 541 872 541 872 416 c 0,32,33
 872 212 872 212 733 93.5 c 128,-1,34
 594 -25 594 -25 360 -25 c 0,35,36
 288 -25 288 -25 198 -5 c 128,-1,37
 108 15 108 15 31 51 c 1,38,-1
 55 152 l 1,0,1
EndSplineSet
Substitution2: "SegoeUI-LightItalic-Single Substitution lookup 30 subtable" glyph2831
Substitution2: "SegoeUI-LightItalic-'ss20' Style Set 20 lookup 27 subtable" three.pnum
Substitution2: "SegoeUI-LightItalic-'sups' Superscript lookup 24 subtable" uni00B3
Substitution2: "SegoeUI-LightItalic-'subs' Subscript lookup 23 subtable" uni2083
Substitution2: "SegoeUI-LightItalic-'pnum' Proportional Numbers lookup 7 subtable" three.pnum
Substitution2: "SegoeUI-LightItalic-'onum' Oldstyle Figures lookup 5 subtable" three.oldstyle
Substitution2: "SegoeUI-LightItalic-'frac' Diagonal Fractions lookup 4 subtable" three.frac
EndChar

StartChar: four
Encoding: 52 52 122
Width: 1032
GlyphClass: 2
Flags: W
LayerCount: 2
Fore
SplineSet
919 1434 m 1,0,-1
 1017 1434 l 1,1,-1
 809 458 l 1,2,-1
 1033 458 l 1,3,-1
 1016 375 l 1,4,-1
 792 375 l 1,5,-1
 712 0 l 1,6,-1
 620 0 l 1,7,-1
 700 375 l 1,8,-1
 17 375 l 1,9,-1
 36 465 l 1,10,11
 273 682 273 682 524 956 c 128,-1,12
 775 1230 775 1230 919 1434 c 1,0,-1
717 458 m 1,13,-1
 888 1258 l 1,14,15
 741 1073 741 1073 545 860 c 128,-1,16
 349 647 349 647 148 458 c 1,17,-1
 717 458 l 1,13,-1
EndSplineSet
Substitution2: "SegoeUI-LightItalic-Single Substitution lookup 30 subtable" glyph2832
Substitution2: "SegoeUI-LightItalic-'ss20' Style Set 20 lookup 27 subtable" four.pnum
Substitution2: "SegoeUI-LightItalic-'sups' Superscript lookup 24 subtable" uni2074
Substitution2: "SegoeUI-LightItalic-'subs' Subscript lookup 23 subtable" uni2084
Substitution2: "SegoeUI-LightItalic-'pnum' Proportional Numbers lookup 7 subtable" four.pnum
Substitution2: "SegoeUI-LightItalic-'onum' Oldstyle Figures lookup 5 subtable" four.oldstyle
Substitution2: "SegoeUI-LightItalic-'frac' Diagonal Fractions lookup 4 subtable" four.frac
EndChar

StartChar: five
Encoding: 53 53 123
Width: 942
GlyphClass: 2
Flags: W
LayerCount: 2
Fore
SplineSet
37 121 m 1,0,1
 88 93 88 93 165 76 c 128,-1,2
 242 59 242 59 307 59 c 0,3,4
 509 59 509 59 623 169.5 c 128,-1,5
 737 280 737 280 737 469 c 0,6,7
 737 762 737 762 408 762 c 0,8,9
 316 762 316 762 184 750 c 1,10,-1
 364 1434 l 1,11,-1
 958 1434 l 1,12,-1
 940 1343 l 1,13,-1
 432 1343 l 1,14,-1
 297 840 l 1,15,-1
 424 846 l 1,16,17
 618 846 618 846 726 751 c 128,-1,18
 834 656 834 656 834 483 c 0,19,20
 834 248 834 248 690 111.5 c 128,-1,21
 546 -25 546 -25 299 -25 c 0,22,23
 134 -25 134 -25 16 23 c 1,24,-1
 37 121 l 1,0,1
EndSplineSet
Substitution2: "SegoeUI-LightItalic-Single Substitution lookup 30 subtable" glyph2833
Substitution2: "SegoeUI-LightItalic-'ss20' Style Set 20 lookup 27 subtable" five.pnum
Substitution2: "SegoeUI-LightItalic-'sups' Superscript lookup 24 subtable" uni2075
Substitution2: "SegoeUI-LightItalic-'subs' Subscript lookup 23 subtable" uni2085
Substitution2: "SegoeUI-LightItalic-'pnum' Proportional Numbers lookup 7 subtable" five.pnum
Substitution2: "SegoeUI-LightItalic-'onum' Oldstyle Figures lookup 5 subtable" five.oldstyle
Substitution2: "SegoeUI-LightItalic-'frac' Diagonal Fractions lookup 4 subtable" five.frac
EndChar

StartChar: six
Encoding: 54 54 124
Width: 1055
GlyphClass: 2
Flags: W
LayerCount: 2
Fore
SplineSet
233 668 m 1,0,1
 294 779 294 779 391.5 837 c 128,-1,2
 489 895 489 895 604 895 c 0,3,4
 766 895 766 895 862 792.5 c 128,-1,5
 958 690 958 690 958 516 c 0,6,7
 958 362 958 362 897.5 238 c 128,-1,8
 837 114 837 114 730 44.5 c 128,-1,9
 623 -25 623 -25 498 -25 c 0,10,11
 321 -25 321 -25 224 107 c 128,-1,12
 127 239 127 239 127 477 c 0,13,14
 127 753 127 753 224.5 981.5 c 128,-1,15
 322 1210 322 1210 489 1334 c 128,-1,16
 656 1458 656 1458 856 1458 c 0,17,18
 969 1458 969 1458 1067 1419 c 1,19,-1
 1049 1329 l 1,20,21
 951 1374 951 1374 840 1374 c 0,22,23
 689 1374 689 1374 561 1285 c 128,-1,24
 433 1196 433 1196 345 1032 c 128,-1,25
 257 868 257 868 229 668 c 1,26,-1
 233 668 l 1,0,1
500 59 m 0,27,28
 655 59 655 59 758.5 187.5 c 128,-1,29
 862 316 862 316 862 508 c 0,30,31
 862 645 862 645 788 728 c 128,-1,32
 714 811 714 811 590 811 c 0,33,34
 488 811 488 811 403 759 c 128,-1,35
 318 707 318 707 271.5 619 c 128,-1,36
 225 531 225 531 225 426 c 0,37,38
 225 261 225 261 300.5 160 c 128,-1,39
 376 59 376 59 500 59 c 0,27,28
EndSplineSet
Substitution2: "SegoeUI-LightItalic-Single Substitution lookup 30 subtable" glyph2834
Substitution2: "SegoeUI-LightItalic-'ss20' Style Set 20 lookup 27 subtable" six.pnum
Substitution2: "SegoeUI-LightItalic-'sups' Superscript lookup 24 subtable" uni2076
Substitution2: "SegoeUI-LightItalic-'subs' Subscript lookup 23 subtable" uni2086
Substitution2: "SegoeUI-LightItalic-'pnum' Proportional Numbers lookup 7 subtable" six.pnum
Substitution2: "SegoeUI-LightItalic-'onum' Oldstyle Figures lookup 5 subtable" six.oldstyle
Substitution2: "SegoeUI-LightItalic-'frac' Diagonal Fractions lookup 4 subtable" six.frac
EndChar

StartChar: seven
Encoding: 55 55 125
Width: 944
GlyphClass: 2
Flags: W
LayerCount: 2
Fore
SplineSet
107 0 m 1,0,1
 192 223 192 223 287.5 403.5 c 128,-1,2
 383 584 383 584 520.5 789.5 c 128,-1,3
 658 995 658 995 923 1344 c 1,4,-1
 170 1344 l 1,5,-1
 188 1434 l 1,6,-1
 1070 1434 l 1,7,-1
 1062 1389 l 1,8,9
 724 941 724 941 588.5 739.5 c 128,-1,10
 453 538 453 538 371 376 c 128,-1,11
 289 214 289 214 210 0 c 1,12,-1
 107 0 l 1,0,1
EndSplineSet
Substitution2: "SegoeUI-LightItalic-Single Substitution lookup 30 subtable" glyph2835
Substitution2: "SegoeUI-LightItalic-'ss20' Style Set 20 lookup 27 subtable" seven.pnum
Substitution2: "SegoeUI-LightItalic-'sups' Superscript lookup 24 subtable" uni2077
Substitution2: "SegoeUI-LightItalic-'subs' Subscript lookup 23 subtable" uni2087
Substitution2: "SegoeUI-LightItalic-'pnum' Proportional Numbers lookup 7 subtable" seven.pnum
Substitution2: "SegoeUI-LightItalic-'onum' Oldstyle Figures lookup 5 subtable" seven.oldstyle
Substitution2: "SegoeUI-LightItalic-'frac' Diagonal Fractions lookup 4 subtable" seven.frac
EndChar

StartChar: eight
Encoding: 56 56 126
Width: 1026
GlyphClass: 2
Flags: W
LayerCount: 2
Fore
SplineSet
413 776 m 1,0,1
 338 815 338 815 293.5 885 c 128,-1,2
 249 955 249 955 249 1052 c 0,3,4
 249 1160 249 1160 305.5 1254 c 128,-1,5
 362 1348 362 1348 460.5 1403 c 128,-1,6
 559 1458 559 1458 670 1458 c 0,7,8
 822 1458 822 1458 918.5 1371 c 128,-1,9
 1015 1284 1015 1284 1015 1149 c 0,10,11
 1015 1010 1015 1010 936.5 908.5 c 128,-1,12
 858 807 858 807 710 761 c 1,13,14
 802 723 802 723 858 639.5 c 128,-1,15
 914 556 914 556 914 450 c 0,16,17
 914 321 914 321 848 210.5 c 128,-1,18
 782 100 782 100 669 38.5 c 128,-1,19
 556 -23 556 -23 429 -23 c 0,20,21
 259 -23 259 -23 154.5 73.5 c 128,-1,22
 50 170 50 170 50 334 c 0,23,24
 50 495 50 495 146 613.5 c 128,-1,25
 242 732 242 732 413 776 c 1,0,1
146 337 m 0,26,27
 146 209 146 209 226.5 134 c 128,-1,28
 307 59 307 59 436 59 c 0,29,30
 535 59 535 59 622.5 110.5 c 128,-1,31
 710 162 710 162 761.5 252 c 128,-1,32
 813 342 813 342 813 449 c 0,33,34
 813 572 813 572 737.5 646 c 128,-1,35
 662 720 662 720 539 720 c 0,36,37
 432 720 432 720 340.5 669 c 128,-1,38
 249 618 249 618 197.5 530 c 128,-1,39
 146 442 146 442 146 337 c 0,26,27
347 1049 m 0,40,41
 347 941 347 941 410 873.5 c 128,-1,42
 473 806 473 806 578 806 c 0,43,44
 664 806 664 806 743 852 c 128,-1,45
 822 898 822 898 868.5 976 c 128,-1,46
 915 1054 915 1054 915 1140 c 0,47,48
 915 1243 915 1243 844.5 1308.5 c 128,-1,49
 774 1374 774 1374 665 1374 c 0,50,51
 582 1374 582 1374 508.5 1330 c 128,-1,52
 435 1286 435 1286 391 1209.5 c 128,-1,53
 347 1133 347 1133 347 1049 c 0,40,41
EndSplineSet
Substitution2: "SegoeUI-LightItalic-Single Substitution lookup 30 subtable" glyph2836
Substitution2: "SegoeUI-LightItalic-'ss20' Style Set 20 lookup 27 subtable" eight.pnum
Substitution2: "SegoeUI-LightItalic-'sups' Superscript lookup 24 subtable" uni2078
Substitution2: "SegoeUI-LightItalic-'subs' Subscript lookup 23 subtable" uni2088
Substitution2: "SegoeUI-LightItalic-'pnum' Proportional Numbers lookup 7 subtable" eight.pnum
Substitution2: "SegoeUI-LightItalic-'onum' Oldstyle Figures lookup 5 subtable" eight.oldstyle
Substitution2: "SegoeUI-LightItalic-'frac' Diagonal Fractions lookup 4 subtable" eight.frac
EndChar

StartChar: nine
Encoding: 57 57 127
Width: 1055
GlyphClass: 2
Flags: W
LayerCount: 2
Fore
SplineSet
84 104 m 1,0,1
 187 59 187 59 289 59 c 0,2,3
 447 59 447 59 578 145 c 128,-1,4
 709 231 709 231 796.5 396.5 c 128,-1,5
 884 562 884 562 907 750 c 1,6,-1
 903 750 l 1,7,8
 850 646 850 646 752 585 c 128,-1,9
 654 524 654 524 537 524 c 0,10,11
 379 524 379 524 278.5 639 c 128,-1,12
 178 754 178 754 178 926 c 0,13,14
 178 1069 178 1069 240 1192 c 128,-1,15
 302 1315 302 1315 409.5 1386.5 c 128,-1,16
 517 1458 517 1458 637 1458 c 0,17,18
 815 1458 815 1458 912.5 1326.5 c 128,-1,19
 1010 1195 1010 1195 1010 954 c 0,20,21
 1010 682 1010 682 920 459.5 c 128,-1,22
 830 237 830 237 662.5 106 c 128,-1,23
 495 -25 495 -25 279 -25 c 0,24,25
 169 -25 169 -25 66 14 c 1,26,-1
 84 104 l 1,0,1
547 608 m 0,27,28
 702 608 702 608 807.5 721 c 128,-1,29
 913 834 913 834 913 997 c 0,30,31
 913 1178 913 1178 840.5 1276 c 128,-1,32
 768 1374 768 1374 637 1374 c 0,33,34
 488 1374 488 1374 381 1244.5 c 128,-1,35
 274 1115 274 1115 274 934 c 0,36,37
 274 790 274 790 351 699 c 128,-1,38
 428 608 428 608 547 608 c 0,27,28
EndSplineSet
Substitution2: "SegoeUI-LightItalic-Single Substitution lookup 30 subtable" glyph2837
Substitution2: "SegoeUI-LightItalic-'ss20' Style Set 20 lookup 27 subtable" nine.pnum
Substitution2: "SegoeUI-LightItalic-'sups' Superscript lookup 24 subtable" uni2079
Substitution2: "SegoeUI-LightItalic-'subs' Subscript lookup 23 subtable" uni2089
Substitution2: "SegoeUI-LightItalic-'pnum' Proportional Numbers lookup 7 subtable" nine.pnum
Substitution2: "SegoeUI-LightItalic-'onum' Oldstyle Figures lookup 5 subtable" nine.oldstyle
Substitution2: "SegoeUI-LightItalic-'frac' Diagonal Fractions lookup 4 subtable" nine.frac
EndChar

StartChar: colon
Encoding: 58 58 128
Width: 455
GlyphClass: 2
Flags: W
LayerCount: 2
Fore
SplineSet
332 881 m 256,0,1
 298 881 298 881 275 905 c 128,-1,2
 252 929 252 929 252 963 c 256,3,4
 252 997 252 997 275 1019.5 c 128,-1,5
 298 1042 298 1042 332 1042 c 256,6,7
 366 1042 366 1042 390 1019.5 c 128,-1,8
 414 997 414 997 414 963 c 256,9,10
 414 929 414 929 390 905 c 128,-1,11
 366 881 366 881 332 881 c 256,0,1
143 -18 m 256,12,13
 109 -18 109 -18 86 5.5 c 128,-1,14
 63 29 63 29 63 63 c 0,15,16
 63 98 63 98 86 120.5 c 128,-1,17
 109 143 109 143 143 143 c 256,18,19
 177 143 177 143 201 120.5 c 128,-1,20
 225 98 225 98 225 63 c 0,21,22
 225 29 225 29 201 5.5 c 128,-1,23
 177 -18 177 -18 143 -18 c 256,12,13
EndSplineSet
EndChar

StartChar: semicolon
Encoding: 59 59 129
Width: 455
GlyphClass: 2
Flags: W
LayerCount: 2
Fore
SplineSet
332 881 m 256,0,1
 298 881 298 881 275 905 c 128,-1,2
 252 929 252 929 252 963 c 256,3,4
 252 997 252 997 275 1019.5 c 128,-1,5
 298 1042 298 1042 332 1042 c 256,6,7
 366 1042 366 1042 390 1019.5 c 128,-1,8
 414 997 414 997 414 963 c 256,9,10
 414 929 414 929 390 905 c 128,-1,11
 366 881 366 881 332 881 c 256,0,1
141 227 m 1,12,-1
 248 227 l 1,13,-1
 43 -248 l 1,14,-1
 -43 -248 l 1,15,-1
 141 227 l 1,12,-1
EndSplineSet
Substitution2: "SegoeUI-LightItalic-'ss19' Style Set 19 lookup 28 subtable" semicolon.ss19
EndChar

StartChar: less
Encoding: 60 60 130
Width: 1331
GlyphClass: 2
Flags: W
LayerCount: 2
Fore
SplineSet
217 598 m 1,0,-1
 1051 1065 l 1,1,-1
 1051 971 l 1,2,-1
 373 592 l 1,3,-1
 373 588 l 1,4,-1
 1051 254 l 1,5,-1
 1051 158 l 1,6,-1
 217 580 l 1,7,-1
 217 598 l 1,0,-1
EndSplineSet
EndChar

StartChar: equal
Encoding: 61 61 131
Width: 1331
GlyphClass: 2
Flags: W
LayerCount: 2
Fore
SplineSet
233 834 m 1,0,-1
 1141 834 l 1,1,-1
 1141 750 l 1,2,-1
 233 750 l 1,3,-1
 233 834 l 1,0,-1
233 446 m 1,4,-1
 1141 446 l 1,5,-1
 1141 362 l 1,6,-1
 233 362 l 1,7,-1
 233 446 l 1,4,-1
EndSplineSet
EndChar

StartChar: greater
Encoding: 62 62 132
Width: 1331
GlyphClass: 2
Flags: W
LayerCount: 2
Fore
SplineSet
289 254 m 1,0,-1
 967 588 l 1,1,-1
 967 592 l 1,2,-1
 289 971 l 1,3,-1
 289 1065 l 1,4,-1
 1122 598 l 1,5,-1
 1122 580 l 1,6,-1
 289 158 l 1,7,-1
 289 254 l 1,0,-1
EndSplineSet
EndChar

StartChar: question
Encoding: 63 63 133
Width: 756
GlyphClass: 2
Flags: W
LayerCount: 2
Fore
SplineSet
274 403 m 1,0,1
 300 552 300 552 347 629 c 128,-1,2
 394 706 394 706 516 793 c 0,3,4
 640 878 640 878 691.5 958 c 128,-1,5
 743 1038 743 1038 743 1145 c 0,6,7
 743 1251 743 1251 683 1312.5 c 128,-1,8
 623 1374 623 1374 518 1374 c 0,9,10
 399 1374 399 1374 248 1296 c 1,11,-1
 266 1397 l 1,12,13
 409 1458 409 1458 530 1458 c 0,14,15
 672 1458 672 1458 756 1373.5 c 128,-1,16
 840 1289 840 1289 840 1155 c 0,17,18
 840 1027 840 1027 775 924.5 c 128,-1,19
 710 822 710 822 569 725 c 0,20,21
 461 651 461 651 423 587 c 128,-1,22
 385 523 385 523 365 403 c 1,23,-1
 274 403 l 1,0,1
182 63 m 0,24,25
 182 98 182 98 205 120.5 c 128,-1,26
 228 143 228 143 262 143 c 256,27,28
 296 143 296 143 320 120.5 c 128,-1,29
 344 98 344 98 344 63 c 0,30,31
 344 29 344 29 320 5.5 c 128,-1,32
 296 -18 296 -18 262 -18 c 256,33,34
 228 -18 228 -18 205 5.5 c 128,-1,35
 182 29 182 29 182 63 c 0,24,25
EndSplineSet
Substitution2: "SegoeUI-LightItalic-'ss19' Style Set 19 lookup 28 subtable" question.ss19
EndChar

StartChar: at
Encoding: 64 64 134
Width: 1966
GlyphClass: 2
Flags: W
LayerCount: 2
Fore
SplineSet
1010 -188 m 0,0,1
 639 -188 639 -188 433 15 c 128,-1,2
 227 218 227 218 227 575 c 0,3,4
 227 817 227 817 344 1020 c 128,-1,5
 461 1223 461 1223 665 1340.5 c 128,-1,6
 869 1458 869 1458 1110 1458 c 0,7,8
 1438 1458 1438 1458 1632.5 1274.5 c 128,-1,9
 1827 1091 1827 1091 1827 780 c 0,10,11
 1827 627 1827 627 1768.5 488.5 c 128,-1,12
 1710 350 1710 350 1610.5 269 c 128,-1,13
 1511 188 1511 188 1399 188 c 0,14,15
 1300 188 1300 188 1245 238.5 c 128,-1,16
 1190 289 1190 289 1190 389 c 2,17,-1
 1190 401 l 1,18,-1
 1192 428 l 1,19,-1
 1188 428 l 1,20,21
 1118 308 1118 308 1038.5 248 c 128,-1,22
 959 188 959 188 854 188 c 0,23,24
 743 188 743 188 677.5 264.5 c 128,-1,25
 612 341 612 341 612 475 c 0,26,27
 612 641 612 641 675.5 785 c 128,-1,28
 739 929 739 929 843.5 1008 c 128,-1,29
 948 1087 948 1087 1069 1087 c 0,30,31
 1229 1087 1229 1087 1282 932 c 1,32,-1
 1286 932 l 1,33,-1
 1323 1073 l 1,34,-1
 1411 1073 l 1,35,-1
 1292 550 l 2,36,37
 1272 468 1272 468 1272 422 c 0,38,39
 1272 347 1272 347 1300.5 309.5 c 128,-1,40
 1329 272 1329 272 1405 272 c 0,41,42
 1492 272 1492 272 1567 338 c 128,-1,43
 1642 404 1642 404 1686.5 520.5 c 128,-1,44
 1731 637 1731 637 1731 770 c 0,45,46
 1731 1060 1731 1060 1568.5 1217 c 128,-1,47
 1406 1374 1406 1374 1100 1374 c 0,48,49
 882 1374 882 1374 705 1271 c 128,-1,50
 528 1168 528 1168 426 985.5 c 128,-1,51
 324 803 324 803 324 575 c 0,52,53
 324 247 324 247 506 71.5 c 128,-1,54
 688 -104 688 -104 1020 -104 c 0,55,56
 1130 -104 1130 -104 1256 -75.5 c 128,-1,57
 1382 -47 1382 -47 1479 -2 c 1,58,-1
 1458 -100 l 1,59,60
 1245 -188 1245 -188 1010 -188 c 0,0,1
1237 807 m 0,61,62
 1237 1004 1237 1004 1061 1004 c 0,63,64
 968 1004 968 1004 885.5 933.5 c 128,-1,65
 803 863 803 863 756 742 c 128,-1,66
 709 621 709 621 709 481 c 0,67,68
 709 385 709 385 752.5 328.5 c 128,-1,69
 796 272 796 272 866 272 c 0,70,71
 969 272 969 272 1049 343.5 c 128,-1,72
 1129 415 1129 415 1183 556.5 c 128,-1,73
 1237 698 1237 698 1237 807 c 0,61,62
EndSplineSet
EndChar

StartChar: A
Encoding: 65 65 135
Width: 1206
GlyphClass: 2
Flags: W
AnchorPoint: "Anchor-16" 180 2100 basechar 0
AnchorPoint: "Anchor-15" 1474 2100 basechar 0
AnchorPoint: "Anchor-12" 975 0 basechar 0
AnchorPoint: "Anchor-11" 830 1434 basechar 0
AnchorPoint: "Anchor-10" 510 -50 basechar 0
AnchorPoint: "Anchor-9" 1026 -420 basechar 0
AnchorPoint: "Anchor-8" 1356 1900 basechar 0
AnchorPoint: "Anchor-7" 660 717 basechar 0
AnchorPoint: "Anchor-6" 960 1434 basechar 0
AnchorPoint: "Anchor-3" 480 -15 basechar 0
AnchorPoint: "Anchor-2" 1095 1500 basechar 0
AnchorPoint: "Anchor-1" 830 1600 basechar 0
LayerCount: 2
Fore
SplineSet
748 1434 m 1,0,-1
 840 1434 l 1,1,-1
 1073 0 l 1,2,-1
 973 0 l 1,3,-1
 901 446 l 1,4,-1
 285 446 l 1,5,-1
 20 0 l 1,6,-1
 -84 0 l 1,7,-1
 748 1434 l 1,0,-1
889 537 m 1,8,-1
 786 1200 l 2,9,10
 778 1252 778 1252 776 1309 c 1,11,-1
 772 1309 l 1,12,-1
 739 1243 l 1,13,-1
 334 537 l 1,14,-1
 889 537 l 1,8,-1
EndSplineSet
Substitution2: "SegoeUI-LightItalic-'c2sc' Capitals to Small Capitals lookup 17 subtable" A.c2sc
Position2: "SegoeUI-LightItalic-'cpsp' Capital Spacing lookup 0 subtable" dx=36 dy=0 dh=72 dv=0
EndChar

StartChar: B
Encoding: 66 66 136
Width: 1106
GlyphClass: 2
Flags: W
AnchorPoint: "Anchor-16" 180 2100 basechar 0
AnchorPoint: "Anchor-15" 1354 2100 basechar 0
AnchorPoint: "Anchor-12" 450 0 basechar 0
AnchorPoint: "Anchor-11" 1060 1274 basechar 0
AnchorPoint: "Anchor-9" 976 -420 basechar 0
AnchorPoint: "Anchor-8" 1306 1900 basechar 0
AnchorPoint: "Anchor-7" 587 717 basechar 0
AnchorPoint: "Anchor-6" 1110 1314 basechar 0
AnchorPoint: "Anchor-3" 380 -15 basechar 0
AnchorPoint: "Anchor-2" 1180 1500 basechar 0
AnchorPoint: "Anchor-1" 700 1600 basechar 0
LayerCount: 2
Fore
SplineSet
379 1434 m 1,0,-1
 727 1434 l 2,1,2
 879 1434 879 1434 969 1351.5 c 128,-1,3
 1059 1269 1059 1269 1059 1128 c 0,4,5
 1059 972 1059 972 973.5 869.5 c 128,-1,6
 888 767 888 767 741 739 c 1,7,-1
 741 735 l 1,8,9
 852 710 852 710 912.5 630.5 c 128,-1,10
 973 551 973 551 973 436 c 0,11,12
 973 227 973 227 845.5 113.5 c 128,-1,13
 718 0 718 0 481 0 c 2,14,-1
 76 0 l 1,15,-1
 379 1434 l 1,0,-1
569 788 m 2,16,17
 754 788 754 788 855 876.5 c 128,-1,18
 956 965 956 965 956 1118 c 0,19,20
 956 1227 956 1227 889.5 1285 c 128,-1,21
 823 1343 823 1343 705 1343 c 2,22,-1
 461 1343 l 1,23,-1
 340 788 l 1,24,-1
 569 788 l 2,16,17
471 90 m 2,25,26
 870 90 870 90 870 428 c 0,27,28
 870 558 870 558 782.5 628 c 128,-1,29
 695 698 695 698 532 698 c 2,30,-1
 322 698 l 1,31,-1
 195 90 l 1,32,-1
 471 90 l 2,25,26
EndSplineSet
Substitution2: "SegoeUI-LightItalic-'c2sc' Capitals to Small Capitals lookup 17 subtable" B.c2sc
Position2: "SegoeUI-LightItalic-'cpsp' Capital Spacing lookup 0 subtable" dx=36 dy=0 dh=72 dv=0
EndChar

StartChar: C
Encoding: 67 67 137
Width: 1294
GlyphClass: 2
Flags: W
AnchorPoint: "Anchor-16" 180 2100 basechar 0
AnchorPoint: "Anchor-15" 1489 2100 basechar 0
AnchorPoint: "Anchor-12" 710 -15 basechar 0
AnchorPoint: "Anchor-11" 1333 1401 basechar 0
AnchorPoint: "Anchor-10" 584 -15 basechar 0
AnchorPoint: "Anchor-9" 1212 -420 basechar 0
AnchorPoint: "Anchor-8" 1542 1900 basechar 0
AnchorPoint: "Anchor-7" 800 741 basechar 0
AnchorPoint: "Anchor-6" 1420 1410 basechar 0
AnchorPoint: "Anchor-3" 630 -25 basechar 0
AnchorPoint: "Anchor-2" 1400 1500 basechar 0
AnchorPoint: "Anchor-1" 900 1600 basechar 0
LayerCount: 2
Fore
SplineSet
713 -25 m 2,0,1
 449 -25 449 -25 300.5 139 c 128,-1,2
 152 303 152 303 152 587 c 0,3,4
 152 837 152 837 251 1033 c 128,-1,5
 350 1229 350 1229 534 1343.5 c 128,-1,6
 718 1458 718 1458 944 1458 c 0,7,8
 1150 1458 1150 1458 1327 1362 c 1,9,-1
 1307 1253 l 1,10,11
 1156 1368 1156 1368 930 1368 c 0,12,13
 737 1368 737 1368 581.5 1269 c 128,-1,14
 426 1170 426 1170 340 993 c 128,-1,15
 254 816 254 816 254 602 c 0,16,17
 254 346 254 346 379.5 206 c 128,-1,18
 505 66 505 66 727 66 c 0,19,20
 930 66 930 66 1110 168 c 1,21,-1
 1087 57 l 1,22,23
 985 12 985 12 908 -6.5 c 128,-1,24
 831 -25 831 -25 719 -25 c 2,25,-1
 713 -25 l 2,0,1
EndSplineSet
Substitution2: "SegoeUI-LightItalic-'c2sc' Capitals to Small Capitals lookup 17 subtable" C.c2sc
Position2: "SegoeUI-LightItalic-'cpsp' Capital Spacing lookup 0 subtable" dx=36 dy=0 dh=72 dv=0
EndChar

StartChar: D
Encoding: 68 68 138
Width: 1386
GlyphClass: 2
Flags: W
AnchorPoint: "Anchor-16" 180 2100 basechar 0
AnchorPoint: "Anchor-15" 1638 2100 basechar 0
AnchorPoint: "Anchor-12" 450 0 basechar 0
AnchorPoint: "Anchor-11" 1220 1274 basechar 0
AnchorPoint: "Anchor-9" 1251 -420 basechar 0
AnchorPoint: "Anchor-8" 1581 1900 basechar 0
AnchorPoint: "Anchor-7" 780 717 basechar 0
AnchorPoint: "Anchor-6" 1290 1287 basechar 0
AnchorPoint: "Anchor-3" 530 -15 basechar 0
AnchorPoint: "Anchor-2" 1410 1500 basechar 0
AnchorPoint: "Anchor-1" 880 1600 basechar 0
LayerCount: 2
Fore
SplineSet
383 1434 m 1,0,-1
 715 1434 l 2,1,2
 1016 1434 1016 1434 1176.5 1285 c 128,-1,3
 1337 1136 1337 1136 1337 850 c 0,4,5
 1337 590 1337 590 1232.5 397 c 128,-1,6
 1128 204 1128 204 933.5 102 c 128,-1,7
 739 0 739 0 483 0 c 2,8,-1
 76 0 l 1,9,-1
 383 1434 l 1,0,-1
483 90 m 2,10,11
 837 90 837 90 1036 287 c 128,-1,12
 1235 484 1235 484 1235 842 c 0,13,14
 1235 1343 1235 1343 696 1343 c 2,15,-1
 461 1343 l 1,16,-1
 195 90 l 1,17,-1
 483 90 l 2,10,11
EndSplineSet
Substitution2: "SegoeUI-LightItalic-'c2sc' Capitals to Small Capitals lookup 17 subtable" D.c2sc
Position2: "SegoeUI-LightItalic-'cpsp' Capital Spacing lookup 0 subtable" dx=36 dy=0 dh=72 dv=0
EndChar

StartChar: E
Encoding: 69 69 139
Width: 989
GlyphClass: 2
Flags: W
AnchorPoint: "Anchor-16" 180 2100 basechar 0
AnchorPoint: "Anchor-15" 1202 2100 basechar 0
AnchorPoint: "Anchor-12" 610 0 basechar 0
AnchorPoint: "Anchor-11" 1060 1434 basechar 0
AnchorPoint: "Anchor-10" 410 0 basechar 0
AnchorPoint: "Anchor-9" 954 -420 basechar 0
AnchorPoint: "Anchor-8" 1284 1900 basechar 0
AnchorPoint: "Anchor-7" 550 717 basechar 0
AnchorPoint: "Anchor-6" 1190 1434 basechar 0
AnchorPoint: "Anchor-3" 430 -15 basechar 0
AnchorPoint: "Anchor-2" 1160 1500 basechar 0
AnchorPoint: "Anchor-1" 780 1600 basechar 0
LayerCount: 2
Fore
SplineSet
379 1434 m 1,0,-1
 1049 1434 l 1,1,-1
 1030 1343 l 1,2,-1
 459 1343 l 1,3,-1
 336 768 l 1,4,-1
 866 768 l 1,5,-1
 848 678 l 1,6,-1
 317 678 l 1,7,-1
 193 90 l 1,8,-1
 797 90 l 1,9,-1
 778 0 l 1,10,-1
 76 0 l 1,11,-1
 379 1434 l 1,0,-1
EndSplineSet
Substitution2: "SegoeUI-LightItalic-'c2sc' Capitals to Small Capitals lookup 17 subtable" E.c2sc
Position2: "SegoeUI-LightItalic-'cpsp' Capital Spacing lookup 0 subtable" dx=36 dy=0 dh=72 dv=0
EndChar

StartChar: F
Encoding: 70 70 140
Width: 952
GlyphClass: 2
Flags: W
AnchorPoint: "Anchor-16" 180 2100 basechar 0
AnchorPoint: "Anchor-15" 1181 2100 basechar 0
AnchorPoint: "Anchor-12" 50 0 basechar 0
AnchorPoint: "Anchor-11" 1060 1434 basechar 0
AnchorPoint: "Anchor-9" 954 -420 basechar 0
AnchorPoint: "Anchor-8" 1284 1900 basechar 0
AnchorPoint: "Anchor-7" 540 717 basechar 0
AnchorPoint: "Anchor-6" 1180 1434 basechar 0
AnchorPoint: "Anchor-3" 430 -15 basechar 0
AnchorPoint: "Anchor-2" 1160 1500 basechar 0
AnchorPoint: "Anchor-1" 780 1600 basechar 0
LayerCount: 2
Fore
SplineSet
379 1434 m 1,0,-1
 1049 1434 l 1,1,-1
 1030 1343 l 1,2,-1
 459 1343 l 1,3,-1
 334 758 l 1,4,-1
 864 758 l 1,5,-1
 846 668 l 1,6,-1
 315 668 l 1,7,-1
 174 0 l 1,8,-1
 76 0 l 1,9,-1
 379 1434 l 1,0,-1
EndSplineSet
Substitution2: "SegoeUI-LightItalic-'c2sc' Capitals to Small Capitals lookup 17 subtable" F.c2sc
Position2: "SegoeUI-LightItalic-'cpsp' Capital Spacing lookup 0 subtable" dx=36 dy=0 dh=72 dv=0
EndChar

StartChar: G
Encoding: 71 71 141
Width: 1421
GlyphClass: 2
Flags: W
AnchorPoint: "Anchor-16" 180 2100 basechar 0
AnchorPoint: "Anchor-15" 1589 2100 basechar 0
AnchorPoint: "Anchor-12" 785 0 basechar 0
AnchorPoint: "Anchor-11" 1416 1385 basechar 0
AnchorPoint: "Anchor-10" 630 -15 basechar 0
AnchorPoint: "Anchor-9" 1232 -420 basechar 0
AnchorPoint: "Anchor-8" 1562 1900 basechar 0
AnchorPoint: "Anchor-7" 702 741 basechar 0
AnchorPoint: "Anchor-6" 1490 1344 basechar 0
AnchorPoint: "Anchor-3" 630 -25 basechar 0
AnchorPoint: "Anchor-2" 1430 1500 basechar 0
AnchorPoint: "Anchor-1" 950 1600 basechar 0
LayerCount: 2
Fore
SplineSet
1176 623 m 1,0,-1
 813 623 l 1,1,-1
 834 713 l 1,2,-1
 1296 713 l 1,3,-1
 1161 76 l 1,4,5
 976 -25 976 -25 754 -25 c 0,6,7
 474 -25 474 -25 313 144.5 c 128,-1,8
 152 314 152 314 152 608 c 0,9,10
 152 861 152 861 253.5 1054.5 c 128,-1,11
 355 1248 355 1248 540.5 1353 c 128,-1,12
 726 1458 726 1458 963 1458 c 0,13,14
 1172 1458 1172 1458 1376 1364 c 1,15,-1
 1352 1264 l 1,16,17
 1240 1323 1240 1323 1146 1345.5 c 128,-1,18
 1052 1368 1052 1368 942 1368 c 0,19,20
 738 1368 738 1368 580.5 1276 c 128,-1,21
 423 1184 423 1184 338.5 1012.5 c 128,-1,22
 254 841 254 841 254 614 c 0,23,24
 254 356 254 356 386.5 211 c 128,-1,25
 519 66 519 66 762 66 c 0,26,27
 925 66 925 66 1069 127 c 1,28,-1
 1176 623 l 1,0,-1
EndSplineSet
Substitution2: "SegoeUI-LightItalic-'c2sc' Capitals to Small Capitals lookup 17 subtable" G.c2sc
Position2: "SegoeUI-LightItalic-'cpsp' Capital Spacing lookup 0 subtable" dx=36 dy=0 dh=72 dv=0
EndChar

StartChar: H
Encoding: 72 72 142
Width: 1386
GlyphClass: 2
Flags: W
AnchorPoint: "Anchor-16" 180 2100 basechar 0
AnchorPoint: "Anchor-15" 1630 2100 basechar 0
AnchorPoint: "Anchor-12" 950 0 basechar 0
AnchorPoint: "Anchor-11" 1434 1434 basechar 0
AnchorPoint: "Anchor-9" 1306 -420 basechar 0
AnchorPoint: "Anchor-8" 1636 1900 basechar 0
AnchorPoint: "Anchor-7" 727 717 basechar 0
AnchorPoint: "Anchor-6" 1540 1434 basechar 0
AnchorPoint: "Anchor-3" 550 -15 basechar 0
AnchorPoint: "Anchor-2" 1500 1500 basechar 0
AnchorPoint: "Anchor-1" 900 1600 basechar 0
LayerCount: 2
Fore
SplineSet
379 1434 m 1,0,-1
 477 1434 l 1,1,-1
 338 778 l 1,2,-1
 1159 778 l 1,3,-1
 1298 1434 l 1,4,-1
 1397 1434 l 1,5,-1
 1094 0 l 1,6,-1
 995 0 l 1,7,-1
 1141 688 l 1,8,-1
 319 688 l 1,9,-1
 174 0 l 1,10,-1
 76 0 l 1,11,-1
 379 1434 l 1,0,-1
EndSplineSet
Substitution2: "SegoeUI-LightItalic-'c2sc' Capitals to Small Capitals lookup 17 subtable" H.c2sc
Position2: "SegoeUI-LightItalic-'cpsp' Capital Spacing lookup 0 subtable" dx=36 dy=0 dh=72 dv=0
EndChar

StartChar: I
Encoding: 73 73 143
Width: 467
GlyphClass: 2
Flags: W
AnchorPoint: "Anchor-16" 180 2100 basechar 0
AnchorPoint: "Anchor-15" 725 2100 basechar 0
AnchorPoint: "Anchor-12" 50 0 basechar 0
AnchorPoint: "Anchor-11" 535 1434 basechar 0
AnchorPoint: "Anchor-10" 135 0 basechar 0
AnchorPoint: "Anchor-9" 401 -420 basechar 0
AnchorPoint: "Anchor-8" 731 1900 basechar 0
AnchorPoint: "Anchor-7" 310 717 basechar 0
AnchorPoint: "Anchor-6" 633 1434 basechar 0
AnchorPoint: "Anchor-3" 95 -15 basechar 0
AnchorPoint: "Anchor-2" 580 1500 basechar 0
AnchorPoint: "Anchor-1" 490 1600 basechar 0
LayerCount: 2
Fore
SplineSet
379 1434 m 1,0,-1
 477 1434 l 1,1,-1
 174 0 l 1,2,-1
 76 0 l 1,3,-1
 379 1434 l 1,0,-1
EndSplineSet
Substitution2: "SegoeUI-LightItalic-'c2sc' Capitals to Small Capitals lookup 17 subtable" I.c2sc
Position2: "SegoeUI-LightItalic-'cpsp' Capital Spacing lookup 0 subtable" dx=36 dy=0 dh=72 dv=0
EndChar

StartChar: J
Encoding: 74 74 144
Width: 655
GlyphClass: 2
Flags: W
AnchorPoint: "Anchor-16" 180 2100 basechar 0
AnchorPoint: "Anchor-15" 889 2100 basechar 0
AnchorPoint: "Anchor-12" 50 0 basechar 0
AnchorPoint: "Anchor-11" 751 1434 basechar 0
AnchorPoint: "Anchor-9" 581 -420 basechar 0
AnchorPoint: "Anchor-8" 911 1900 basechar 0
AnchorPoint: "Anchor-7" 500 729 basechar 0
AnchorPoint: "Anchor-6" 830 1440 basechar 0
AnchorPoint: "Anchor-3" 210 -15 basechar 0
AnchorPoint: "Anchor-2" 780 1500 basechar 0
AnchorPoint: "Anchor-1" 680 1600 basechar 0
LayerCount: 2
Fore
SplineSet
-78 100 m 1,0,1
 -59 89 -59 89 -17.5 77.5 c 128,-1,2
 24 66 24 66 47 66 c 0,3,4
 186 66 186 66 259 151.5 c 128,-1,5
 332 237 332 237 379 455 c 2,6,-1
 588 1434 l 1,7,-1
 686 1434 l 1,8,-1
 477 459 l 2,9,10
 418 187 418 187 319.5 81 c 128,-1,11
 221 -25 221 -25 35 -25 c 0,12,13
 8 -25 8 -25 -36.5 -16 c 128,-1,14
 -81 -7 -81 -7 -98 2 c 1,15,-1
 -78 100 l 1,0,1
EndSplineSet
Substitution2: "SegoeUI-LightItalic-'c2sc' Capitals to Small Capitals lookup 17 subtable" J.c2sc
Position2: "SegoeUI-LightItalic-'cpsp' Capital Spacing lookup 0 subtable" dx=36 dy=0 dh=72 dv=0
EndChar

StartChar: K
Encoding: 75 75 145
Width: 1079
GlyphClass: 2
Flags: W
AnchorPoint: "Anchor-16" 180 2100 basechar 0
AnchorPoint: "Anchor-15" 1408 2100 basechar 0
AnchorPoint: "Anchor-12" 820 0 basechar 0
AnchorPoint: "Anchor-11" 1220 1434 basechar 0
AnchorPoint: "Anchor-10" 444 -50 basechar 0
AnchorPoint: "Anchor-9" 1196 -420 basechar 0
AnchorPoint: "Anchor-8" 1526 1900 basechar 0
AnchorPoint: "Anchor-7" 350 1003 basechar 0
AnchorPoint: "Anchor-6" 1308 1434 basechar 0
AnchorPoint: "Anchor-3" 480 -15 basechar 0
AnchorPoint: "Anchor-2" 1380 1500 basechar 0
AnchorPoint: "Anchor-1" 830 1600 basechar 0
LayerCount: 2
Fore
SplineSet
379 1434 m 1,0,-1
 477 1434 l 1,1,-1
 334 758 l 1,2,-1
 338 758 l 1,3,-1
 357 778 l 1,4,-1
 1098 1434 l 1,5,-1
 1231 1434 l 1,6,-1
 430 733 l 1,7,-1
 946 0 l 1,8,-1
 823 0 l 1,9,-1
 356 678 l 1,10,-1
 330 723 l 1,11,-1
 326 723 l 1,12,-1
 174 0 l 1,13,-1
 76 0 l 1,14,-1
 379 1434 l 1,0,-1
EndSplineSet
Substitution2: "SegoeUI-LightItalic-'c2sc' Capitals to Small Capitals lookup 17 subtable" K.c2sc
Position2: "SegoeUI-LightItalic-'cpsp' Capital Spacing lookup 0 subtable" dx=36 dy=0 dh=72 dv=0
EndChar

StartChar: L
Encoding: 76 76 146
Width: 868
GlyphClass: 2
Flags: W
AnchorPoint: "Anchor-16" 180 2100 basechar 0
AnchorPoint: "Anchor-15" 1128 2100 basechar 0
AnchorPoint: "Anchor-12" 580 0 basechar 0
AnchorPoint: "Anchor-11" 502 1434 basechar 0
AnchorPoint: "Anchor-10" 412 0 basechar 0
AnchorPoint: "Anchor-9" 700 -420 basechar 0
AnchorPoint: "Anchor-8" 1030 1900 basechar 0
AnchorPoint: "Anchor-7" 310 717 basechar 0
AnchorPoint: "Anchor-6" 610 1434 basechar 0
AnchorPoint: "Anchor-3" 420 -15 basechar 0
AnchorPoint: "Anchor-2" 1080 1500 basechar 0
AnchorPoint: "Anchor-1" 770 1600 basechar 0
LayerCount: 2
Fore
SplineSet
379 1434 m 1,0,-1
 477 1434 l 1,1,-1
 193 90 l 1,2,-1
 768 90 l 1,3,-1
 750 0 l 1,4,-1
 76 0 l 1,5,-1
 379 1434 l 1,0,-1
EndSplineSet
Substitution2: "SegoeUI-LightItalic-'c2sc' Capitals to Small Capitals lookup 17 subtable" L.c2sc
Position2: "SegoeUI-LightItalic-'cpsp' Capital Spacing lookup 0 subtable" dx=36 dy=0 dh=72 dv=0
EndChar

StartChar: M
Encoding: 77 77 147
Width: 1706
GlyphClass: 2
Flags: W
AnchorPoint: "Anchor-16" 180 2100 basechar 0
AnchorPoint: "Anchor-15" 1855 2100 basechar 0
AnchorPoint: "Anchor-12" 1280 0 basechar 0
AnchorPoint: "Anchor-11" 1698 1434 basechar 0
AnchorPoint: "Anchor-9" 1530 -420 basechar 0
AnchorPoint: "Anchor-8" 1860 1900 basechar 0
AnchorPoint: "Anchor-7" 880 834 basechar 0
AnchorPoint: "Anchor-6" 1835 1434 basechar 0
AnchorPoint: "Anchor-3" 670 -15 basechar 0
AnchorPoint: "Anchor-2" 1730 1500 basechar 0
AnchorPoint: "Anchor-1" 1020 1600 basechar 0
LayerCount: 2
Fore
SplineSet
379 1434 m 1,0,-1
 463 1434 l 1,1,-1
 782 641 l 2,2,3
 810 572 810 572 823 513 c 1,4,-1
 829 513 l 1,5,-1
 913 619 l 1,6,-1
 1620 1434 l 1,7,-1
 1716 1434 l 1,8,-1
 1409 0 l 1,9,-1
 1317 0 l 1,10,-1
 1550 1095 l 1,11,-1
 1590 1268 l 1,12,-1
 1586 1268 l 1,13,14
 1551 1210 1551 1210 1521 1176 c 2,15,-1
 820 374 l 1,16,-1
 787 374 l 1,17,-1
 465 1170 l 2,18,19
 445 1217 445 1217 437 1267 c 1,20,-1
 433 1267 l 1,21,22
 429 1232 429 1232 418.5 1171.5 c 128,-1,23
 408 1111 408 1111 172 0 c 1,24,-1
 76 0 l 1,25,-1
 379 1434 l 1,0,-1
EndSplineSet
Substitution2: "SegoeUI-LightItalic-'c2sc' Capitals to Small Capitals lookup 17 subtable" M.c2sc
Position2: "SegoeUI-LightItalic-'cpsp' Capital Spacing lookup 0 subtable" dx=36 dy=0 dh=72 dv=0
EndChar

StartChar: N
Encoding: 78 78 148
Width: 1452
GlyphClass: 2
Flags: W
AnchorPoint: "Anchor-16" 180 2100 basechar 0
AnchorPoint: "Anchor-15" 1718 2100 basechar 0
AnchorPoint: "Anchor-12" 1050 0 basechar 0
AnchorPoint: "Anchor-11" 1532 1434 basechar 0
AnchorPoint: "Anchor-10" 616 -50 basechar 0
AnchorPoint: "Anchor-9" 1396 -420 basechar 0
AnchorPoint: "Anchor-8" 1726 1900 basechar 0
AnchorPoint: "Anchor-7" 800 717 basechar 0
AnchorPoint: "Anchor-6" 1609 1434 basechar 0
AnchorPoint: "Anchor-3" 630 -15 basechar 0
AnchorPoint: "Anchor-2" 1580 1500 basechar 0
AnchorPoint: "Anchor-1" 980 1600 basechar 0
LayerCount: 2
Fore
SplineSet
379 1434 m 1,0,-1
 446 1434 l 1,1,-1
 1059 285 l 2,2,3
 1092 221 1092 221 1102 193 c 1,4,-1
 1106 193 l 1,5,-1
 1121 285 l 1,6,-1
 1364 1434 l 1,7,-1
 1462 1434 l 1,8,-1
 1157 0 l 1,9,-1
 1102 0 l 1,10,-1
 481 1159 l 1,11,-1
 440 1249 l 1,12,-1
 436 1249 l 1,13,-1
 431 1218 l 1,14,-1
 172 0 l 1,15,-1
 76 0 l 1,16,-1
 379 1434 l 1,0,-1
EndSplineSet
Substitution2: "SegoeUI-LightItalic-'c2sc' Capitals to Small Capitals lookup 17 subtable" N.c2sc
Position2: "SegoeUI-LightItalic-'cpsp' Capital Spacing lookup 0 subtable" dx=36 dy=0 dh=72 dv=0
EndChar

StartChar: O
Encoding: 79 79 149
Width: 1544
GlyphClass: 2
Flags: W
AnchorPoint: "Anchor-16" 180 2100 basechar 0
AnchorPoint: "Anchor-15" 1724 2100 basechar 0
AnchorPoint: "Anchor-12" 680 -15 basechar 0
AnchorPoint: "Anchor-11" 1360 1320 basechar 0
AnchorPoint: "Anchor-10" 640 -15 basechar 0
AnchorPoint: "Anchor-9" 1337 -420 basechar 0
AnchorPoint: "Anchor-8" 1667 1900 basechar 0
AnchorPoint: "Anchor-7" 790 741 basechar 0
AnchorPoint: "Anchor-6" 1580 1172 basechar 0
AnchorPoint: "Anchor-3" 600 -25 basechar 0
AnchorPoint: "Anchor-2" 1480 1500 basechar 0
AnchorPoint: "Anchor-1" 950 1600 basechar 0
LayerCount: 2
Fore
SplineSet
725 -25 m 0,0,1
 457 -25 457 -25 304.5 142.5 c 128,-1,2
 152 310 152 310 152 594 c 0,3,4
 152 834 152 834 252 1033 c 128,-1,5
 352 1232 352 1232 528 1345 c 128,-1,6
 704 1458 704 1458 922 1458 c 0,7,8
 1179 1458 1179 1458 1334 1288.5 c 128,-1,9
 1489 1119 1489 1119 1489 846 c 0,10,11
 1489 604 1489 604 1392.5 402 c 128,-1,12
 1296 200 1296 200 1121.5 87.5 c 128,-1,13
 947 -25 947 -25 725 -25 c 0,0,1
729 66 m 0,14,15
 924 66 924 66 1071 162 c 128,-1,16
 1218 258 1218 258 1302 438 c 128,-1,17
 1386 618 1386 618 1386 840 c 0,18,19
 1386 1081 1386 1081 1260.5 1224.5 c 128,-1,20
 1135 1368 1135 1368 920 1368 c 0,21,22
 728 1368 728 1368 575.5 1270.5 c 128,-1,23
 423 1173 423 1173 338.5 996.5 c 128,-1,24
 254 820 254 820 254 596 c 0,25,26
 254 350 254 350 379 208 c 128,-1,27
 504 66 504 66 729 66 c 0,14,15
EndSplineSet
Substitution2: "SegoeUI-LightItalic-'c2sc' Capitals to Small Capitals lookup 17 subtable" O.c2sc
Position2: "SegoeUI-LightItalic-'cpsp' Capital Spacing lookup 0 subtable" dx=36 dy=0 dh=72 dv=0
EndChar

StartChar: P
Encoding: 80 80 150
Width: 1114
GlyphClass: 2
Flags: W
AnchorPoint: "Anchor-16" 180 2100 basechar 0
AnchorPoint: "Anchor-15" 1358 2100 basechar 0
AnchorPoint: "Anchor-12" 50 0 basechar 0
AnchorPoint: "Anchor-11" 1137 1274 basechar 0
AnchorPoint: "Anchor-9" 1026 -420 basechar 0
AnchorPoint: "Anchor-8" 1356 1900 basechar 0
AnchorPoint: "Anchor-7" 690 1003 basechar 0
AnchorPoint: "Anchor-6" 1190 1314 basechar 0
AnchorPoint: "Anchor-3" 420 -15 basechar 0
AnchorPoint: "Anchor-2" 1180 1500 basechar 0
AnchorPoint: "Anchor-1" 790 1600 basechar 0
LayerCount: 2
Fore
SplineSet
379 1434 m 1,0,-1
 692 1434 l 2,1,2
 888 1434 888 1434 997 1336 c 128,-1,3
 1106 1238 1106 1238 1106 1061 c 0,4,5
 1106 835 1106 835 959.5 705 c 128,-1,6
 813 575 813 575 563 575 c 2,7,-1
 297 575 l 1,8,-1
 174 0 l 1,9,-1
 76 0 l 1,10,-1
 379 1434 l 1,0,-1
569 666 m 2,11,12
 778 666 778 666 891 765.5 c 128,-1,13
 1004 865 1004 865 1004 1053 c 0,14,15
 1004 1192 1004 1192 920 1267.5 c 128,-1,16
 836 1343 836 1343 672 1343 c 2,17,-1
 459 1343 l 1,18,-1
 315 666 l 1,19,-1
 569 666 l 2,11,12
EndSplineSet
Substitution2: "SegoeUI-LightItalic-'c2sc' Capitals to Small Capitals lookup 17 subtable" P.c2sc
Position2: "SegoeUI-LightItalic-'cpsp' Capital Spacing lookup 0 subtable" dx=36 dy=0 dh=72 dv=0
EndChar

StartChar: Q
Encoding: 81 81 151
Width: 1544
GlyphClass: 2
Flags: W
AnchorPoint: "Anchor-16" 180 2100 basechar 0
AnchorPoint: "Anchor-15" 1724 2100 basechar 0
AnchorPoint: "Anchor-12" 820 -180 basechar 0
AnchorPoint: "Anchor-11" 1360 1320 basechar 0
AnchorPoint: "Anchor-9" 1337 -420 basechar 0
AnchorPoint: "Anchor-8" 1667 1900 basechar 0
AnchorPoint: "Anchor-7" 790 738 basechar 0
AnchorPoint: "Anchor-6" 1580 1172 basechar 0
AnchorPoint: "Anchor-3" 600 -270 basechar 0
AnchorPoint: "Anchor-2" 1480 1500 basechar 0
AnchorPoint: "Anchor-1" 950 1600 basechar 0
LayerCount: 2
Fore
SplineSet
970 -346 m 1,0,-1
 736 -25 l 1,1,2
 461 -25 461 -25 306.5 138.5 c 128,-1,3
 152 302 152 302 152 594 c 0,4,5
 152 830 152 830 255 1034 c 128,-1,6
 358 1238 358 1238 532.5 1348 c 128,-1,7
 707 1458 707 1458 922 1458 c 0,8,9
 1179 1458 1179 1458 1334 1294 c 128,-1,10
 1489 1130 1489 1130 1489 846 c 0,11,12
 1489 629 1489 629 1407.5 440 c 128,-1,13
 1326 251 1326 251 1180 131 c 128,-1,14
 1034 11 1034 11 851 -16 c 1,15,-1
 1098 -346 l 1,16,-1
 970 -346 l 1,0,-1
729 66 m 0,17,18
 921 66 921 66 1071 164.5 c 128,-1,19
 1221 263 1221 263 1303.5 442 c 128,-1,20
 1386 621 1386 621 1386 840 c 0,21,22
 1386 1085 1386 1085 1259 1226.5 c 128,-1,23
 1132 1368 1132 1368 920 1368 c 0,24,25
 725 1368 725 1368 573 1268.5 c 128,-1,26
 421 1169 421 1169 337.5 990 c 128,-1,27
 254 811 254 811 254 596 c 0,28,29
 254 345 254 345 379 205.5 c 128,-1,30
 504 66 504 66 729 66 c 0,17,18
EndSplineSet
Substitution2: "SegoeUI-LightItalic-'ss20' Style Set 20 lookup 29 subtable" Q.ss20
Substitution2: "SegoeUI-LightItalic-'c2sc' Capitals to Small Capitals lookup 17 subtable" Q.c2sc
Position2: "SegoeUI-LightItalic-'cpsp' Capital Spacing lookup 0 subtable" dx=36 dy=0 dh=72 dv=0
EndChar

StartChar: R
Encoding: 82 82 152
Width: 1137
GlyphClass: 2
Flags: W
AnchorPoint: "Anchor-16" 180 2100 basechar 0
AnchorPoint: "Anchor-15" 1372 2100 basechar 0
AnchorPoint: "Anchor-12" 790 0 basechar 0
AnchorPoint: "Anchor-11" 1147 1274 basechar 0
AnchorPoint: "Anchor-10" 462 -50 basechar 0
AnchorPoint: "Anchor-9" 1019 -420 basechar 0
AnchorPoint: "Anchor-8" 1349 1900 basechar 0
AnchorPoint: "Anchor-7" 690 1003 basechar 0
AnchorPoint: "Anchor-6" 1190 1314 basechar 0
AnchorPoint: "Anchor-3" 500 -15 basechar 0
AnchorPoint: "Anchor-2" 1220 1500 basechar 0
AnchorPoint: "Anchor-1" 790 1600 basechar 0
LayerCount: 2
Fore
SplineSet
379 1434 m 1,0,-1
 745 1434 l 2,1,2
 920 1434 920 1434 1016 1343 c 128,-1,3
 1112 1252 1112 1252 1112 1085 c 0,4,5
 1112 908 1112 908 991 789.5 c 128,-1,6
 870 671 870 671 672 659 c 1,7,-1
 672 655 l 1,8,9
 767 612 767 612 807 457 c 2,10,-1
 922 0 l 1,11,-1
 817 0 l 1,12,-1
 711 432 l 2,13,14
 685 538 685 538 629.5 588.5 c 128,-1,15
 574 639 574 639 467 639 c 2,16,-1
 309 639 l 1,17,-1
 174 0 l 1,18,-1
 76 0 l 1,19,-1
 379 1434 l 1,0,-1
594 729 m 2,20,21
 788 729 788 729 899 823 c 128,-1,22
 1010 917 1010 917 1010 1081 c 0,23,24
 1010 1206 1010 1206 936.5 1274.5 c 128,-1,25
 863 1343 863 1343 731 1343 c 2,26,-1
 459 1343 l 1,27,-1
 328 729 l 1,28,-1
 594 729 l 2,20,21
EndSplineSet
Substitution2: "SegoeUI-LightItalic-'c2sc' Capitals to Small Capitals lookup 17 subtable" R.c2sc
Position2: "SegoeUI-LightItalic-'cpsp' Capital Spacing lookup 0 subtable" dx=36 dy=0 dh=72 dv=0
EndChar

StartChar: S
Encoding: 83 83 153
Width: 1018
GlyphClass: 2
Flags: W
AnchorPoint: "Anchor-16" 180 2100 basechar 0
AnchorPoint: "Anchor-15" 1198 2100 basechar 0
AnchorPoint: "Anchor-12" 460 0 basechar 0
AnchorPoint: "Anchor-11" 1040 1428 basechar 0
AnchorPoint: "Anchor-10" 394 -15 basechar 0
AnchorPoint: "Anchor-9" 874 -420 basechar 0
AnchorPoint: "Anchor-8" 1204 1900 basechar 0
AnchorPoint: "Anchor-7" 544 741 basechar 0
AnchorPoint: "Anchor-6" 1120 1410 basechar 0
AnchorPoint: "Anchor-3" 380 -25 basechar 0
AnchorPoint: "Anchor-2" 1100 1500 basechar 0
AnchorPoint: "Anchor-1" 700 1600 basechar 0
LayerCount: 2
Fore
SplineSet
63 164 m 1,0,1
 129 121 129 121 218 93.5 c 128,-1,2
 307 66 307 66 401 66 c 0,3,4
 562 66 562 66 653.5 139.5 c 128,-1,5
 745 213 745 213 745 346 c 0,6,7
 745 439 745 439 693 513 c 128,-1,8
 641 587 641 587 516 678 c 0,9,10
 375 780 375 780 318.5 868 c 128,-1,11
 262 956 262 956 262 1071 c 0,12,13
 262 1241 262 1241 392.5 1349.5 c 128,-1,14
 523 1458 523 1458 717 1458 c 0,15,16
 863 1458 863 1458 1008 1405 c 1,17,-1
 987 1303 l 1,18,19
 871 1368 871 1368 707 1368 c 0,20,21
 553 1368 553 1368 459 1289.5 c 128,-1,22
 365 1211 365 1211 365 1079 c 0,23,24
 365 979 365 979 410.5 910.5 c 128,-1,25
 456 842 456 842 588 745 c 0,26,27
 733 640 733 640 790.5 556.5 c 128,-1,28
 848 473 848 473 848 358 c 0,29,30
 848 181 848 181 725 78 c 128,-1,31
 602 -25 602 -25 395 -25 c 0,32,33
 298 -25 298 -25 206 -1.5 c 128,-1,34
 114 22 114 22 45 59 c 1,35,-1
 63 164 l 1,0,1
EndSplineSet
Substitution2: "SegoeUI-LightItalic-'c2sc' Capitals to Small Capitals lookup 17 subtable" S.c2sc
Position2: "SegoeUI-LightItalic-'cpsp' Capital Spacing lookup 0 subtable" dx=36 dy=0 dh=72 dv=0
EndChar

StartChar: T
Encoding: 84 84 154
Width: 1047
GlyphClass: 2
Flags: W
AnchorPoint: "Anchor-16" 180 2100 basechar 0
AnchorPoint: "Anchor-15" 1257 2100 basechar 0
AnchorPoint: "Anchor-12" 330 0 basechar 0
AnchorPoint: "Anchor-11" 1210 1443 basechar 0
AnchorPoint: "Anchor-10" 405 0 basechar 0
AnchorPoint: "Anchor-9" 1073 -420 basechar 0
AnchorPoint: "Anchor-8" 1403 1900 basechar 0
AnchorPoint: "Anchor-7" 580 717 basechar 0
AnchorPoint: "Anchor-6" 1305 1434 basechar 0
AnchorPoint: "Anchor-3" 380 -15 basechar 0
AnchorPoint: "Anchor-2" 1280 1500 basechar 0
AnchorPoint: "Anchor-1" 730 1600 basechar 0
LayerCount: 2
Fore
SplineSet
649 1343 m 1,0,-1
 236 1343 l 1,1,-1
 254 1434 l 1,2,-1
 1180 1434 l 1,3,-1
 1161 1343 l 1,4,-1
 748 1343 l 1,5,-1
 463 0 l 1,6,-1
 365 0 l 1,7,-1
 649 1343 l 1,0,-1
EndSplineSet
Substitution2: "SegoeUI-LightItalic-'c2sc' Capitals to Small Capitals lookup 17 subtable" T.c2sc
Position2: "SegoeUI-LightItalic-'cpsp' Capital Spacing lookup 0 subtable" dx=36 dy=0 dh=72 dv=0
EndChar

StartChar: U
Encoding: 85 85 155
Width: 1327
GlyphClass: 2
Flags: W
AnchorPoint: "Anchor-16" 180 2100 basechar 0
AnchorPoint: "Anchor-15" 1591 2100 basechar 0
AnchorPoint: "Anchor-12" 610 0 basechar 0
AnchorPoint: "Anchor-11" 1422 1439 basechar 0
AnchorPoint: "Anchor-10" 553 -15 basechar 0
AnchorPoint: "Anchor-9" 1284 -420 basechar 0
AnchorPoint: "Anchor-8" 1614 1900 basechar 0
AnchorPoint: "Anchor-7" 720 729 basechar 0
AnchorPoint: "Anchor-6" 1513 1440 basechar 0
AnchorPoint: "Anchor-3" 530 -25 basechar 0
AnchorPoint: "Anchor-2" 1480 1500 basechar 0
AnchorPoint: "Anchor-1" 880 1600 basechar 0
LayerCount: 2
Fore
SplineSet
358 1434 m 1,0,-1
 457 1434 l 1,1,-1
 293 651 l 2,2,3
 262 506 262 506 262 416 c 0,4,5
 262 66 262 66 610 66 c 0,6,7
 801 66 801 66 909 176.5 c 128,-1,8
 1017 287 1017 287 1067 520 c 2,9,-1
 1260 1434 l 1,10,-1
 1358 1434 l 1,11,-1
 1171 547 l 2,12,13
 1104 234 1104 234 970.5 104.5 c 128,-1,14
 837 -25 837 -25 592 -25 c 0,15,16
 390 -25 390 -25 276 87 c 128,-1,17
 162 199 162 199 162 399 c 0,18,19
 162 498 162 498 186 616 c 2,20,-1
 358 1434 l 1,0,-1
EndSplineSet
Substitution2: "SegoeUI-LightItalic-'c2sc' Capitals to Small Capitals lookup 17 subtable" U.c2sc
Position2: "SegoeUI-LightItalic-'cpsp' Capital Spacing lookup 0 subtable" dx=36 dy=0 dh=72 dv=0
EndChar

StartChar: V
Encoding: 86 86 156
Width: 1282
GlyphClass: 2
Flags: W
AnchorPoint: "Anchor-16" 180 2100 basechar 0
AnchorPoint: "Anchor-15" 1466 2100 basechar 0
AnchorPoint: "Anchor-12" 440 0 basechar 0
AnchorPoint: "Anchor-11" 1373 1434 basechar 0
AnchorPoint: "Anchor-9" 1298 -420 basechar 0
AnchorPoint: "Anchor-8" 1628 1900 basechar 0
AnchorPoint: "Anchor-7" 660 717 basechar 0
AnchorPoint: "Anchor-6" 1510 1434 basechar 0
AnchorPoint: "Anchor-3" 470 -15 basechar 0
AnchorPoint: "Anchor-2" 1480 1500 basechar 0
AnchorPoint: "Anchor-1" 820 1600 basechar 0
LayerCount: 2
Fore
SplineSet
260 1434 m 1,0,-1
 367 1434 l 1,1,-1
 537 287 l 2,2,3
 545 234 545 234 545 152 c 1,4,-1
 549 152 l 1,5,6
 558 172 558 172 569 194 c 128,-1,7
 580 216 580 216 1300 1434 c 1,8,-1
 1415 1434 l 1,9,-1
 555 0 l 1,10,-1
 481 0 l 1,11,-1
 260 1434 l 1,0,-1
EndSplineSet
Substitution2: "SegoeUI-LightItalic-'c2sc' Capitals to Small Capitals lookup 17 subtable" V.c2sc
Position2: "SegoeUI-LightItalic-'cpsp' Capital Spacing lookup 0 subtable" dx=36 dy=0 dh=72 dv=0
EndChar

StartChar: W
Encoding: 87 87 157
Width: 1767
GlyphClass: 2
Flags: W
AnchorPoint: "Anchor-16" 180 2100 basechar 0
AnchorPoint: "Anchor-15" 2083 2100 basechar 0
AnchorPoint: "Anchor-12" 1125 0 basechar 0
AnchorPoint: "Anchor-11" 2010 1434 basechar 0
AnchorPoint: "Anchor-9" 1927 -420 basechar 0
AnchorPoint: "Anchor-8" 2257 1900 basechar 0
AnchorPoint: "Anchor-7" 990 717 basechar 0
AnchorPoint: "Anchor-6" 2063 1434 basechar 0
AnchorPoint: "Anchor-3" 800 -15 basechar 0
AnchorPoint: "Anchor-2" 2130 1500 basechar 0
AnchorPoint: "Anchor-1" 1150 1600 basechar 0
LayerCount: 2
Fore
SplineSet
215 1434 m 1,0,-1
 319 1434 l 1,1,-1
 406 285 l 1,2,-1
 412 158 l 1,3,-1
 416 158 l 1,4,5
 428 187 428 187 442.5 219 c 128,-1,6
 457 251 457 251 1073 1434 c 1,7,-1
 1122 1434 l 1,8,-1
 1204 285 l 1,9,-1
 1210 158 l 1,10,-1
 1214 158 l 1,11,12
 1339 419 1339 419 1835 1434 c 1,13,-1
 1946 1434 l 1,14,-1
 1223 0 l 1,15,-1
 1141 0 l 1,16,-1
 1051 1079 l 1,17,-1
 1048 1212 l 1,18,-1
 1043 1212 l 1,19,20
 1027 1155 1027 1155 989 1081 c 2,21,-1
 422 0 l 1,22,-1
 338 0 l 1,23,-1
 215 1434 l 1,0,-1
EndSplineSet
Substitution2: "SegoeUI-LightItalic-'c2sc' Capitals to Small Capitals lookup 17 subtable" W.c2sc
Position2: "SegoeUI-LightItalic-'cpsp' Capital Spacing lookup 0 subtable" dx=36 dy=0 dh=72 dv=0
EndChar

StartChar: X
Encoding: 88 88 158
Width: 1153
GlyphClass: 2
Flags: W
AnchorPoint: "Anchor-16" 180 2100 basechar 0
AnchorPoint: "Anchor-15" 1390 2100 basechar 0
AnchorPoint: "Anchor-12" 820 0 basechar 0
AnchorPoint: "Anchor-11" 1260 1434 basechar 0
AnchorPoint: "Anchor-9" 1214 -420 basechar 0
AnchorPoint: "Anchor-8" 1544 1900 basechar 0
AnchorPoint: "Anchor-7" 640 717 basechar 0
AnchorPoint: "Anchor-6" 1380 1434 basechar 0
AnchorPoint: "Anchor-3" 450 -15 basechar 0
AnchorPoint: "Anchor-2" 1410 1500 basechar 0
AnchorPoint: "Anchor-1" 800 1600 basechar 0
LayerCount: 2
Fore
SplineSet
-57 0 m 1,0,-1
 559 727 l 1,1,-1
 289 1434 l 1,2,-1
 401 1434 l 1,3,-1
 600 895 l 1,4,-1
 633 795 l 1,5,-1
 637 795 l 1,6,7
 653 819 653 819 670.5 843.5 c 128,-1,8
 688 868 688 868 1157 1434 c 1,9,-1
 1276 1434 l 1,10,-1
 688 725 l 1,11,-1
 963 0 l 1,12,-1
 850 0 l 1,13,-1
 645 547 l 1,14,-1
 612 653 l 1,15,-1
 608 653 l 1,16,17
 589 620 589 620 528 547 c 2,18,-1
 72 0 l 1,19,-1
 -57 0 l 1,0,-1
EndSplineSet
Substitution2: "SegoeUI-LightItalic-'c2sc' Capitals to Small Capitals lookup 17 subtable" X.c2sc
Position2: "SegoeUI-LightItalic-'cpsp' Capital Spacing lookup 0 subtable" dx=36 dy=0 dh=72 dv=0
EndChar

StartChar: Y
Encoding: 89 89 159
Width: 1106
GlyphClass: 2
Flags: W
AnchorPoint: "Anchor-16" 180 2100 basechar 0
AnchorPoint: "Anchor-15" 1315 2100 basechar 0
AnchorPoint: "Anchor-12" 360 0 basechar 0
AnchorPoint: "Anchor-11" 1260 1434 basechar 0
AnchorPoint: "Anchor-9" 1163 -420 basechar 0
AnchorPoint: "Anchor-8" 1493 1900 basechar 0
AnchorPoint: "Anchor-7" 510 430 basechar 0
AnchorPoint: "Anchor-6" 1350 1434 basechar 0
AnchorPoint: "Anchor-3" 410 -15 basechar 0
AnchorPoint: "Anchor-2" 1380 1500 basechar 0
AnchorPoint: "Anchor-1" 760 1600 basechar 0
LayerCount: 2
Fore
SplineSet
496 543 m 1,0,-1
 248 1434 l 1,1,-1
 352 1434 l 1,2,-1
 537 748 l 2,3,4
 559 667 559 667 563 639 c 1,5,-1
 567 639 l 1,6,7
 583 668 583 668 622 721 c 2,8,-1
 1130 1434 l 1,9,-1
 1245 1434 l 1,10,-1
 598 545 l 1,11,-1
 483 0 l 1,12,-1
 381 0 l 1,13,-1
 496 543 l 1,0,-1
EndSplineSet
Substitution2: "SegoeUI-LightItalic-'c2sc' Capitals to Small Capitals lookup 17 subtable" Y.c2sc
Position2: "SegoeUI-LightItalic-'cpsp' Capital Spacing lookup 0 subtable" dx=36 dy=0 dh=72 dv=0
EndChar

StartChar: Z
Encoding: 90 90 160
Width: 1167
GlyphClass: 2
Flags: W
AnchorPoint: "Anchor-16" 180 2100 basechar 0
AnchorPoint: "Anchor-15" 1347 2100 basechar 0
AnchorPoint: "Anchor-12" 820 0 basechar 0
AnchorPoint: "Anchor-11" 1260 1434 basechar 0
AnchorPoint: "Anchor-9" 1169 -420 basechar 0
AnchorPoint: "Anchor-8" 1499 1900 basechar 0
AnchorPoint: "Anchor-7" 610 717 basechar 0
AnchorPoint: "Anchor-6" 1390 1434 basechar 0
AnchorPoint: "Anchor-3" 410 -15 basechar 0
AnchorPoint: "Anchor-2" 1380 1500 basechar 0
AnchorPoint: "Anchor-1" 830 1600 basechar 0
LayerCount: 2
Fore
SplineSet
1104 1341 m 1,0,-1
 309 1341 l 1,1,-1
 328 1434 l 1,2,-1
 1280 1434 l 1,3,-1
 1274 1397 l 1,4,-1
 127 92 l 1,5,-1
 981 92 l 1,6,-1
 963 0 l 1,7,-1
 -45 0 l 1,8,-1
 -37 41 l 1,9,-1
 1104 1341 l 1,0,-1
EndSplineSet
Substitution2: "SegoeUI-LightItalic-'c2sc' Capitals to Small Capitals lookup 17 subtable" Z.c2sc
Position2: "SegoeUI-LightItalic-'cpsp' Capital Spacing lookup 0 subtable" dx=36 dy=0 dh=72 dv=0
EndChar

StartChar: bracketleft
Encoding: 91 91 161
Width: 588
GlyphClass: 2
Flags: W
LayerCount: 2
Fore
SplineSet
406 1434 m 1,0,-1
 723 1434 l 1,1,-1
 707 1350 l 1,2,-1
 481 1350 l 1,3,-1
 141 -242 l 1,4,-1
 367 -242 l 1,5,-1
 350 -326 l 1,6,-1
 33 -326 l 1,7,-1
 406 1434 l 1,0,-1
EndSplineSet
Position2: "SegoeUI-LightItalic-'case' Case-Sensitive Forms lookup 3 subtable" dx=30 dy=140 dh=0 dv=0
EndChar

StartChar: backslash
Encoding: 92 92 162
Width: 791
GlyphClass: 2
Flags: W
LayerCount: 2
Fore
SplineSet
201 1434 m 1,0,-1
 289 1434 l 1,1,-1
 633 -240 l 1,2,-1
 549 -240 l 1,3,-1
 201 1434 l 1,0,-1
EndSplineSet
EndChar

StartChar: bracketright
Encoding: 93 93 163
Width: 588
GlyphClass: 2
Flags: W
LayerCount: 2
Fore
SplineSet
-119 -242 m 1,0,-1
 106 -242 l 1,1,-1
 446 1350 l 1,2,-1
 221 1350 l 1,3,-1
 238 1434 l 1,4,-1
 555 1434 l 1,5,-1
 182 -326 l 1,6,-1
 -135 -326 l 1,7,-1
 -119 -242 l 1,0,-1
EndSplineSet
Position2: "SegoeUI-LightItalic-'case' Case-Sensitive Forms lookup 3 subtable" dx=30 dy=140 dh=0 dv=0
EndChar

StartChar: asciicircum
Encoding: 94 94 164
Width: 1331
GlyphClass: 2
Flags: W
LayerCount: 2
Fore
SplineSet
678 1458 m 1,0,-1
 719 1458 l 1,1,-1
 1104 702 l 1,2,-1
 1008 702 l 1,3,-1
 700 1315 l 1,4,-1
 696 1315 l 1,5,-1
 389 702 l 1,6,-1
 293 702 l 1,7,-1
 678 1458 l 1,0,-1
EndSplineSet
EndChar

StartChar: underscore
Encoding: 95 95 165
Width: 850
GlyphClass: 2
Flags: W
LayerCount: 2
Fore
SplineSet
-150 -178 m 1,0,-1
 700 -178 l 1,1,-1
 676 -297 l 1,2,-1
 -174 -297 l 1,3,-1
 -150 -178 l 1,0,-1
EndSplineSet
EndChar

StartChar: grave
Encoding: 96 96 166
Width: 614
GlyphClass: 2
Flags: W
LayerCount: 2
Fore
SplineSet
281 1516 m 1,0,-1
 379 1516 l 1,1,-1
 571 1188 l 1,2,-1
 487 1188 l 1,3,-1
 281 1516 l 1,0,-1
EndSplineSet
EndChar

StartChar: a
Encoding: 97 97 167
Width: 1071
GlyphClass: 2
Flags: W
AnchorPoint: "Anchor-16" 180 2100 basechar 0
AnchorPoint: "Anchor-15" 1290 2100 basechar 0
AnchorPoint: "Anchor-12" 710 0 basechar 0
AnchorPoint: "Anchor-11" 1040 1009 basechar 0
AnchorPoint: "Anchor-10" 370 -15 basechar 0
AnchorPoint: "Anchor-9" 897 -420 basechar 0
AnchorPoint: "Anchor-8" 1227 1900 basechar 0
AnchorPoint: "Anchor-7" 521 536 basechar 0
AnchorPoint: "Anchor-6" 1140 990 basechar 0
AnchorPoint: "Anchor-3" 370 -25 basechar 0
AnchorPoint: "Anchor-2" 1060 1200 basechar 0
AnchorPoint: "Anchor-1" 700 1300 basechar 0
LayerCount: 2
Fore
SplineSet
739 0 m 1,0,1
 743 111 743 111 782 328 c 1,2,-1
 778 328 l 1,3,4
 685 156 685 156 585 65.5 c 128,-1,5
 485 -25 485 -25 365 -25 c 0,6,7
 229 -25 229 -25 155.5 70.5 c 128,-1,8
 82 166 82 166 82 340 c 0,9,10
 82 540 82 540 163 703 c 128,-1,11
 244 866 244 866 386.5 957.5 c 128,-1,12
 529 1049 529 1049 700 1049 c 0,13,14
 830 1049 830 1049 1012 1012 c 1,15,-1
 879 367 l 2,16,17
 864 291 864 291 849 177.5 c 128,-1,18
 834 64 834 64 834 0 c 1,19,-1
 739 0 l 1,0,1
905 942 m 1,20,21
 799 965 799 965 692 965 c 0,22,23
 549 965 549 965 430.5 887 c 128,-1,24
 312 809 312 809 245 668 c 128,-1,25
 178 527 178 527 178 350 c 0,26,27
 178 59 178 59 383 59 c 0,28,29
 464 59 464 59 557 138.5 c 128,-1,30
 650 218 650 218 730.5 358.5 c 128,-1,31
 811 499 811 499 844 647 c 2,32,-1
 905 942 l 1,20,21
EndSplineSet
Substitution2: "SegoeUI-LightItalic-'smcp' Lowercase to Small Capitals lookup 18 subtable" A.c2sc
EndChar

StartChar: b
Encoding: 98 98 168
Width: 1071
GlyphClass: 2
Flags: W
AnchorPoint: "Anchor-16" 180 2100 basechar 0
AnchorPoint: "Anchor-15" 1290 2100 basechar 0
AnchorPoint: "Anchor-14" 692 80 basechar 0
AnchorPoint: "Anchor-13" 692 80 basechar 0
AnchorPoint: "Anchor-12" 500 0 basechar 0
AnchorPoint: "Anchor-11" 1020 950 basechar 0
AnchorPoint: "Anchor-9" 882 -420 basechar 0
AnchorPoint: "Anchor-8" 1212 1900 basechar 0
AnchorPoint: "Anchor-7" 560 462 basechar 0
AnchorPoint: "Anchor-6" 1110 914 basechar 0
AnchorPoint: "Anchor-3" 470 -25 basechar 0
AnchorPoint: "Anchor-2" 1130 1400 basechar 0
AnchorPoint: "Anchor-1" 770 1650 basechar 0
LayerCount: 2
Fore
SplineSet
379 1516 m 1,0,-1
 471 1516 l 1,1,2
 325 837 325 837 297 717 c 1,3,-1
 301 717 l 1,4,5
 382 876 382 876 481.5 962.5 c 128,-1,6
 581 1049 581 1049 709 1049 c 0,7,8
 848 1049 848 1049 918.5 955 c 128,-1,9
 989 861 989 861 989 682 c 0,10,11
 989 478 989 478 910.5 316 c 128,-1,12
 832 154 832 154 691 64.5 c 128,-1,13
 550 -25 550 -25 377 -25 c 0,14,15
 310 -25 310 -25 222 -2 c 128,-1,16
 134 21 134 21 70 59 c 1,17,-1
 379 1516 l 1,0,-1
174 115 m 1,18,19
 269 59 269 59 387 59 c 0,20,21
 526 59 526 59 643.5 138 c 128,-1,22
 761 217 761 217 827 357.5 c 128,-1,23
 893 498 893 498 893 670 c 0,24,25
 893 814 893 814 845.5 889.5 c 128,-1,26
 798 965 798 965 684 965 c 0,27,28
 597 965 597 965 506 887 c 128,-1,29
 415 809 415 809 337.5 667.5 c 128,-1,30
 260 526 260 526 229 377 c 2,31,-1
 174 115 l 1,18,19
EndSplineSet
Substitution2: "SegoeUI-LightItalic-'smcp' Lowercase to Small Capitals lookup 18 subtable" B.c2sc
EndChar

StartChar: c
Encoding: 99 99 169
Width: 838
GlyphClass: 2
Flags: W
AnchorPoint: "Anchor-16" 180 2100 basechar 0
AnchorPoint: "Anchor-15" 1073 2100 basechar 0
AnchorPoint: "Anchor-14" 570 26 basechar 0
AnchorPoint: "Anchor-13" 570 26 basechar 0
AnchorPoint: "Anchor-12" 510 0 basechar 0
AnchorPoint: "Anchor-11" 920 1009 basechar 0
AnchorPoint: "Anchor-10" 420 -15 basechar 0
AnchorPoint: "Anchor-9" 751 -420 basechar 0
AnchorPoint: "Anchor-8" 1081 1900 basechar 0
AnchorPoint: "Anchor-7" 573 536 basechar 0
AnchorPoint: "Anchor-6" 990 991 basechar 0
AnchorPoint: "Anchor-3" 420 -25 basechar 0
AnchorPoint: "Anchor-2" 950 1200 basechar 0
AnchorPoint: "Anchor-1" 650 1300 basechar 0
LayerCount: 2
Fore
SplineSet
438 -25 m 0,0,1
 274 -25 274 -25 178 83.5 c 128,-1,2
 82 192 82 192 82 381 c 0,3,4
 82 568 82 568 154 722 c 128,-1,5
 226 876 226 876 352 962.5 c 128,-1,6
 478 1049 478 1049 627 1049 c 0,7,8
 696 1049 696 1049 752 1033.5 c 128,-1,9
 808 1018 808 1018 866 979 c 1,10,-1
 842 877 l 1,11,12
 754 965 754 965 618 965 c 0,13,14
 497 965 497 965 393.5 889 c 128,-1,15
 290 813 290 813 232 679 c 128,-1,16
 174 545 174 545 174 385 c 0,17,18
 174 233 174 233 246.5 146 c 128,-1,19
 319 59 319 59 449 59 c 0,20,21
 515 59 515 59 575 85 c 128,-1,22
 635 111 635 111 709 166 c 1,23,-1
 684 51 l 1,24,25
 608 8 608 8 554 -8.5 c 128,-1,26
 500 -25 500 -25 438 -25 c 0,0,1
EndSplineSet
Substitution2: "SegoeUI-LightItalic-'smcp' Lowercase to Small Capitals lookup 18 subtable" C.c2sc
EndChar

StartChar: d
Encoding: 100 100 170
Width: 1071
GlyphClass: 2
Flags: W
AnchorPoint: "Anchor-16" 180 2100 basechar 0
AnchorPoint: "Anchor-15" 1290 2100 basechar 0
AnchorPoint: "Anchor-14" 780 0 basechar 0
AnchorPoint: "Anchor-13" 775 0 basechar 0
AnchorPoint: "Anchor-12" 710 0 basechar 0
AnchorPoint: "Anchor-11" 1190 1522 basechar 0
AnchorPoint: "Anchor-9" 1003 -420 basechar 0
AnchorPoint: "Anchor-8" 1333 1900 basechar 0
AnchorPoint: "Anchor-7" 510 539 basechar 0
AnchorPoint: "Anchor-6" 1240 1513 basechar 0
AnchorPoint: "Anchor-3" 390 -25 basechar 0
AnchorPoint: "Anchor-2" 1220 1600 basechar 0
AnchorPoint: "Anchor-1" 720 1650 basechar 0
LayerCount: 2
Fore
SplineSet
739 0 m 1,0,1
 743 120 743 120 780 326 c 1,2,-1
 776 326 l 1,3,4
 682 150 682 150 582 62.5 c 128,-1,5
 482 -25 482 -25 362 -25 c 0,6,7
 228 -25 228 -25 155 70.5 c 128,-1,8
 82 166 82 166 82 342 c 0,9,10
 82 541 82 541 164 704.5 c 128,-1,11
 246 868 246 868 388.5 958.5 c 128,-1,12
 531 1049 531 1049 698 1049 c 0,13,14
 791 1049 791 1049 920 1016 c 1,15,-1
 1026 1516 l 1,16,-1
 1118 1516 l 1,17,-1
 866 324 l 2,18,19
 859 290 859 290 846.5 170 c 128,-1,20
 834 50 834 50 834 0 c 1,21,-1
 739 0 l 1,0,1
903 930 m 1,22,23
 796 965 796 965 688 965 c 0,24,25
 549 965 549 965 431 887 c 128,-1,26
 313 809 313 809 245.5 669.5 c 128,-1,27
 178 530 178 530 178 358 c 0,28,29
 178 204 178 204 228 131.5 c 128,-1,30
 278 59 278 59 383 59 c 0,31,32
 463 59 463 59 561 143.5 c 128,-1,33
 659 228 659 228 736 364 c 128,-1,34
 813 500 813 500 844 647 c 2,35,-1
 903 930 l 1,22,23
EndSplineSet
Substitution2: "SegoeUI-LightItalic-'smcp' Lowercase to Small Capitals lookup 18 subtable" D.c2sc
EndChar

StartChar: e
Encoding: 101 101 171
Width: 956
GlyphClass: 2
Flags: W
AnchorPoint: "Anchor-16" 180 2100 basechar 0
AnchorPoint: "Anchor-15" 1177 2100 basechar 0
AnchorPoint: "Anchor-12" 520 0 basechar 0
AnchorPoint: "Anchor-11" 940 973 basechar 0
AnchorPoint: "Anchor-10" 405 -15 basechar 0
AnchorPoint: "Anchor-9" 808 -420 basechar 0
AnchorPoint: "Anchor-8" 1138 1900 basechar 0
AnchorPoint: "Anchor-7" 565 600 basechar 0
AnchorPoint: "Anchor-6" 1070 910 basechar 0
AnchorPoint: "Anchor-3" 420 -25 basechar 0
AnchorPoint: "Anchor-2" 980 1200 basechar 0
AnchorPoint: "Anchor-1" 670 1300 basechar 0
LayerCount: 2
Fore
SplineSet
178 395 m 1,0,1
 178 238 178 238 258.5 148.5 c 128,-1,2
 339 59 339 59 485 59 c 0,3,4
 613 59 613 59 766 143 c 1,5,-1
 748 47 l 1,6,7
 616 -25 616 -25 471 -25 c 0,8,9
 286 -25 286 -25 184 87.5 c 128,-1,10
 82 200 82 200 82 403 c 0,11,12
 82 581 82 581 156.5 729.5 c 128,-1,13
 231 878 231 878 356.5 963.5 c 128,-1,14
 482 1049 482 1049 623 1049 c 0,15,16
 754 1049 754 1049 834.5 983 c 128,-1,17
 915 917 915 917 915 803 c 0,18,19
 915 627 915 627 741.5 545 c 128,-1,20
 568 463 568 463 180 457 c 1,21,-1
 178 395 l 1,0,1
193 541 m 1,22,23
 513 541 513 541 666 600 c 128,-1,24
 819 659 819 659 819 793 c 0,25,26
 819 965 819 965 608 965 c 0,27,28
 459 965 459 965 344.5 846.5 c 128,-1,29
 230 728 230 728 193 541 c 1,22,23
EndSplineSet
Substitution2: "SegoeUI-LightItalic-'smcp' Lowercase to Small Capitals lookup 18 subtable" E.c2sc
EndChar

StartChar: f
Encoding: 102 102 172
Width: 528
GlyphClass: 2
Flags: W
AnchorPoint: "Anchor-16" 180 2100 basechar 0
AnchorPoint: "Anchor-15" 784 2100 basechar 0
AnchorPoint: "Anchor-14" 80 -350 basechar 0
AnchorPoint: "Anchor-13" 80 -350 basechar 0
AnchorPoint: "Anchor-12" -20 -350 basechar 0
AnchorPoint: "Anchor-11" 850 1538 basechar 0
AnchorPoint: "Anchor-9" 700 -420 basechar 0
AnchorPoint: "Anchor-8" 1030 1900 basechar 0
AnchorPoint: "Anchor-7" 320 615 basechar 0
AnchorPoint: "Anchor-6" 940 1520 basechar 0
AnchorPoint: "Anchor-3" 60 -350 basechar 0
AnchorPoint: "Anchor-2" 910 1600 basechar 0
AnchorPoint: "Anchor-1" 660 1650 basechar 0
LayerCount: 2
Fore
SplineSet
283 940 m 1,0,-1
 98 940 l 1,1,-1
 117 1024 l 1,2,-1
 301 1024 l 1,3,-1
 342 1217 l 2,4,5
 376 1379 376 1379 463 1459.5 c 128,-1,6
 550 1540 550 1540 682 1540 c 0,7,8
 743 1540 743 1540 797 1524 c 1,9,-1
 778 1434 l 1,10,11
 746 1456 746 1456 672 1456 c 0,12,13
 482 1456 482 1456 428 1192 c 2,14,-1
 393 1024 l 1,15,-1
 664 1024 l 1,16,-1
 645 940 l 1,17,-1
 375 940 l 1,18,-1
 102 -340 l 1,19,-1
 10 -340 l 1,20,-1
 283 940 l 1,0,-1
EndSplineSet
Substitution2: "SegoeUI-LightItalic-'smcp' Lowercase to Small Capitals lookup 18 subtable" F.c2sc
EndChar

StartChar: g
Encoding: 103 103 173
Width: 1071
GlyphClass: 2
Flags: W
AnchorPoint: "Anchor-16" 180 2100 basechar 0
AnchorPoint: "Anchor-15" 1290 2100 basechar 0
AnchorPoint: "Anchor-14" 600 -320 basechar 0
AnchorPoint: "Anchor-13" 600 -320 basechar 0
AnchorPoint: "Anchor-12" 470 -400 basechar 0
AnchorPoint: "Anchor-11" 1040 1028 basechar 0
AnchorPoint: "Anchor-10" 420 -450 basechar 0
AnchorPoint: "Anchor-9" 897 -420 basechar 0
AnchorPoint: "Anchor-8" 1227 1900 basechar 0
AnchorPoint: "Anchor-7" 500 508 basechar 0
AnchorPoint: "Anchor-6" 1140 1023 basechar 0
AnchorPoint: "Anchor-3" 420 -470 basechar 0
AnchorPoint: "Anchor-2" 1140 1200 basechar 0
AnchorPoint: "Anchor-1" 750 1300 basechar 0
LayerCount: 2
Fore
SplineSet
-6 -313 m 1,0,1
 134 -393 134 -393 270 -393 c 0,2,3
 452 -393 452 -393 556.5 -292.5 c 128,-1,4
 661 -192 661 -192 713 35 c 2,5,-1
 778 324 l 1,6,-1
 774 324 l 1,7,8
 671 139 671 139 574.5 57 c 128,-1,9
 478 -25 478 -25 365 -25 c 0,10,11
 227 -25 227 -25 154.5 70.5 c 128,-1,12
 82 166 82 166 82 344 c 0,13,14
 82 541 82 541 164 704 c 128,-1,15
 246 867 246 867 389 958 c 128,-1,16
 532 1049 532 1049 702 1049 c 0,17,18
 753 1049 753 1049 848 1039 c 128,-1,19
 943 1029 943 1029 1012 1012 c 1,20,-1
 811 72 l 2,21,22
 747 -224 747 -224 615.5 -352.5 c 128,-1,23
 484 -481 484 -481 252 -481 c 0,24,25
 109 -481 109 -481 -23 -410 c 1,26,-1
 -6 -313 l 1,0,1
905 942 m 1,27,28
 805 965 805 965 688 965 c 0,29,30
 548 965 548 965 429.5 886.5 c 128,-1,31
 311 808 311 808 244.5 669.5 c 128,-1,32
 178 531 178 531 178 360 c 0,33,34
 178 59 178 59 377 59 c 0,35,36
 466 59 466 59 561 140.5 c 128,-1,37
 656 222 656 222 735 362 c 128,-1,38
 814 502 814 502 844 647 c 2,39,-1
 905 942 l 1,27,28
EndSplineSet
Substitution2: "SegoeUI-LightItalic-'smcp' Lowercase to Small Capitals lookup 18 subtable" G.c2sc
EndChar

StartChar: h
Encoding: 104 104 174
Width: 1102
GlyphClass: 2
Flags: W
AnchorPoint: "Anchor-16" 180 2100 basechar 0
AnchorPoint: "Anchor-15" 1321 2100 basechar 0
AnchorPoint: "Anchor-14" 800 0 basechar 0
AnchorPoint: "Anchor-13" 800 0 basechar 0
AnchorPoint: "Anchor-12" 710 0 basechar 0
AnchorPoint: "Anchor-11" 1040 938 basechar 0
AnchorPoint: "Anchor-9" 886 -420 basechar 0
AnchorPoint: "Anchor-8" 1216 1900 basechar 0
AnchorPoint: "Anchor-7" 370 1137 basechar 0
AnchorPoint: "Anchor-6" 1130 821 basechar 0
AnchorPoint: "Anchor-3" 440 -15 basechar 0
AnchorPoint: "Anchor-2" 1130 1400 basechar 0
AnchorPoint: "Anchor-1" 770 1650 basechar 0
LayerCount: 2
Fore
SplineSet
381 1516 m 1,0,-1
 473 1516 l 1,1,-1
 307 735 l 1,2,-1
 311 735 l 1,3,4
 502 1049 502 1049 735 1049 c 0,5,6
 987 1049 987 1049 987 768 c 0,7,8
 987 737 987 737 958 573 c 1,9,-1
 838 0 l 1,10,-1
 745 0 l 1,11,-1
 866 588 l 2,12,13
 893 723 893 723 893 758 c 0,14,15
 893 965 893 965 717 965 c 0,16,17
 639 965 639 965 537.5 895 c 128,-1,18
 436 825 436 825 357 713 c 128,-1,19
 278 601 278 601 252 477 c 2,20,-1
 150 0 l 1,21,-1
 57 0 l 1,22,-1
 381 1516 l 1,0,-1
EndSplineSet
Substitution2: "SegoeUI-LightItalic-'smcp' Lowercase to Small Capitals lookup 18 subtable" H.c2sc
EndChar

StartChar: i
Encoding: 105 105 175
Width: 428
GlyphClass: 2
Flags: W
AnchorPoint: "Anchor-16" 180 2100 basechar 0
AnchorPoint: "Anchor-15" 710 2100 basechar 0
AnchorPoint: "Anchor-12" 180 0 basechar 0
AnchorPoint: "Anchor-11" 430 1025 basechar 0
AnchorPoint: "Anchor-10" 190 20 basechar 0
AnchorPoint: "Anchor-9" 383 -420 basechar 0
AnchorPoint: "Anchor-8" 713 1900 basechar 0
AnchorPoint: "Anchor-7" 229 550 basechar 0
AnchorPoint: "Anchor-6" 510 1020 basechar 0
AnchorPoint: "Anchor-3" 160 -15 basechar 0
AnchorPoint: "Anchor-2" 580 1550 basechar 0
AnchorPoint: "Anchor-1" 450 1650 basechar 0
LayerCount: 2
Fore
SplineSet
264 1024 m 1,0,-1
 357 1024 l 1,1,-1
 203 297 l 2,2,3
 179 177 179 177 179 123 c 0,4,5
 179 63 179 63 241 63 c 0,6,7
 284 63 284 63 326 80 c 1,8,-1
 309 3 l 1,9,10
 260 -20 260 -20 211 -20 c 0,11,12
 84 -20 84 -20 84 116 c 0,13,14
 84 163 84 163 92.5 210 c 128,-1,15
 101 257 101 257 264 1024 c 1,0,-1
381 1282 m 0,16,17
 350 1282 350 1282 327.5 1304 c 128,-1,18
 305 1326 305 1326 305 1360 c 0,19,20
 305 1392 305 1392 328 1413 c 128,-1,21
 351 1434 351 1434 381 1434 c 0,22,23
 412 1434 412 1434 435.5 1414 c 128,-1,24
 459 1394 459 1394 459 1360 c 0,25,26
 459 1328 459 1328 436 1305 c 128,-1,27
 413 1282 413 1282 381 1282 c 0,16,17
EndSplineSet
Substitution2: "SegoeUI-LightItalic-Single Substitution lookup 31 subtable" dotlessi
Substitution2: "SegoeUI-LightItalic-'sups' Superscript lookup 24 subtable" uni2071
Substitution2: "SegoeUI-LightItalic-'smcp' Lowercase to Small Capitals in Latin lookup 20 subtable" Idotaccent.c2sc
Substitution2: "SegoeUI-LightItalic-'smcp' Lowercase to Small Capitals lookup 19 subtable" I.c2sc
EndChar

StartChar: j
Encoding: 106 106 176
Width: 428
GlyphClass: 2
Flags: W
AnchorPoint: "Anchor-16" 180 2100 basechar 0
AnchorPoint: "Anchor-15" 672 2100 basechar 0
AnchorPoint: "Anchor-14" -20 -350 basechar 0
AnchorPoint: "Anchor-13" -20 -350 basechar 0
AnchorPoint: "Anchor-12" -160 -420 basechar 0
AnchorPoint: "Anchor-11" 430 1025 basechar 0
AnchorPoint: "Anchor-9" 383 -420 basechar 0
AnchorPoint: "Anchor-8" 713 1900 basechar 0
AnchorPoint: "Anchor-7" 228 495 basechar 0
AnchorPoint: "Anchor-6" 510 1016 basechar 0
AnchorPoint: "Anchor-3" -70 -470 basechar 0
AnchorPoint: "Anchor-2" 580 1550 basechar 0
AnchorPoint: "Anchor-1" 450 1650 basechar 0
LayerCount: 2
Fore
SplineSet
-391 -348 m 1,0,1
 -324 -397 -324 -397 -252 -397 c 0,2,3
 -127 -397 -127 -397 -58 -309 c 128,-1,4
 11 -221 11 -221 61 12 c 2,5,-1
 276 1024 l 1,6,-1
 369 1024 l 1,7,-1
 160 43 l 2,8,9
 100 -243 100 -243 3 -362 c 128,-1,10
 -94 -481 -94 -481 -264 -481 c 0,11,12
 -303 -481 -303 -481 -346.5 -469 c 128,-1,13
 -390 -457 -390 -457 -412 -442 c 1,14,-1
 -391 -348 l 1,0,1
391 1282 m 0,15,16
 360 1282 360 1282 337.5 1304 c 128,-1,17
 315 1326 315 1326 315 1360 c 0,18,19
 315 1392 315 1392 338 1413 c 128,-1,20
 361 1434 361 1434 391 1434 c 0,21,22
 422 1434 422 1434 445.5 1414 c 128,-1,23
 469 1394 469 1394 469 1360 c 0,24,25
 469 1328 469 1328 446 1305 c 128,-1,26
 423 1282 423 1282 391 1282 c 0,15,16
EndSplineSet
Substitution2: "SegoeUI-LightItalic-Single Substitution lookup 31 subtable" uni0237
Substitution2: "SegoeUI-LightItalic-'smcp' Lowercase to Small Capitals lookup 18 subtable" J.c2sc
EndChar

StartChar: k
Encoding: 107 107 177
Width: 891
GlyphClass: 2
Flags: W
AnchorPoint: "Anchor-16" 180 2100 basechar 0
AnchorPoint: "Anchor-15" 1184 2100 basechar 0
AnchorPoint: "Anchor-14" 730 0 basechar 0
AnchorPoint: "Anchor-13" 730 0 basechar 0
AnchorPoint: "Anchor-12" 640 0 basechar 0
AnchorPoint: "Anchor-11" 1000 1035 basechar 0
AnchorPoint: "Anchor-10" 359 -50 basechar 0
AnchorPoint: "Anchor-9" 917 -420 basechar 0
AnchorPoint: "Anchor-8" 1247 1900 basechar 0
AnchorPoint: "Anchor-7" 360 1061 basechar 0
AnchorPoint: "Anchor-6" 1060 1026 basechar 0
AnchorPoint: "Anchor-3" 440 -15 basechar 0
AnchorPoint: "Anchor-2" 1060 1400 basechar 0
AnchorPoint: "Anchor-1" 770 1650 basechar 0
LayerCount: 2
Fore
SplineSet
381 1516 m 1,0,-1
 473 1516 l 1,1,-1
 264 541 l 1,2,-1
 268 541 l 1,3,-1
 838 1024 l 1,4,-1
 969 1024 l 1,5,-1
 367 522 l 1,6,-1
 770 0 l 1,7,-1
 653 0 l 1,8,-1
 264 518 l 1,9,-1
 260 518 l 1,10,-1
 150 0 l 1,11,-1
 57 0 l 1,12,-1
 381 1516 l 1,0,-1
EndSplineSet
Substitution2: "SegoeUI-LightItalic-'smcp' Lowercase to Small Capitals lookup 18 subtable" K.c2sc
EndChar

StartChar: l
Encoding: 108 108 178
Width: 428
GlyphClass: 2
Flags: W
AnchorPoint: "Anchor-16" 180 2100 basechar 0
AnchorPoint: "Anchor-15" 710 2100 basechar 0
AnchorPoint: "Anchor-14" 280 0 basechar 0
AnchorPoint: "Anchor-13" 325 0 basechar 0
AnchorPoint: "Anchor-12" 180 0 basechar 0
AnchorPoint: "Anchor-11" 519 1522 basechar 0
AnchorPoint: "Anchor-10" 190 20 basechar 0
AnchorPoint: "Anchor-9" 389 -420 basechar 0
AnchorPoint: "Anchor-8" 719 1900 basechar 0
AnchorPoint: "Anchor-7" 260 761 basechar 0
AnchorPoint: "Anchor-6" 605 1513 basechar 0
AnchorPoint: "Anchor-3" 160 -15 basechar 0
AnchorPoint: "Anchor-2" 580 1600 basechar 0
AnchorPoint: "Anchor-1" 490 1650 basechar 0
LayerCount: 2
Fore
SplineSet
368 1516 m 1,0,-1
 461 1516 l 1,1,-1
 203 297 l 2,2,3
 179 177 179 177 179 123 c 0,4,5
 179 63 179 63 241 63 c 0,6,7
 284 63 284 63 326 80 c 1,8,-1
 309 3 l 1,9,10
 260 -20 260 -20 211 -20 c 0,11,12
 84 -20 84 -20 84 116 c 0,13,14
 84 161 84 161 97 232 c 128,-1,15
 110 303 110 303 368 1516 c 1,0,-1
EndSplineSet
Substitution2: "SegoeUI-LightItalic-'smcp' Lowercase to Small Capitals lookup 18 subtable" L.c2sc
EndChar

StartChar: m
Encoding: 109 109 179
Width: 1704
GlyphClass: 2
Flags: W
AnchorPoint: "Anchor-16" 180 2100 basechar 0
AnchorPoint: "Anchor-15" 1937 2100 basechar 0
AnchorPoint: "Anchor-14" 1415 0 basechar 0
AnchorPoint: "Anchor-13" 1410 0 basechar 0
AnchorPoint: "Anchor-12" 1320 0 basechar 0
AnchorPoint: "Anchor-11" 1670 888 basechar 0
AnchorPoint: "Anchor-9" 1503 -420 basechar 0
AnchorPoint: "Anchor-8" 1833 1900 basechar 0
AnchorPoint: "Anchor-7" 842 524 basechar 0
AnchorPoint: "Anchor-6" 1740 928 basechar 0
AnchorPoint: "Anchor-3" 740 -15 basechar 0
AnchorPoint: "Anchor-2" 1710 1200 basechar 0
AnchorPoint: "Anchor-1" 1070 1300 basechar 0
LayerCount: 2
Fore
SplineSet
260 1024 m 1,0,-1
 352 1024 l 1,1,-1
 303 733 l 1,2,-1
 307 733 l 1,3,4
 504 1049 504 1049 715 1049 c 0,5,6
 836 1049 836 1049 890 974.5 c 128,-1,7
 944 900 944 900 944 733 c 1,8,9
 1038 886 1038 886 1146 967.5 c 128,-1,10
 1254 1049 1254 1049 1360 1049 c 0,11,12
 1589 1049 1589 1049 1589 776 c 0,13,14
 1589 709 1589 709 1561 573 c 2,15,-1
 1440 0 l 1,16,-1
 1348 0 l 1,17,-1
 1468 588 l 2,18,19
 1495 728 1495 728 1495 775 c 0,20,21
 1495 965 1495 965 1341 965 c 0,22,23
 1262 965 1262 965 1167.5 892.5 c 128,-1,24
 1073 820 1073 820 996 703.5 c 128,-1,25
 919 587 919 587 897 481 c 2,26,-1
 795 0 l 1,27,-1
 702 0 l 1,28,-1
 823 588 l 2,29,30
 850 716 850 716 850 758 c 0,31,32
 850 858 850 858 815.5 911.5 c 128,-1,33
 781 965 781 965 696 965 c 0,34,35
 615 965 615 965 517.5 887.5 c 128,-1,36
 420 810 420 810 347 695.5 c 128,-1,37
 274 581 274 581 252 477 c 2,38,-1
 150 0 l 1,39,-1
 57 0 l 1,40,-1
 215 739 l 2,41,42
 250 909 250 909 260 1024 c 1,0,-1
EndSplineSet
Substitution2: "SegoeUI-LightItalic-'smcp' Lowercase to Small Capitals lookup 18 subtable" M.c2sc
EndChar

StartChar: n
Encoding: 110 110 180
Width: 1104
GlyphClass: 2
Flags: W
AnchorPoint: "Anchor-16" 180 2100 basechar 0
AnchorPoint: "Anchor-15" 1331 2100 basechar 0
AnchorPoint: "Anchor-14" 805 0 basechar 0
AnchorPoint: "Anchor-13" 805 0 basechar 0
AnchorPoint: "Anchor-12" 720 0 basechar 0
AnchorPoint: "Anchor-11" 1080 888 basechar 0
AnchorPoint: "Anchor-10" 429 -50 basechar 0
AnchorPoint: "Anchor-9" 896 -420 basechar 0
AnchorPoint: "Anchor-8" 1226 1900 basechar 0
AnchorPoint: "Anchor-7" 588 524 basechar 0
AnchorPoint: "Anchor-6" 1140 928 basechar 0
AnchorPoint: "Anchor-3" 440 -15 basechar 0
AnchorPoint: "Anchor-2" 1120 1200 basechar 0
AnchorPoint: "Anchor-1" 770 1300 basechar 0
LayerCount: 2
Fore
SplineSet
260 1024 m 1,0,-1
 352 1024 l 1,1,-1
 303 733 l 1,2,-1
 307 733 l 1,3,4
 502 1049 502 1049 735 1049 c 0,5,6
 866 1049 866 1049 927.5 982 c 128,-1,7
 989 915 989 915 989 774 c 0,8,9
 989 741 989 741 981 693 c 128,-1,10
 973 645 973 645 838 0 c 1,11,-1
 745 0 l 1,12,-1
 866 588 l 2,13,14
 893 723 893 723 893 758 c 0,15,16
 893 965 893 965 717 965 c 0,17,18
 639 965 639 965 537.5 895 c 128,-1,19
 436 825 436 825 357 713 c 128,-1,20
 278 601 278 601 252 477 c 2,21,-1
 150 0 l 1,22,-1
 57 0 l 1,23,-1
 215 739 l 2,24,25
 250 909 250 909 260 1024 c 1,0,-1
EndSplineSet
Substitution2: "SegoeUI-LightItalic-'sups' Superscript lookup 24 subtable" uni207F
Substitution2: "SegoeUI-LightItalic-'smcp' Lowercase to Small Capitals lookup 18 subtable" N.c2sc
EndChar

StartChar: o
Encoding: 111 111 181
Width: 1061
GlyphClass: 2
Flags: W
AnchorPoint: "Anchor-16" 180 2100 basechar 0
AnchorPoint: "Anchor-15" 1276 2100 basechar 0
AnchorPoint: "Anchor-12" 520 0 basechar 0
AnchorPoint: "Anchor-11" 1000 900 basechar 0
AnchorPoint: "Anchor-10" 450 -15 basechar 0
AnchorPoint: "Anchor-9" 868 -420 basechar 0
AnchorPoint: "Anchor-8" 1198 1900 basechar 0
AnchorPoint: "Anchor-7" 540 536 basechar 0
AnchorPoint: "Anchor-6" 1090 910 basechar 0
AnchorPoint: "Anchor-3" 450 -25 basechar 0
AnchorPoint: "Anchor-2" 1080 1200 basechar 0
AnchorPoint: "Anchor-1" 720 1300 basechar 0
LayerCount: 2
Fore
SplineSet
440 -25 m 0,0,1
 272 -25 272 -25 177 80 c 128,-1,2
 82 185 82 185 82 371 c 256,3,4
 82 557 82 557 154.5 715 c 128,-1,5
 227 873 227 873 351 961 c 128,-1,6
 475 1049 475 1049 623 1049 c 0,7,8
 793 1049 793 1049 886 943 c 128,-1,9
 979 837 979 837 979 655 c 0,10,11
 979 466 979 466 909 309 c 128,-1,12
 839 152 839 152 715 63.5 c 128,-1,13
 591 -25 591 -25 440 -25 c 0,0,1
449 59 m 0,14,15
 567 59 567 59 667 134.5 c 128,-1,16
 767 210 767 210 825 345.5 c 128,-1,17
 883 481 883 481 883 645 c 0,18,19
 883 802 883 802 812 883.5 c 128,-1,20
 741 965 741 965 612 965 c 0,21,22
 496 965 496 965 395 889 c 128,-1,23
 294 813 294 813 236 677.5 c 128,-1,24
 178 542 178 542 178 379 c 0,25,26
 178 228 178 228 250.5 143.5 c 128,-1,27
 323 59 323 59 449 59 c 0,14,15
EndSplineSet
Substitution2: "SegoeUI-LightItalic-'smcp' Lowercase to Small Capitals lookup 18 subtable" O.c2sc
EndChar

StartChar: p
Encoding: 112 112 182
Width: 1071
GlyphClass: 2
Flags: W
AnchorPoint: "Anchor-16" 180 2100 basechar 0
AnchorPoint: "Anchor-15" 1290 2100 basechar 0
AnchorPoint: "Anchor-14" 670 63 basechar 0
AnchorPoint: "Anchor-13" 670 63 basechar 0
AnchorPoint: "Anchor-12" -70 -480 basechar 0
AnchorPoint: "Anchor-11" 1020 903 basechar 0
AnchorPoint: "Anchor-9" 882 -420 basechar 0
AnchorPoint: "Anchor-8" 1212 1900 basechar 0
AnchorPoint: "Anchor-7" 570 495 basechar 0
AnchorPoint: "Anchor-6" 1100 943 basechar 0
AnchorPoint: "Anchor-3" 400 -470 basechar 0
AnchorPoint: "Anchor-2" 1080 1200 basechar 0
AnchorPoint: "Anchor-1" 720 1300 basechar 0
LayerCount: 2
Fore
SplineSet
240 1024 m 1,0,-1
 334 1024 l 1,1,2
 329 950 329 950 314 843 c 128,-1,3
 299 736 299 736 291 696 c 1,4,-1
 295 696 l 1,5,6
 389 870 389 870 491 959.5 c 128,-1,7
 593 1049 593 1049 711 1049 c 0,8,9
 848 1049 848 1049 918.5 955 c 128,-1,10
 989 861 989 861 989 682 c 0,11,12
 989 482 989 482 907.5 320.5 c 128,-1,13
 826 159 826 159 684 67 c 128,-1,14
 542 -25 542 -25 371 -25 c 0,15,16
 261 -25 261 -25 156 16 c 1,17,-1
 49 -481 l 1,18,-1
 -43 -481 l 1,19,-1
 207 700 l 2,20,21
 215 738 215 738 227.5 855.5 c 128,-1,22
 240 973 240 973 240 1024 c 1,0,-1
172 102 m 1,23,24
 262 59 262 59 385 59 c 0,25,26
 525 59 525 59 643 138 c 128,-1,27
 761 217 761 217 827 356.5 c 128,-1,28
 893 496 893 496 893 666 c 0,29,30
 893 814 893 814 843.5 889.5 c 128,-1,31
 794 965 794 965 686 965 c 0,32,33
 609 965 609 965 510.5 881.5 c 128,-1,34
 412 798 412 798 335.5 661 c 128,-1,35
 259 524 259 524 229 377 c 2,36,-1
 172 102 l 1,23,24
EndSplineSet
Substitution2: "SegoeUI-LightItalic-'smcp' Lowercase to Small Capitals lookup 18 subtable" P.c2sc
EndChar

StartChar: q
Encoding: 113 113 183
Width: 1071
GlyphClass: 2
Flags: W
AnchorPoint: "Anchor-16" 180 2100 basechar 0
AnchorPoint: "Anchor-15" 1290 2100 basechar 0
AnchorPoint: "Anchor-14" 660 -470 basechar 0
AnchorPoint: "Anchor-13" 650 -470 basechar 0
AnchorPoint: "Anchor-12" 570 -480 basechar 0
AnchorPoint: "Anchor-11" 1050 1027 basechar 0
AnchorPoint: "Anchor-9" 897 -420 basechar 0
AnchorPoint: "Anchor-8" 1227 1900 basechar 0
AnchorPoint: "Anchor-7" 510 531 basechar 0
AnchorPoint: "Anchor-6" 1140 1027 basechar 0
AnchorPoint: "Anchor-3" 400 -470 basechar 0
AnchorPoint: "Anchor-2" 1110 1200 basechar 0
AnchorPoint: "Anchor-1" 770 1300 basechar 0
LayerCount: 2
Fore
SplineSet
776 309 m 1,0,-1
 772 309 l 1,1,2
 592 -25 592 -25 365 -25 c 0,3,4
 227 -25 227 -25 154.5 69 c 128,-1,5
 82 163 82 163 82 342 c 0,6,7
 82 540 82 540 163.5 702.5 c 128,-1,8
 245 865 245 865 388 957 c 128,-1,9
 531 1049 531 1049 702 1049 c 0,10,11
 806 1049 806 1049 881 1031.5 c 128,-1,12
 956 1014 956 1014 1010 997 c 1,13,-1
 696 -481 l 1,14,-1
 604 -481 l 1,15,16
 728 100 728 100 776 309 c 1,0,-1
903 930 m 1,17,18
 790 965 790 965 688 965 c 0,19,20
 549 965 549 965 430.5 885.5 c 128,-1,21
 312 806 312 806 245 666.5 c 128,-1,22
 178 527 178 527 178 358 c 0,23,24
 178 210 178 210 226.5 134.5 c 128,-1,25
 275 59 275 59 383 59 c 0,26,27
 462 59 462 59 560 142 c 128,-1,28
 658 225 658 225 735.5 361.5 c 128,-1,29
 813 498 813 498 844 647 c 2,30,-1
 903 930 l 1,17,18
EndSplineSet
Substitution2: "SegoeUI-LightItalic-'smcp' Lowercase to Small Capitals lookup 18 subtable" Q.c2sc
EndChar

StartChar: r
Encoding: 114 114 184
Width: 684
GlyphClass: 2
Flags: W
AnchorPoint: "Anchor-16" 180 2100 basechar 0
AnchorPoint: "Anchor-15" 907 2100 basechar 0
AnchorPoint: "Anchor-14" 130 0 basechar 0
AnchorPoint: "Anchor-13" 120 0 basechar 0
AnchorPoint: "Anchor-12" 40 0 basechar 0
AnchorPoint: "Anchor-11" 820 1026 basechar 0
AnchorPoint: "Anchor-10" 110 0 basechar 0
AnchorPoint: "Anchor-9" 645 -420 basechar 0
AnchorPoint: "Anchor-8" 975 1900 basechar 0
AnchorPoint: "Anchor-7" 240 485 basechar 0
AnchorPoint: "Anchor-6" 880 1030 basechar 0
AnchorPoint: "Anchor-3" 100 -15 basechar 0
AnchorPoint: "Anchor-2" 850 1200 basechar 0
AnchorPoint: "Anchor-1" 620 1300 basechar 0
LayerCount: 2
Fore
SplineSet
260 1024 m 1,0,-1
 352 1024 l 1,1,-1
 315 782 l 1,2,-1
 319 782 l 1,3,4
 387 918 387 918 463.5 983.5 c 128,-1,5
 540 1049 540 1049 643 1049 c 0,6,7
 701 1049 701 1049 752 1024 c 1,8,-1
 735 930 l 1,9,-1
 731 930 l 1,10,11
 678 965 678 965 625 965 c 0,12,13
 513 965 513 965 404.5 821 c 128,-1,14
 296 677 296 677 248 453 c 2,15,-1
 152 0 l 1,16,-1
 59 0 l 1,17,-1
 201 665 l 2,18,19
 249 883 249 883 260 1024 c 1,0,-1
EndSplineSet
Substitution2: "SegoeUI-LightItalic-'smcp' Lowercase to Small Capitals lookup 18 subtable" R.c2sc
EndChar

StartChar: s
Encoding: 115 115 185
Width: 795
GlyphClass: 2
Flags: W
AnchorPoint: "Anchor-16" 180 2100 basechar 0
AnchorPoint: "Anchor-15" 989 2100 basechar 0
AnchorPoint: "Anchor-14" 500 80 basechar 0
AnchorPoint: "Anchor-13" 500 80 basechar 0
AnchorPoint: "Anchor-12" 310 0 basechar 0
AnchorPoint: "Anchor-11" 780 1011 basechar 0
AnchorPoint: "Anchor-10" 274 -15 basechar 0
AnchorPoint: "Anchor-9" 610 -420 basechar 0
AnchorPoint: "Anchor-8" 940 1900 basechar 0
AnchorPoint: "Anchor-7" 434 536 basechar 0
AnchorPoint: "Anchor-6" 850 1020 basechar 0
AnchorPoint: "Anchor-3" 280 -25 basechar 0
AnchorPoint: "Anchor-2" 840 1200 basechar 0
AnchorPoint: "Anchor-1" 550 1300 basechar 0
LayerCount: 2
Fore
SplineSet
47 143 m 1,0,1
 98 105 98 105 164 82 c 128,-1,2
 230 59 230 59 293 59 c 0,3,4
 411 59 411 59 475 108 c 128,-1,5
 539 157 539 157 539 254 c 0,6,7
 539 318 539 318 503 363 c 128,-1,8
 467 408 467 408 369 469 c 0,9,10
 252 541 252 541 206 602 c 128,-1,11
 160 663 160 663 160 750 c 0,12,13
 160 878 160 878 254.5 963.5 c 128,-1,14
 349 1049 349 1049 494 1049 c 0,15,16
 547 1049 547 1049 617 1035 c 128,-1,17
 687 1021 687 1021 733 997 c 1,18,-1
 713 901 l 1,19,20
 615 965 615 965 485 965 c 0,21,22
 386 965 386 965 321 909.5 c 128,-1,23
 256 854 256 854 256 762 c 0,24,25
 256 691 256 691 291.5 646 c 128,-1,26
 327 601 327 601 424 543 c 0,27,28
 538 474 538 474 586.5 410.5 c 128,-1,29
 635 347 635 347 635 264 c 0,30,31
 635 132 635 132 540.5 53.5 c 128,-1,32
 446 -25 446 -25 287 -25 c 0,33,34
 140 -25 140 -25 27 45 c 1,35,-1
 47 143 l 1,0,1
EndSplineSet
Substitution2: "SegoeUI-LightItalic-'smcp' Lowercase to Small Capitals lookup 18 subtable" S.c2sc
EndChar

StartChar: t
Encoding: 116 116 186
Width: 608
GlyphClass: 2
Flags: W
AnchorPoint: "Anchor-16" 180 2100 basechar 0
AnchorPoint: "Anchor-15" 842 2100 basechar 0
AnchorPoint: "Anchor-14" 420 0 basechar 0
AnchorPoint: "Anchor-13" 410 0 basechar 0
AnchorPoint: "Anchor-12" 260 -15 basechar 0
AnchorPoint: "Anchor-11" 680 1027 basechar 0
AnchorPoint: "Anchor-10" 297 0 basechar 0
AnchorPoint: "Anchor-9" 571 -420 basechar 0
AnchorPoint: "Anchor-8" 901 1900 basechar 0
AnchorPoint: "Anchor-7" 300 539 basechar 0
AnchorPoint: "Anchor-6" 800 1022 basechar 0
AnchorPoint: "Anchor-3" 234 -25 basechar 0
AnchorPoint: "Anchor-2" 640 1400 basechar 0
AnchorPoint: "Anchor-1" 480 1500 basechar 0
LayerCount: 2
Fore
SplineSet
285 940 m 1,0,-1
 98 940 l 1,1,-1
 117 1024 l 1,2,-1
 301 1024 l 1,3,-1
 358 1290 l 1,4,-1
 457 1321 l 1,5,-1
 393 1024 l 1,6,-1
 668 1024 l 1,7,-1
 647 940 l 1,8,-1
 377 940 l 1,9,-1
 240 297 l 2,10,11
 221 202 221 202 221 160 c 0,12,13
 221 112 221 112 241 87.5 c 128,-1,14
 261 63 261 63 309 63 c 0,15,16
 352 63 352 63 471 115 c 1,17,-1
 451 27 l 1,18,19
 414 7 414 7 365 -6.5 c 128,-1,20
 316 -20 316 -20 289 -20 c 0,21,22
 127 -20 127 -20 127 154 c 0,23,24
 127 217 127 217 147 301 c 2,25,-1
 285 940 l 1,0,-1
EndSplineSet
Substitution2: "SegoeUI-LightItalic-'smcp' Lowercase to Small Capitals lookup 18 subtable" T.c2sc
EndChar

StartChar: u
Encoding: 117 117 187
Width: 1104
GlyphClass: 2
Flags: W
AnchorPoint: "Anchor-16" 180 2100 basechar 0
AnchorPoint: "Anchor-15" 1323 2100 basechar 0
AnchorPoint: "Anchor-14" 790 0 basechar 0
AnchorPoint: "Anchor-13" 790 0 basechar 0
AnchorPoint: "Anchor-12" 720 0 basechar 0
AnchorPoint: "Anchor-11" 1100 1020 basechar 0
AnchorPoint: "Anchor-10" 379 -15 basechar 0
AnchorPoint: "Anchor-9" 937 -420 basechar 0
AnchorPoint: "Anchor-8" 1267 1900 basechar 0
AnchorPoint: "Anchor-7" 560 524 basechar 0
AnchorPoint: "Anchor-6" 1170 1020 basechar 0
AnchorPoint: "Anchor-3" 400 -25 basechar 0
AnchorPoint: "Anchor-2" 1130 1200 basechar 0
AnchorPoint: "Anchor-1" 700 1300 basechar 0
LayerCount: 2
Fore
SplineSet
266 1024 m 1,0,-1
 358 1024 l 1,1,-1
 238 436 l 2,2,3
 211 301 211 301 211 266 c 0,4,5
 211 59 211 59 387 59 c 0,6,7
 472 59 472 59 572.5 134 c 128,-1,8
 673 209 673 209 752.5 327.5 c 128,-1,9
 832 446 832 446 852 547 c 2,10,-1
 954 1024 l 1,11,-1
 1047 1024 l 1,12,-1
 889 285 l 2,13,14
 854 115 854 115 844 0 c 1,15,-1
 752 0 l 1,16,-1
 801 291 l 1,17,-1
 797 291 l 1,18,19
 602 -25 602 -25 369 -25 c 0,20,21
 115 -25 115 -25 115 256 c 0,22,23
 115 276 115 276 121.5 324 c 128,-1,24
 128 372 128 372 266 1024 c 1,0,-1
EndSplineSet
Substitution2: "SegoeUI-LightItalic-'smcp' Lowercase to Small Capitals lookup 18 subtable" U.c2sc
EndChar

StartChar: v
Encoding: 118 118 188
Width: 928
GlyphClass: 2
Flags: W
AnchorPoint: "Anchor-16" 180 2100 basechar 0
AnchorPoint: "Anchor-15" 1149 2100 basechar 0
AnchorPoint: "Anchor-14" 365 0 basechar 0
AnchorPoint: "Anchor-13" 365 0 basechar 0
AnchorPoint: "Anchor-12" 290 0 basechar 0
AnchorPoint: "Anchor-11" 1060 1024 basechar 0
AnchorPoint: "Anchor-9" 909 -420 basechar 0
AnchorPoint: "Anchor-8" 1239 1900 basechar 0
AnchorPoint: "Anchor-7" 535 620 basechar 0
AnchorPoint: "Anchor-6" 1110 1024 basechar 0
AnchorPoint: "Anchor-3" 350 -15 basechar 0
AnchorPoint: "Anchor-2" 1110 1200 basechar 0
AnchorPoint: "Anchor-1" 620 1300 basechar 0
LayerCount: 2
Fore
SplineSet
139 1024 m 1,0,-1
 233 1024 l 1,1,-1
 367 215 l 2,2,3
 377 159 377 159 377 109 c 1,4,-1
 381 109 l 1,5,-1
 412 175 l 1,6,-1
 909 1024 l 1,7,-1
 1014 1024 l 1,8,-1
 401 0 l 1,9,-1
 317 0 l 1,10,-1
 139 1024 l 1,0,-1
EndSplineSet
Substitution2: "SegoeUI-LightItalic-'smcp' Lowercase to Small Capitals lookup 18 subtable" V.c2sc
EndChar

StartChar: w
Encoding: 119 119 189
Width: 1386
GlyphClass: 2
Flags: W
AnchorPoint: "Anchor-16" 180 2100 basechar 0
AnchorPoint: "Anchor-15" 1655 2100 basechar 0
AnchorPoint: "Anchor-14" 905 0 basechar 0
AnchorPoint: "Anchor-13" 940 0 basechar 0
AnchorPoint: "Anchor-12" 810 0 basechar 0
AnchorPoint: "Anchor-11" 1510 1024 basechar 0
AnchorPoint: "Anchor-9" 1398 -420 basechar 0
AnchorPoint: "Anchor-8" 1728 1900 basechar 0
AnchorPoint: "Anchor-7" 740 512 basechar 0
AnchorPoint: "Anchor-6" 1580 1024 basechar 0
AnchorPoint: "Anchor-3" 605 -15 basechar 0
AnchorPoint: "Anchor-2" 1600 1200 basechar 0
AnchorPoint: "Anchor-1" 935 1300 basechar 0
LayerCount: 2
Fore
SplineSet
141 1024 m 1,0,-1
 236 1024 l 1,1,-1
 302 196 l 1,2,-1
 302 184 l 1,3,-1
 302 172 l 1,4,-1
 299 121 l 1,5,-1
 307 121 l 1,6,7
 316 158 316 158 342 207 c 2,8,-1
 776 1024 l 1,9,-1
 838 1024 l 1,10,-1
 899 178 l 1,11,-1
 895 121 l 1,12,-1
 903 121 l 1,13,-1
 919 165 l 1,14,-1
 938 207 l 1,15,-1
 1356 1024 l 1,16,-1
 1456 1024 l 1,17,-1
 918 0 l 1,18,-1
 836 0 l 1,19,-1
 773 766 l 1,20,-1
 771 817 l 1,21,-1
 774 858 l 1,22,-1
 770 858 l 1,23,-1
 763 841 l 1,24,-1
 319 0 l 1,25,-1
 236 0 l 1,26,-1
 141 1024 l 1,0,-1
EndSplineSet
Substitution2: "SegoeUI-LightItalic-'smcp' Lowercase to Small Capitals lookup 18 subtable" W.c2sc
EndChar

StartChar: x
Encoding: 120 120 190
Width: 883
GlyphClass: 2
Flags: W
AnchorPoint: "Anchor-16" 180 2100 basechar 0
AnchorPoint: "Anchor-15" 1112 2100 basechar 0
AnchorPoint: "Anchor-12" 570 0 basechar 0
AnchorPoint: "Anchor-11" 980 1024 basechar 0
AnchorPoint: "Anchor-9" 868 -420 basechar 0
AnchorPoint: "Anchor-8" 1198 1900 basechar 0
AnchorPoint: "Anchor-7" 470 512 basechar 0
AnchorPoint: "Anchor-6" 1040 1024 basechar 0
AnchorPoint: "Anchor-3" 320 -15 basechar 0
AnchorPoint: "Anchor-2" 1060 1200 basechar 0
AnchorPoint: "Anchor-1" 610 1300 basechar 0
LayerCount: 2
Fore
SplineSet
387 504 m 1,0,-1
 158 1024 l 1,1,-1
 260 1024 l 1,2,-1
 412 657 l 1,3,-1
 446 565 l 1,4,-1
 451 565 l 1,5,-1
 502 633 l 1,6,-1
 834 1024 l 1,7,-1
 948 1024 l 1,8,-1
 485 498 l 1,9,-1
 717 0 l 1,10,-1
 608 0 l 1,11,-1
 461 348 l 1,12,-1
 426 436 l 1,13,-1
 422 436 l 1,14,-1
 371 370 l 1,15,-1
 55 0 l 1,16,-1
 -66 0 l 1,17,-1
 387 504 l 1,0,-1
EndSplineSet
Substitution2: "SegoeUI-LightItalic-'smcp' Lowercase to Small Capitals lookup 18 subtable" X.c2sc
EndChar

StartChar: y
Encoding: 121 121 191
Width: 928
GlyphClass: 2
Flags: W
AnchorPoint: "Anchor-16" 180 2100 basechar 0
AnchorPoint: "Anchor-15" 1171 2100 basechar 0
AnchorPoint: "Anchor-12" -10 -440 basechar 0
AnchorPoint: "Anchor-11" 1080 1036 basechar 0
AnchorPoint: "Anchor-9" 944 -420 basechar 0
AnchorPoint: "Anchor-8" 1274 1900 basechar 0
AnchorPoint: "Anchor-7" 495 602 basechar 0
AnchorPoint: "Anchor-6" 1140 1020 basechar 0
AnchorPoint: "Anchor-3" 355 -470 basechar 0
AnchorPoint: "Anchor-2" 1140 1200 basechar 0
AnchorPoint: "Anchor-1" 625 1300 basechar 0
LayerCount: 2
Fore
SplineSet
-147 -371 m 1,0,1
 -116 -389 -116 -389 -74 -389 c 0,2,3
 -5 -389 -5 -389 53 -348 c 128,-1,4
 111 -307 111 -307 178 -201 c 2,5,-1
 313 14 l 1,6,-1
 133 1024 l 1,7,-1
 227 1024 l 1,8,-1
 373 195 l 1,9,-1
 381 119 l 1,10,-1
 385 119 l 1,11,-1
 395 136 l 1,12,-1
 936 1024 l 1,13,-1
 1044 1024 l 1,14,-1
 289 -190 l 2,15,16
 186 -355 186 -355 107.5 -418 c 128,-1,17
 29 -481 29 -481 -80 -481 c 0,18,19
 -137 -481 -137 -481 -168 -465 c 1,20,-1
 -147 -371 l 1,0,1
EndSplineSet
Substitution2: "SegoeUI-LightItalic-'smcp' Lowercase to Small Capitals lookup 18 subtable" Y.c2sc
EndChar

StartChar: z
Encoding: 122 122 192
Width: 950
GlyphClass: 2
Flags: W
AnchorPoint: "Anchor-16" 180 2100 basechar 0
AnchorPoint: "Anchor-15" 1106 2100 basechar 0
AnchorPoint: "Anchor-14" 680 0 basechar 0
AnchorPoint: "Anchor-13" 680 0 basechar 0
AnchorPoint: "Anchor-12" 520 0 basechar 0
AnchorPoint: "Anchor-11" 980 1024 basechar 0
AnchorPoint: "Anchor-9" 841 -420 basechar 0
AnchorPoint: "Anchor-8" 1171 1900 basechar 0
AnchorPoint: "Anchor-7" 463 512 basechar 0
AnchorPoint: "Anchor-6" 1100 1024 basechar 0
AnchorPoint: "Anchor-3" 300 -15 basechar 0
AnchorPoint: "Anchor-2" 1030 1200 basechar 0
AnchorPoint: "Anchor-1" 660 1300 basechar 0
LayerCount: 2
Fore
SplineSet
825 940 m 1,0,-1
 197 940 l 1,1,-1
 215 1024 l 1,2,-1
 1001 1024 l 1,3,-1
 995 991 l 1,4,-1
 117 84 l 1,5,-1
 778 84 l 1,6,-1
 760 0 l 1,7,-1
 -51 0 l 1,8,-1
 -43 43 l 1,9,-1
 825 940 l 1,0,-1
EndSplineSet
Substitution2: "SegoeUI-LightItalic-'smcp' Lowercase to Small Capitals lookup 18 subtable" Z.c2sc
EndChar

StartChar: braceleft
Encoding: 123 123 193
Width: 588
GlyphClass: 2
Flags: W
LayerCount: 2
Fore
SplineSet
201 375 m 0,0,1
 201 510 201 510 80 535 c 1,2,-1
 94 598 l 1,3,4
 192 615 192 615 237 663.5 c 128,-1,5
 282 712 282 712 307 831 c 2,6,-1
 373 1137 l 2,7,8
 407 1294 407 1294 480 1361.5 c 128,-1,9
 553 1429 553 1429 686 1432 c 1,10,-1
 672 1360 l 1,11,12
 582 1356 582 1356 534.5 1301 c 128,-1,13
 487 1246 487 1246 463 1130 c 2,14,-1
 399 831 l 2,15,16
 374 715 374 715 326.5 652 c 128,-1,17
 279 589 279 589 195 563 c 1,18,-1
 195 559 l 1,19,20
 241 544 241 544 268 499.5 c 128,-1,21
 295 455 295 455 295 383 c 0,22,23
 295 337 295 337 283 283 c 2,24,-1
 223 2 l 2,25,26
 207 -73 207 -73 207 -113 c 0,27,28
 207 -165 207 -165 233.5 -199 c 128,-1,29
 260 -233 260 -233 332 -240 c 1,30,-1
 317 -309 l 1,31,32
 115 -293 115 -293 115 -113 c 0,33,34
 115 -80 115 -80 127 -20 c 2,35,-1
 188 274 l 2,36,37
 201 342 201 342 201 375 c 0,0,1
EndSplineSet
Position2: "SegoeUI-LightItalic-'case' Case-Sensitive Forms lookup 3 subtable" dx=30 dy=140 dh=0 dv=0
EndChar

StartChar: bar
Encoding: 124 124 194
Width: 463
GlyphClass: 2
Flags: W
LayerCount: 2
Fore
SplineSet
184 1567 m 1,0,-1
 279 1567 l 1,1,-1
 279 -481 l 1,2,-1
 184 -481 l 1,3,-1
 184 1567 l 1,0,-1
EndSplineSet
EndChar

StartChar: braceright
Encoding: 125 125 195
Width: 588
GlyphClass: 2
Flags: W
LayerCount: 2
Fore
SplineSet
393 559 m 1,0,-1
 393 563 l 1,1,2
 293 598 293 598 293 739 c 0,3,4
 293 784 293 784 305 840 c 2,5,-1
 365 1120 l 2,6,7
 381 1195 381 1195 381 1235 c 0,8,9
 381 1289 381 1289 354.5 1322.5 c 128,-1,10
 328 1356 328 1356 256 1362 c 1,11,-1
 270 1432 l 1,12,13
 473 1415 473 1415 473 1235 c 0,14,15
 473 1203 473 1203 461 1143 c 2,16,-1
 399 848 l 2,17,18
 387 792 387 792 387 748 c 0,19,20
 387 612 387 612 508 588 c 1,21,-1
 494 524 l 1,22,23
 396 508 396 508 351 457.5 c 128,-1,24
 306 407 306 407 281 291 c 2,25,-1
 215 -14 l 2,26,27
 181 -171 181 -171 108 -238.5 c 128,-1,28
 35 -306 35 -306 -98 -309 c 1,29,-1
 -84 -238 l 1,30,31
 4 -232 4 -232 52.5 -178.5 c 128,-1,32
 101 -125 101 -125 125 -8 c 2,33,-1
 188 291 l 2,34,35
 213 411 213 411 261 471.5 c 128,-1,36
 309 532 309 532 393 559 c 1,0,-1
EndSplineSet
Position2: "SegoeUI-LightItalic-'case' Case-Sensitive Forms lookup 3 subtable" dx=30 dy=140 dh=0 dv=0
EndChar

StartChar: asciitilde
Encoding: 126 126 196
Width: 1331
GlyphClass: 2
Flags: W
LayerCount: 2
Fore
SplineSet
266 479 m 1,0,1
 272 592 272 592 334 656.5 c 128,-1,2
 396 721 396 721 500 721 c 0,3,4
 593 721 593 721 694 641 c 0,5,6
 767 582 767 582 799 566.5 c 128,-1,7
 831 551 831 551 879 551 c 0,8,9
 945 551 945 551 984 593 c 128,-1,10
 1023 635 1023 635 1030 711 c 1,11,-1
 1108 711 l 1,12,13
 1102 596 1102 596 1039.5 532.5 c 128,-1,14
 977 469 977 469 874 469 c 0,15,16
 777 469 777 469 674 553 c 0,17,18
 614 602 614 602 577.5 619.5 c 128,-1,19
 541 637 541 637 498 637 c 0,20,21
 356 637 356 637 344 479 c 1,22,-1
 266 479 l 1,0,1
EndSplineSet
EndChar

StartChar: Aring
Encoding: 197 197 198
Width: 1206
GlyphClass: 2
Flags: W
AnchorPoint: "Anchor-16" 180 2100 basechar 0
AnchorPoint: "Anchor-15" 1474 2100 basechar 0
AnchorPoint: "Anchor-12" 975 0 basechar 0
AnchorPoint: "Anchor-9" 1026 -420 basechar 0
AnchorPoint: "Anchor-8" 1356 2100 basechar 0
AnchorPoint: "Anchor-3" 480 -15 basechar 0
AnchorPoint: "Anchor-2" 1255 1660 basechar 0
AnchorPoint: "Anchor-1" 850 1920 basechar 0
LayerCount: 2
Fore
SplineSet
717 1380 m 1,0,1
 598 1422 598 1422 598 1550 c 0,2,3
 598 1629 598 1629 656 1682 c 128,-1,4
 714 1735 714 1735 799 1735 c 0,5,6
 883 1735 883 1735 941 1681.5 c 128,-1,7
 999 1628 999 1628 999 1550 c 0,8,9
 999 1489 999 1489 959.5 1440 c 128,-1,10
 920 1391 920 1391 850 1372 c 1,11,-1
 1073 0 l 1,12,-1
 973 0 l 1,13,-1
 901 446 l 1,14,-1
 285 446 l 1,15,-1
 20 0 l 1,16,-1
 -84 0 l 1,17,-1
 717 1380 l 1,0,1
799 1434 m 0,18,19
 856 1434 856 1434 892 1466 c 128,-1,20
 928 1498 928 1498 928 1550 c 0,21,22
 928 1604 928 1604 893.5 1635.5 c 128,-1,23
 859 1667 859 1667 799 1667 c 0,24,25
 742 1667 742 1667 707 1635.5 c 128,-1,26
 672 1604 672 1604 672 1550 c 0,27,28
 672 1498 672 1498 708 1466 c 128,-1,29
 744 1434 744 1434 799 1434 c 0,18,19
889 537 m 1,30,-1
 786 1200 l 2,31,32
 778 1252 778 1252 776 1309 c 1,33,-1
 772 1309 l 1,34,35
 757 1276 757 1276 751.5 1266 c 128,-1,36
 746 1256 746 1256 334 537 c 1,37,-1
 889 537 l 1,30,-1
EndSplineSet
Substitution2: "SegoeUI-LightItalic-'c2sc' Capitals to Small Capitals lookup 17 subtable" Aring.c2sc
Position2: "SegoeUI-LightItalic-'cpsp' Capital Spacing lookup 0 subtable" dx=36 dy=0 dh=72 dv=0
EndChar

StartChar: dagger
Encoding: 8224 8224 229
Width: 764
GlyphClass: 2
Flags: W
LayerCount: 2
Fore
SplineSet
442 1014 m 1,0,-1
 184 1014 l 1,1,-1
 203 1098 l 1,2,-1
 461 1098 l 1,3,-1
 528 1419 l 1,4,-1
 621 1419 l 1,5,-1
 553 1098 l 1,6,-1
 811 1098 l 1,7,-1
 793 1014 l 1,8,-1
 535 1014 l 1,9,-1
 375 256 l 1,10,-1
 283 256 l 1,11,-1
 442 1014 l 1,0,-1
EndSplineSet
EndChar

StartChar: degree
Encoding: 176 176 230
Width: 791
GlyphClass: 2
Flags: W
LayerCount: 2
Fore
SplineSet
539 930 m 0,0,1
 434 930 434 930 359.5 1004.5 c 128,-1,2
 285 1079 285 1079 285 1184 c 0,3,4
 285 1286 285 1286 359 1360 c 128,-1,5
 433 1434 433 1434 535 1434 c 0,6,7
 638 1434 638 1434 713 1361 c 128,-1,8
 788 1288 788 1288 788 1184 c 256,9,10
 788 1080 788 1080 714.5 1005 c 128,-1,11
 641 930 641 930 539 930 c 0,0,1
535 1006 m 0,12,13
 603 1006 603 1006 654 1058 c 128,-1,14
 705 1110 705 1110 705 1184 c 0,15,16
 705 1255 705 1255 657 1306.5 c 128,-1,17
 609 1358 609 1358 539 1358 c 0,18,19
 468 1358 468 1358 417.5 1306 c 128,-1,20
 367 1254 367 1254 367 1184 c 0,21,22
 367 1112 367 1112 415 1059 c 128,-1,23
 463 1006 463 1006 535 1006 c 0,12,13
EndSplineSet
EndChar

StartChar: cent
Encoding: 162 162 231
Width: 1055
GlyphClass: 2
Flags: W
LayerCount: 2
Fore
SplineSet
494 162 m 1,0,1
 358 184 358 184 277.5 292 c 128,-1,2
 197 400 197 400 197 561 c 0,3,4
 197 743 197 743 269.5 893.5 c 128,-1,5
 342 1044 342 1044 463 1132.5 c 128,-1,6
 584 1221 584 1221 721 1229 c 1,7,-1
 760 1405 l 1,8,-1
 852 1405 l 1,9,-1
 813 1225 l 1,10,11
 928 1211 928 1211 1008 1159 c 1,12,-1
 983 1057 l 1,13,14
 917 1128 917 1128 795 1143 c 1,15,-1
 602 242 l 1,16,17
 726 253 726 253 850 346 c 1,18,-1
 825 231 l 1,19,20
 701 162 701 162 584 156 c 1,21,-1
 539 -57 l 1,22,-1
 446 -57 l 1,23,-1
 494 162 l 1,0,1
705 1143 m 1,24,25
 591 1131 591 1131 495 1049.5 c 128,-1,26
 399 968 399 968 344 838 c 128,-1,27
 289 708 289 708 289 565 c 0,28,29
 289 435 289 435 348.5 350.5 c 128,-1,30
 408 266 408 266 512 246 c 1,31,-1
 705 1143 l 1,24,25
EndSplineSet
EndChar

StartChar: sterling
Encoding: 163 163 232
Width: 1055
GlyphClass: 2
Flags: W
LayerCount: 2
Fore
SplineSet
393 662 m 1,0,-1
 166 662 l 1,1,-1
 184 752 l 1,2,-1
 412 752 l 1,3,-1
 475 1042 l 2,4,5
 520 1244 520 1244 632 1351 c 128,-1,6
 744 1458 744 1458 907 1458 c 0,7,8
 1013 1458 1013 1458 1100 1419 c 1,9,-1
 1079 1327 l 1,10,11
 1051 1346 1051 1346 1004 1360 c 128,-1,12
 957 1374 957 1374 903 1374 c 0,13,14
 771 1374 771 1374 684.5 1286.5 c 128,-1,15
 598 1199 598 1199 563 1030 c 2,16,-1
 504 752 l 1,17,-1
 811 752 l 1,18,-1
 793 662 l 1,19,-1
 485 662 l 1,20,-1
 440 457 l 2,21,22
 380 181 380 181 164 84 c 1,23,-1
 891 84 l 1,24,-1
 872 0 l 1,25,-1
 4 0 l 1,26,-1
 23 86 l 1,27,28
 291 180 291 180 348 451 c 2,29,-1
 393 662 l 1,0,-1
EndSplineSet
EndChar

StartChar: section
Encoding: 167 167 233
Width: 918
GlyphClass: 2
Flags: W
LayerCount: 2
Fore
SplineSet
72 84 m 1,0,1
 118 56 118 56 179 37 c 128,-1,2
 240 18 240 18 285 18 c 0,3,4
 526 18 526 18 526 217 c 0,5,6
 526 284 526 284 493 334 c 128,-1,7
 460 384 460 384 367 444 c 0,8,9
 276 503 276 503 237.5 569.5 c 128,-1,10
 199 636 199 636 199 715 c 0,11,12
 199 816 199 816 256.5 891 c 128,-1,13
 314 966 314 966 436 1030 c 1,14,15
 416 1057 416 1057 400.5 1104 c 128,-1,16
 385 1151 385 1151 385 1180 c 0,17,18
 385 1321 385 1321 478.5 1406 c 128,-1,19
 572 1491 572 1491 729 1491 c 0,20,21
 827 1491 827 1491 918 1456 c 1,22,-1
 899 1360 l 1,23,24
 817 1407 817 1407 715 1407 c 0,25,26
 603 1407 603 1407 542 1351.5 c 128,-1,27
 481 1296 481 1296 481 1196 c 0,28,29
 481 1127 481 1127 522 1073.5 c 128,-1,30
 563 1020 563 1020 645 967 c 0,31,32
 815 857 815 857 815 694 c 0,33,34
 815 591 815 591 752 512 c 128,-1,35
 689 433 689 433 569 387 c 1,36,37
 598 352 598 352 610.5 308.5 c 128,-1,38
 623 265 623 265 623 231 c 0,39,40
 623 91 623 91 531 12.5 c 128,-1,41
 439 -66 439 -66 274 -66 c 0,42,43
 155 -66 155 -66 55 -18 c 1,44,-1
 72 84 l 1,0,1
520 444 m 1,45,46
 616 478 616 478 667.5 539.5 c 128,-1,47
 719 601 719 601 719 680 c 0,48,49
 719 747 719 747 683 802 c 128,-1,50
 647 857 647 857 569 909 c 2,51,-1
 485 969 l 1,52,53
 295 886 295 886 295 723 c 0,54,55
 295 657 295 657 324 610.5 c 128,-1,56
 353 564 353 564 436 506 c 2,57,-1
 520 444 l 1,45,46
EndSplineSet
EndChar

StartChar: bullet
Encoding: 8226 8226 234
Width: 801
GlyphClass: 2
Flags: W
LayerCount: 2
Fore
SplineSet
172 635 m 256,0,1
 172 740 172 740 248.5 816.5 c 128,-1,2
 325 893 325 893 430 893 c 0,3,4
 534 893 534 893 610 817 c 128,-1,5
 686 741 686 741 686 635 c 0,6,7
 686 531 686 531 610 455 c 128,-1,8
 534 379 534 379 428 379 c 0,9,10
 323 379 323 379 247.5 454.5 c 128,-1,11
 172 530 172 530 172 635 c 256,0,1
EndSplineSet
EndChar

StartChar: paragraph
Encoding: 182 182 235
Width: 971
GlyphClass: 2
Flags: W
LayerCount: 2
Fore
SplineSet
442 903 m 1,0,1
 337 903 337 903 265 979 c 128,-1,2
 193 1055 193 1055 193 1167 c 0,3,4
 193 1283 193 1283 266.5 1358.5 c 128,-1,5
 340 1434 340 1434 449 1434 c 2,6,-1
 944 1434 l 1,7,-1
 944 1348 l 1,8,-1
 813 1348 l 1,9,-1
 813 0 l 1,10,-1
 727 0 l 1,11,-1
 727 1348 l 1,12,-1
 528 1348 l 1,13,-1
 528 0 l 1,14,-1
 442 0 l 1,15,-1
 442 903 l 1,0,1
EndSplineSet
EndChar

StartChar: germandbls
Encoding: 223 223 236
Width: 1085
GlyphClass: 2
Flags: W
AnchorPoint: "Anchor-16" 180 2100 basechar 0
AnchorPoint: "Anchor-15" 1286 2100 basechar 0
AnchorPoint: "Anchor-12" 559 0 basechar 0
AnchorPoint: "Anchor-9" 927 -420 basechar 0
AnchorPoint: "Anchor-8" 1257 1900 basechar 0
AnchorPoint: "Anchor-3" 407 -25 basechar 0
AnchorPoint: "Anchor-2" 1254 1538 basechar 0
AnchorPoint: "Anchor-1" 737 1698 basechar 0
LayerCount: 2
Fore
SplineSet
727 1540 m 0,0,1
 862 1540 862 1540 944 1454.5 c 128,-1,2
 1026 1369 1026 1369 1026 1233 c 0,3,4
 1026 1089 1026 1089 932 972.5 c 128,-1,5
 838 856 838 856 680 813 c 1,6,-1
 680 809 l 1,7,8
 812 773 812 773 885 675.5 c 128,-1,9
 958 578 958 578 958 430 c 0,10,11
 958 224 958 224 827.5 99.5 c 128,-1,12
 697 -25 697 -25 483 -25 c 0,13,14
 447 -25 447 -25 389.5 -14.5 c 128,-1,15
 332 -4 332 -4 319 0 c 1,16,-1
 340 94 l 1,17,18
 431 59 431 59 492 59 c 0,19,20
 659 59 659 59 758.5 157.5 c 128,-1,21
 858 256 858 256 858 420 c 0,22,23
 858 577 858 577 775 662 c 128,-1,24
 692 747 692 747 520 772 c 1,25,-1
 535 852 l 1,26,27
 721 880 721 880 823.5 978 c 128,-1,28
 926 1076 926 1076 926 1223 c 0,29,30
 926 1326 926 1326 871 1391 c 128,-1,31
 816 1456 816 1456 721 1456 c 0,32,33
 458 1456 458 1456 385 1110 c 2,34,-1
 150 0 l 1,35,-1
 57 0 l 1,36,-1
 297 1124 l 2,37,38
 386 1540 386 1540 727 1540 c 0,0,1
EndSplineSet
Substitution2: "SegoeUI-LightItalic-'smcp' Lowercase to Small Capitals lookup 18 subtable" uni1E9E.c2sc
EndChar

StartChar: registered
Encoding: 174 174 238
Width: 1804
GlyphClass: 2
Flags: W
LayerCount: 2
Fore
SplineSet
897 255 m 256,0,1
 647 255 647 255 471.5 430 c 128,-1,2
 296 605 296 605 296 853 c 0,3,4
 296 1104 296 1104 472.5 1279 c 128,-1,5
 649 1454 649 1454 896 1454 c 0,6,7
 1144 1454 1144 1454 1321 1278.5 c 128,-1,8
 1498 1103 1498 1103 1498 856 c 0,9,10
 1498 606 1498 606 1322.5 430.5 c 128,-1,11
 1147 255 1147 255 897 255 c 256,0,1
893 1386 m 0,12,13
 677 1386 677 1386 522.5 1229.5 c 128,-1,14
 368 1073 368 1073 368 853 c 0,15,16
 368 635 368 635 521.5 479 c 128,-1,17
 675 323 675 323 893 323 c 0,18,19
 1113 323 1113 323 1269.5 479 c 128,-1,20
 1426 635 1426 635 1426 853 c 0,21,22
 1426 1073 1426 1073 1269 1229.5 c 128,-1,23
 1112 1386 1112 1386 893 1386 c 0,12,13
1087 482 m 1,24,-1
 995 679 l 2,25,26
 955 765 955 765 917.5 794.5 c 128,-1,27
 880 824 880 824 833 824 c 2,28,-1
 756 824 l 1,29,-1
 756 482 l 1,30,-1
 674 482 l 1,31,-1
 674 1254 l 1,32,-1
 885 1254 l 2,33,34
 1013 1254 1013 1254 1082 1198.5 c 128,-1,35
 1151 1143 1151 1143 1151 1051 c 0,36,37
 1151 874 1151 874 949 837 c 1,38,-1
 949 834 l 1,39,40
 1017 820 1017 820 1077 694 c 2,41,-1
 1179 482 l 1,42,-1
 1087 482 l 1,24,-1
756 1191 m 1,43,-1
 756 888 l 1,44,-1
 895 888 l 2,45,46
 973 888 973 888 1020 928 c 128,-1,47
 1067 968 1067 968 1067 1038 c 0,48,49
 1067 1191 1067 1191 876 1191 c 2,50,-1
 756 1191 l 1,43,-1
EndSplineSet
EndChar

StartChar: copyright
Encoding: 169 169 239
Width: 1927
GlyphClass: 2
Flags: W
LayerCount: 2
Fore
SplineSet
256 715 m 0,0,1
 256 917 256 917 356 1087.5 c 128,-1,2
 456 1258 456 1258 630 1358 c 128,-1,3
 804 1458 804 1458 1001 1458 c 0,4,5
 1201 1458 1201 1458 1374.5 1358 c 128,-1,6
 1548 1258 1548 1258 1648.5 1084.5 c 128,-1,7
 1749 911 1749 911 1749 717 c 0,8,9
 1749 513 1749 513 1647.5 342 c 128,-1,10
 1546 171 1546 171 1373.5 73 c 128,-1,11
 1201 -25 1201 -25 1004 -25 c 0,12,13
 808 -25 808 -25 636 70.5 c 128,-1,14
 464 166 464 166 360 338 c 128,-1,15
 256 510 256 510 256 715 c 0,0,1
1001 51 m 0,16,17
 1179 51 1179 51 1331.5 138.5 c 128,-1,18
 1484 226 1484 226 1576.5 382 c 128,-1,19
 1669 538 1669 538 1669 715 c 0,20,21
 1669 891 1669 891 1579 1045 c 128,-1,22
 1489 1199 1489 1199 1334 1290.5 c 128,-1,23
 1179 1382 1179 1382 1001 1382 c 0,24,25
 827 1382 827 1382 675 1295.5 c 128,-1,26
 523 1209 523 1209 429.5 1052.5 c 128,-1,27
 336 896 336 896 336 715 c 0,28,29
 336 535 336 535 427 380.5 c 128,-1,30
 518 226 518 226 672 138.5 c 128,-1,31
 826 51 826 51 1001 51 c 0,16,17
1282 270 m 1,32,33
 1212 233 1212 233 1159 216 c 128,-1,34
 1106 199 1106 199 1032 199 c 0,35,36
 821 199 821 199 679 341.5 c 128,-1,37
 537 484 537 484 537 702 c 0,38,39
 537 852 537 852 601.5 972 c 128,-1,40
 666 1092 666 1092 782.5 1158.5 c 128,-1,41
 899 1225 899 1225 1043 1225 c 0,42,43
 1098 1225 1098 1225 1170 1209 c 128,-1,44
 1242 1193 1242 1193 1278 1171 c 1,45,-1
 1278 1085 l 1,46,47
 1239 1109 1239 1109 1167.5 1126 c 128,-1,48
 1096 1143 1096 1143 1027 1143 c 0,49,50
 917 1143 917 1143 826 1089.5 c 128,-1,51
 735 1036 735 1036 682 937.5 c 128,-1,52
 629 839 629 839 629 722 c 0,53,54
 629 527 629 527 746.5 405 c 128,-1,55
 864 283 864 283 1042 283 c 0,56,57
 1106 283 1106 283 1172 302 c 128,-1,58
 1238 321 1238 321 1282 350 c 1,59,-1
 1282 270 l 1,32,33
EndSplineSet
EndChar

StartChar: trademark
Encoding: 8482 8482 240
Width: 1585
GlyphClass: 2
Flags: W
LayerCount: 2
Fore
SplineSet
803 1434 m 1,0,-1
 918 1434 l 1,1,-1
 1141 889 l 1,2,-1
 1145 889 l 1,3,-1
 1378 1434 l 1,4,-1
 1487 1434 l 1,5,-1
 1487 772 l 1,6,-1
 1405 772 l 1,7,-1
 1405 1305 l 1,8,-1
 1401 1305 l 1,9,-1
 1174 772 l 1,10,-1
 1106 772 l 1,11,-1
 889 1305 l 1,12,-1
 885 1305 l 1,13,-1
 885 772 l 1,14,-1
 803 772 l 1,15,-1
 803 1434 l 1,0,-1
401 1356 m 1,16,-1
 180 1356 l 1,17,-1
 180 1434 l 1,18,-1
 707 1434 l 1,19,-1
 707 1356 l 1,20,-1
 483 1356 l 1,21,-1
 483 772 l 1,22,-1
 401 772 l 1,23,-1
 401 1356 l 1,16,-1
EndSplineSet
EndChar

StartChar: acute
Encoding: 180 180 241
Width: 614
GlyphClass: 2
Flags: W
LayerCount: 2
Fore
SplineSet
604 1516 m 1,0,-1
 715 1516 l 1,1,-1
 412 1188 l 1,2,-1
 315 1188 l 1,3,-1
 604 1516 l 1,0,-1
EndSplineSet
EndChar

StartChar: dieresis
Encoding: 168 168 242
Width: 614
GlyphClass: 2
Flags: W
LayerCount: 2
Fore
SplineSet
559 1260 m 0,0,1
 559 1291 559 1291 581 1310 c 128,-1,2
 603 1329 603 1329 629 1329 c 0,3,4
 658 1329 658 1329 681.5 1309.5 c 128,-1,5
 705 1290 705 1290 705 1260 c 0,6,7
 705 1229 705 1229 683.5 1208.5 c 128,-1,8
 662 1188 662 1188 631 1188 c 0,9,10
 602 1188 602 1188 580.5 1207.5 c 128,-1,11
 559 1227 559 1227 559 1260 c 0,0,1
225 1260 m 0,12,13
 225 1291 225 1291 247 1310 c 128,-1,14
 269 1329 269 1329 295 1329 c 0,15,16
 324 1329 324 1329 347.5 1309.5 c 128,-1,17
 371 1290 371 1290 371 1260 c 0,18,19
 371 1229 371 1229 349.5 1208.5 c 128,-1,20
 328 1188 328 1188 297 1188 c 0,21,22
 268 1188 268 1188 246.5 1207.5 c 128,-1,23
 225 1227 225 1227 225 1260 c 0,12,13
EndSplineSet
EndChar

StartChar: notequal
Encoding: 8800 8800 243
Width: 1331
GlyphClass: 2
Flags: W
LayerCount: 2
Fore
SplineSet
526 362 m 1,0,-1
 244 362 l 1,1,-1
 244 446 l 1,2,-1
 569 446 l 1,3,-1
 725 750 l 1,4,-1
 244 750 l 1,5,-1
 244 834 l 1,6,-1
 770 834 l 1,7,-1
 952 1188 l 1,8,-1
 1042 1188 l 1,9,-1
 860 834 l 1,10,-1
 1151 834 l 1,11,-1
 1151 750 l 1,12,-1
 817 750 l 1,13,-1
 659 446 l 1,14,-1
 1151 446 l 1,15,-1
 1151 362 l 1,16,-1
 616 362 l 1,17,-1
 430 0 l 1,18,-1
 338 0 l 1,19,-1
 526 362 l 1,0,-1
EndSplineSet
EndChar

StartChar: AE
Encoding: 198 198 244
Width: 1636
GlyphClass: 2
Flags: W
AnchorPoint: "Anchor-16" 180 2100 basechar 0
AnchorPoint: "Anchor-15" 1931 2100 basechar 0
AnchorPoint: "Anchor-12" 1300 0 basechar 0
AnchorPoint: "Anchor-9" 1683 -420 basechar 0
AnchorPoint: "Anchor-8" 2013 1900 basechar 0
AnchorPoint: "Anchor-3" 830 -15 basechar 0
AnchorPoint: "Anchor-2" 1942 1500 basechar 0
AnchorPoint: "Anchor-1" 1220 1600 basechar 0
LayerCount: 2
Fore
SplineSet
889 1434 m 1,0,-1
 1696 1434 l 1,1,-1
 1675 1337 l 1,2,-1
 1104 1337 l 1,3,-1
 983 766 l 1,4,-1
 1513 766 l 1,5,-1
 1495 676 l 1,6,-1
 965 676 l 1,7,-1
 840 90 l 1,8,-1
 1444 90 l 1,9,-1
 1425 0 l 1,10,-1
 723 0 l 1,11,-1
 817 446 l 1,12,-1
 315 446 l 1,13,-1
 2 0 l 1,14,-1
 -115 0 l 1,15,-1
 889 1434 l 1,0,-1
836 537 m 1,16,-1
 1008 1337 l 1,17,-1
 926 1337 l 1,18,-1
 377 537 l 1,19,-1
 836 537 l 1,16,-1
EndSplineSet
Substitution2: "SegoeUI-LightItalic-'c2sc' Capitals to Small Capitals lookup 17 subtable" AE.c2sc
Position2: "SegoeUI-LightItalic-'cpsp' Capital Spacing lookup 0 subtable" dx=36 dy=0 dh=72 dv=0
EndChar

StartChar: Oslash
Encoding: 216 216 245
Width: 1544
GlyphClass: 2
Flags: W
AnchorPoint: "Anchor-16" 180 2100 basechar 0
AnchorPoint: "Anchor-15" 1724 2100 basechar 0
AnchorPoint: "Anchor-12" 680 -15 basechar 0
AnchorPoint: "Anchor-9" 1400 -420 basechar 0
AnchorPoint: "Anchor-8" 1730 1900 basechar 0
AnchorPoint: "Anchor-3" 600 -25 basechar 0
AnchorPoint: "Anchor-2" 1600 1660 basechar 0
AnchorPoint: "Anchor-1" 950 1600 basechar 0
LayerCount: 2
Fore
SplineSet
246 217 m 1,0,1
 152 371 152 371 152 594 c 0,2,3
 152 837 152 837 251 1034.5 c 128,-1,4
 350 1232 350 1232 529.5 1345 c 128,-1,5
 709 1458 709 1458 922 1458 c 0,6,7
 1182 1458 1182 1458 1331 1300 c 1,8,-1
 1503 1475 l 1,9,-1
 1563 1417 l 1,10,-1
 1382 1237 l 1,11,12
 1489 1079 1489 1079 1489 846 c 0,13,14
 1489 598 1489 598 1393 399 c 128,-1,15
 1297 200 1297 200 1120.5 87.5 c 128,-1,16
 944 -25 944 -25 725 -25 c 0,17,18
 443 -25 443 -25 295 150 c 1,19,-1
 119 -27 l 1,20,-1
 57 29 l 1,21,-1
 246 217 l 1,0,1
1260 1229 m 1,22,23
 1133 1368 1133 1368 920 1368 c 0,24,25
 727 1368 727 1368 574 1269.5 c 128,-1,26
 421 1171 421 1171 337.5 994 c 128,-1,27
 254 817 254 817 254 596 c 0,28,29
 254 415 254 415 319 291 c 1,30,-1
 1260 1229 l 1,22,23
367 221 m 1,31,32
 492 66 492 66 729 66 c 0,33,34
 923 66 923 66 1072.5 163.5 c 128,-1,35
 1222 261 1222 261 1304 437.5 c 128,-1,36
 1386 614 1386 614 1386 840 c 0,37,38
 1386 1033 1386 1033 1307 1163 c 1,39,-1
 367 221 l 1,31,32
EndSplineSet
Substitution2: "SegoeUI-LightItalic-'c2sc' Capitals to Small Capitals lookup 17 subtable" Oslash.c2sc
Position2: "SegoeUI-LightItalic-'cpsp' Capital Spacing lookup 0 subtable" dx=36 dy=0 dh=72 dv=0
EndChar

StartChar: infinity
Encoding: 8734 8734 246
Width: 1673
GlyphClass: 2
Flags: W
LayerCount: 2
Fore
SplineSet
866 512 m 1,0,1
 789 376 789 376 685.5 297.5 c 128,-1,2
 582 219 582 219 479 219 c 0,3,4
 319 219 319 219 221 323 c 128,-1,5
 123 427 123 427 123 592 c 0,6,7
 123 749 123 749 227.5 861 c 128,-1,8
 332 973 332 973 479 973 c 0,9,10
 600 973 600 973 699 896 c 128,-1,11
 798 819 798 819 868 680 c 1,12,13
 945 815 945 815 1049.5 894 c 128,-1,14
 1154 973 1154 973 1257 973 c 0,15,16
 1415 973 1415 973 1514.5 870 c 128,-1,17
 1614 767 1614 767 1614 600 c 0,18,19
 1614 441 1614 441 1508.5 330 c 128,-1,20
 1403 219 1403 219 1257 219 c 0,21,22
 1022 219 1022 219 866 512 c 1,0,1
907 596 m 1,23,24
 980 445 980 445 1065.5 373 c 128,-1,25
 1151 301 1151 301 1257 301 c 0,26,27
 1379 301 1379 301 1453.5 383.5 c 128,-1,28
 1528 466 1528 466 1528 600 c 0,29,30
 1528 724 1528 724 1451 808.5 c 128,-1,31
 1374 893 1374 893 1257 893 c 0,32,33
 1154 893 1154 893 1070 818.5 c 128,-1,34
 986 744 986 744 907 596 c 1,23,24
829 596 m 1,35,36
 757 747 757 747 672 820 c 128,-1,37
 587 893 587 893 479 893 c 0,38,39
 358 893 358 893 282.5 809.5 c 128,-1,40
 207 726 207 726 207 592 c 0,41,42
 207 466 207 466 283.5 383.5 c 128,-1,43
 360 301 360 301 479 301 c 0,44,45
 582 301 582 301 666.5 374.5 c 128,-1,46
 751 448 751 448 829 596 c 1,35,36
EndSplineSet
EndChar

StartChar: plusminus
Encoding: 177 177 247
Width: 1331
GlyphClass: 2
Flags: W
LayerCount: 2
Fore
SplineSet
233 717 m 1,0,-1
 645 717 l 1,1,-1
 645 1128 l 1,2,-1
 729 1128 l 1,3,-1
 729 717 l 1,4,-1
 1141 717 l 1,5,-1
 1141 633 l 1,6,-1
 729 633 l 1,7,-1
 729 221 l 1,8,-1
 645 221 l 1,9,-1
 645 633 l 1,10,-1
 233 633 l 1,11,-1
 233 717 l 1,0,-1
233 84 m 1,12,-1
 1141 84 l 1,13,-1
 1141 0 l 1,14,-1
 233 0 l 1,15,-1
 233 84 l 1,12,-1
EndSplineSet
EndChar

StartChar: lessequal
Encoding: 8804 8804 248
Width: 1331
GlyphClass: 2
Flags: W
LayerCount: 2
Fore
SplineSet
281 690 m 1,0,-1
 1114 1157 l 1,1,-1
 1114 1063 l 1,2,-1
 436 684 l 1,3,-1
 436 680 l 1,4,-1
 1114 346 l 1,5,-1
 1114 250 l 1,6,-1
 281 672 l 1,7,-1
 281 690 l 1,0,-1
244 147 m 1,8,-1
 1151 147 l 1,9,-1
 1151 63 l 1,10,-1
 244 63 l 1,11,-1
 244 147 l 1,8,-1
EndSplineSet
EndChar

StartChar: greaterequal
Encoding: 8805 8805 249
Width: 1331
GlyphClass: 2
Flags: W
LayerCount: 2
Fore
SplineSet
281 346 m 1,0,-1
 958 680 l 1,1,-1
 958 684 l 1,2,-1
 281 1063 l 1,3,-1
 281 1157 l 1,4,-1
 1114 690 l 1,5,-1
 1114 672 l 1,6,-1
 281 250 l 1,7,-1
 281 346 l 1,0,-1
244 147 m 1,8,-1
 1151 147 l 1,9,-1
 1151 63 l 1,10,-1
 244 63 l 1,11,-1
 244 147 l 1,8,-1
EndSplineSet
EndChar

StartChar: yen
Encoding: 165 165 250
Width: 1055
GlyphClass: 2
Flags: W
LayerCount: 2
Fore
SplineSet
438 332 m 1,0,-1
 66 332 l 1,1,-1
 84 416 l 1,2,-1
 457 416 l 1,3,-1
 508 662 l 1,4,-1
 135 662 l 1,5,-1
 154 745 l 1,6,-1
 496 745 l 1,7,-1
 264 1434 l 1,8,-1
 360 1434 l 1,9,-1
 547 860 l 2,10,11
 558 827 558 827 571 766 c 1,12,-1
 582 766 l 1,13,-1
 595 787 l 1,14,-1
 645 864 l 1,15,-1
 1071 1434 l 1,16,-1
 1176 1434 l 1,17,-1
 647 745 l 1,18,-1
 991 745 l 1,19,-1
 973 662 l 1,20,-1
 600 662 l 1,21,-1
 549 416 l 1,22,-1
 922 416 l 1,23,-1
 903 332 l 1,24,-1
 530 332 l 1,25,-1
 461 0 l 1,26,-1
 369 0 l 1,27,-1
 438 332 l 1,0,-1
EndSplineSet
EndChar

StartChar: partialdiff
Encoding: 8706 8706 252
Width: 1065
GlyphClass: 2
Flags: W
LayerCount: 2
Fore
SplineSet
649 1485 m 0,0,1
 832 1485 832 1485 928 1356 c 128,-1,2
 1024 1227 1024 1227 1024 971 c 0,3,4
 1024 719 1024 719 949.5 479 c 128,-1,5
 875 239 875 239 741 107 c 128,-1,6
 607 -25 607 -25 438 -25 c 0,7,8
 284 -25 284 -25 198.5 70.5 c 128,-1,9
 113 166 113 166 113 342 c 0,10,11
 113 524 113 524 181.5 680.5 c 128,-1,12
 250 837 250 837 375.5 930.5 c 128,-1,13
 501 1024 501 1024 643 1024 c 0,14,15
 836 1024 836 1024 919 821 c 1,16,-1
 924 821 l 1,17,18
 932 871 932 871 932 969 c 0,19,20
 932 1189 932 1189 860.5 1295 c 128,-1,21
 789 1401 789 1401 637 1401 c 0,22,23
 518 1401 518 1401 401 1317 c 1,24,-1
 424 1419 l 1,25,26
 539 1485 539 1485 649 1485 c 0,0,1
905 705 m 1,27,28
 876 814 876 814 804.5 876 c 128,-1,29
 733 938 733 938 635 938 c 0,30,31
 524 938 524 938 425 861 c 128,-1,32
 326 784 326 784 267.5 647 c 128,-1,33
 209 510 209 510 209 346 c 0,34,35
 209 210 209 210 273.5 134.5 c 128,-1,36
 338 59 338 59 446 59 c 0,37,38
 611 59 611 59 738.5 236.5 c 128,-1,39
 866 414 866 414 905 705 c 1,27,28
EndSplineSet
EndChar

StartChar: summation
Encoding: 8721 8721 253
Width: 1251
GlyphClass: 2
Flags: W
LayerCount: 2
Fore
SplineSet
68 -436 m 1,0,-1
 788 489 l 1,1,-1
 129 1386 l 1,2,-1
 129 1434 l 1,3,-1
 1184 1434 l 1,4,-1
 1184 1343 l 1,5,-1
 281 1343 l 1,6,-1
 907 492 l 1,7,-1
 231 -381 l 1,8,-1
 1247 -381 l 1,9,-1
 1247 -471 l 1,10,-1
 68 -471 l 1,11,-1
 68 -436 l 1,0,-1
EndSplineSet
EndChar

StartChar: product
Encoding: 8719 8719 254
Width: 1530
GlyphClass: 2
Flags: W
LayerCount: 2
Fore
SplineSet
221 1434 m 1,0,-1
 1372 1434 l 1,1,-1
 1372 -471 l 1,2,-1
 1274 -471 l 1,3,-1
 1274 1343 l 1,4,-1
 319 1343 l 1,5,-1
 319 -471 l 1,6,-1
 221 -471 l 1,7,-1
 221 1434 l 1,0,-1
EndSplineSet
EndChar

StartChar: integral
Encoding: 8747 8747 255
Width: 1055
GlyphClass: 2
Flags: W
LayerCount: 2
Fore
SplineSet
211 -383 m 1,0,1
 246 -412 246 -412 324 -412 c 0,2,3
 512 -412 512 -412 512 -158 c 2,4,-1
 512 1202 l 1,5,-1
 512 1215 l 2,6,7
 512 1356 512 1356 589.5 1444 c 128,-1,8
 667 1532 667 1532 797 1532 c 0,9,10
 866 1532 866 1532 905 1513 c 1,11,-1
 905 1419 l 1,12,13
 870 1448 870 1448 793 1448 c 0,14,15
 604 1448 604 1448 604 1194 c 2,16,-1
 604 -166 l 1,17,-1
 604 -179 l 2,18,19
 604 -320 604 -320 526.5 -408 c 128,-1,20
 449 -496 449 -496 319 -496 c 0,21,22
 250 -496 250 -496 211 -477 c 1,23,-1
 211 -383 l 1,0,1
EndSplineSet
EndChar

StartChar: ordfeminine
Encoding: 170 170 256
Width: 813
GlyphClass: 2
Flags: W
LayerCount: 2
Fore
SplineSet
637 717 m 1,0,1
 641 797 641 797 662 915 c 1,2,-1
 659 915 l 1,3,4
 601 814 601 814 535 757 c 128,-1,5
 469 700 469 700 383 700 c 0,6,7
 287 700 287 700 236.5 768 c 128,-1,8
 186 836 186 836 186 963 c 0,9,10
 186 1102 186 1102 244 1215 c 128,-1,11
 302 1328 302 1328 404 1393 c 128,-1,12
 506 1458 506 1458 623 1458 c 0,13,14
 722 1458 722 1458 844 1432 c 1,15,-1
 748 965 l 2,16,17
 717 817 717 817 717 717 c 1,18,-1
 637 717 l 1,0,1
758 1370 m 1,19,20
 654 1386 654 1386 610 1386 c 0,21,22
 461 1386 461 1386 363.5 1267 c 128,-1,23
 266 1148 266 1148 266 971 c 0,24,25
 266 774 266 774 401 774 c 0,26,27
 456 774 456 774 520.5 825.5 c 128,-1,28
 585 877 585 877 635 964 c 128,-1,29
 685 1051 685 1051 709 1153 c 2,30,-1
 758 1370 l 1,19,20
EndSplineSet
EndChar

StartChar: ordmasculine
Encoding: 186 186 257
Width: 915
GlyphClass: 2
Flags: W
LayerCount: 2
Fore
SplineSet
518 696 m 0,0,1
 392 696 392 696 321 773 c 128,-1,2
 250 850 250 850 250 987 c 0,3,4
 250 1196 250 1196 358.5 1325 c 128,-1,5
 467 1454 467 1454 641 1454 c 0,6,7
 763 1454 763 1454 835 1375.5 c 128,-1,8
 907 1297 907 1297 907 1165 c 0,9,10
 907 953 907 953 800 824.5 c 128,-1,11
 693 696 693 696 518 696 c 0,0,1
524 774 m 0,12,13
 660 774 660 774 739.5 879.5 c 128,-1,14
 819 985 819 985 819 1155 c 0,15,16
 819 1263 819 1263 769.5 1320.5 c 128,-1,17
 720 1378 720 1378 633 1378 c 0,18,19
 498 1378 498 1378 418 1273 c 128,-1,20
 338 1168 338 1168 338 997 c 0,21,22
 338 891 338 891 386 832.5 c 128,-1,23
 434 774 434 774 524 774 c 0,12,13
EndSplineSet
EndChar

StartChar: Omega
Encoding: 8486 8486 258
Width: 1546
GlyphClass: 2
Flags: W
LayerCount: 2
Fore
SplineSet
20 90 m 1,0,-1
 379 90 l 1,1,2
 143 298 143 298 143 612 c 0,3,4
 143 852 143 852 247 1046.5 c 128,-1,5
 351 1241 351 1241 533.5 1349.5 c 128,-1,6
 716 1458 716 1458 934 1458 c 0,7,8
 1105 1458 1105 1458 1241 1385.5 c 128,-1,9
 1377 1313 1377 1313 1452.5 1182.5 c 128,-1,10
 1528 1052 1528 1052 1528 891 c 0,11,12
 1528 647 1528 647 1393.5 435.5 c 128,-1,13
 1259 224 1259 224 1016 90 c 1,14,-1
 1360 90 l 1,15,-1
 1341 0 l 1,16,-1
 864 0 l 1,17,-1
 883 90 l 1,18,19
 1138 220 1138 220 1279.5 426.5 c 128,-1,20
 1421 633 1421 633 1421 885 c 0,21,22
 1421 1096 1421 1096 1284 1232 c 128,-1,23
 1147 1368 1147 1368 932 1368 c 0,24,25
 739 1368 739 1368 581.5 1270.5 c 128,-1,26
 424 1173 424 1173 336 999.5 c 128,-1,27
 248 826 248 826 248 616 c 0,28,29
 248 445 248 445 301 334.5 c 128,-1,30
 354 224 354 224 498 90 c 1,31,-1
 479 0 l 1,32,-1
 2 0 l 1,33,-1
 20 90 l 1,0,-1
EndSplineSet
EndChar

StartChar: ae
Encoding: 230 230 259
Width: 1671
GlyphClass: 2
Flags: W
AnchorPoint: "Anchor-16" 180 2100 basechar 0
AnchorPoint: "Anchor-15" 1872 2100 basechar 0
AnchorPoint: "Anchor-12" 1300 39 basechar 0
AnchorPoint: "Anchor-9" 1505 -420 basechar 0
AnchorPoint: "Anchor-8" 1835 1900 basechar 0
AnchorPoint: "Anchor-6" 1770 910 basechar 0
AnchorPoint: "Anchor-3" 720 -25 basechar 0
AnchorPoint: "Anchor-2" 1800 1200 basechar 0
AnchorPoint: "Anchor-1" 1040 1300 basechar 0
LayerCount: 2
Fore
SplineSet
797 391 m 1,0,1
 691 172 691 172 582.5 73.5 c 128,-1,2
 474 -25 474 -25 340 -25 c 0,3,4
 212 -25 212 -25 147 67 c 128,-1,5
 82 159 82 159 82 332 c 0,6,7
 82 528 82 528 168.5 694 c 128,-1,8
 255 860 255 860 407.5 954.5 c 128,-1,9
 560 1049 560 1049 741 1049 c 0,10,11
 835 1049 835 1049 903 1030.5 c 128,-1,12
 971 1012 971 1012 1047 969 c 1,13,14
 1166 1049 1166 1049 1321 1049 c 0,15,16
 1457 1049 1457 1049 1543.5 981.5 c 128,-1,17
 1630 914 1630 914 1630 803 c 0,18,19
 1630 629 1630 629 1457 547 c 128,-1,20
 1284 465 1284 465 893 461 c 1,21,-1
 891 430 l 1,22,-1
 891 399 l 2,23,24
 891 234 891 234 970.5 146.5 c 128,-1,25
 1050 59 1050 59 1200 59 c 0,26,27
 1328 59 1328 59 1481 143 c 1,28,-1
 1462 47 l 1,29,30
 1333 -25 1333 -25 1186 -25 c 0,31,32
 1000 -25 1000 -25 900.5 85.5 c 128,-1,33
 801 196 801 196 801 391 c 1,34,-1
 797 391 l 1,0,1
899 545 m 1,35,36
 1223 545 1223 545 1378.5 603 c 128,-1,37
 1534 661 1534 661 1534 793 c 0,38,39
 1534 874 1534 874 1476 919.5 c 128,-1,40
 1418 965 1418 965 1309 965 c 0,41,42
 1145 965 1145 965 1036.5 855 c 128,-1,43
 928 745 928 745 899 545 c 1,35,36
981 913 m 1,44,45
 880 965 880 965 729 965 c 0,46,47
 572 965 572 965 444 882.5 c 128,-1,48
 316 800 316 800 244 655 c 128,-1,49
 172 510 172 510 172 342 c 0,50,51
 172 204 172 204 216.5 131.5 c 128,-1,52
 261 59 261 59 348 59 c 0,53,54
 489 59 489 59 605.5 202.5 c 128,-1,55
 722 346 722 346 806 582 c 0,56,57
 891 825 891 825 981 913 c 1,44,45
EndSplineSet
Substitution2: "SegoeUI-LightItalic-'smcp' Lowercase to Small Capitals lookup 18 subtable" AE.c2sc
EndChar

StartChar: oslash
Encoding: 248 248 260
Width: 1061
GlyphClass: 2
Flags: W
AnchorPoint: "Anchor-16" 180 2100 basechar 0
AnchorPoint: "Anchor-15" 1276 2100 basechar 0
AnchorPoint: "Anchor-12" 510 0 basechar 0
AnchorPoint: "Anchor-9" 1026 -420 basechar 0
AnchorPoint: "Anchor-8" 1356 1900 basechar 0
AnchorPoint: "Anchor-6" 1120 760 basechar 0
AnchorPoint: "Anchor-3" 450 -25 basechar 0
AnchorPoint: "Anchor-2" 1200 1360 basechar 0
AnchorPoint: "Anchor-1" 700 1300 basechar 0
LayerCount: 2
Fore
SplineSet
-61 -8 m 1,0,-1
 121 168 l 1,1,2
 82 256 82 256 82 371 c 0,3,4
 82 557 82 557 154.5 715 c 128,-1,5
 227 873 227 873 351 961 c 128,-1,6
 475 1049 475 1049 623 1049 c 0,7,8
 808 1049 808 1049 903 924 c 1,9,-1
 1087 1102 l 1,10,-1
 1145 1044 l 1,11,-1
 944 850 l 1,12,13
 979 765 979 765 979 655 c 0,14,15
 979 466 979 466 909 309 c 128,-1,16
 839 152 839 152 715 63.5 c 128,-1,17
 591 -25 591 -25 440 -25 c 0,18,19
 258 -25 258 -25 164 96 c 1,20,-1
 -6 -68 l 1,21,-1
 -61 -8 l 1,0,-1
831 854 m 1,22,23
 760 965 760 965 612 965 c 0,24,25
 496 965 496 965 395 889 c 128,-1,26
 294 813 294 813 236 677.5 c 128,-1,27
 178 542 178 542 178 379 c 0,28,29
 178 299 178 299 197 242 c 1,30,-1
 831 854 l 1,22,23
233 166 m 1,31,32
 308 59 308 59 449 59 c 0,33,34
 567 59 567 59 667 134.5 c 128,-1,35
 767 210 767 210 825 345.5 c 128,-1,36
 883 481 883 481 883 645 c 0,37,38
 883 714 883 714 866 776 c 1,39,-1
 233 166 l 1,31,32
EndSplineSet
Substitution2: "SegoeUI-LightItalic-'smcp' Lowercase to Small Capitals lookup 18 subtable" Oslash.c2sc
EndChar

StartChar: questiondown
Encoding: 191 191 261
Width: 756
GlyphClass: 2
Flags: W
LayerCount: 2
Fore
SplineSet
518 881 m 256,0,1
 484 881 484 881 460 903.5 c 128,-1,2
 436 926 436 926 436 961 c 0,3,4
 436 995 436 995 460 1018.5 c 128,-1,5
 484 1042 484 1042 518 1042 c 256,6,7
 552 1042 552 1042 575 1018.5 c 128,-1,8
 598 995 598 995 598 961 c 0,9,10
 598 926 598 926 575 903.5 c 128,-1,11
 552 881 552 881 518 881 c 256,0,1
250 -434 m 0,12,13
 109 -434 109 -434 25 -349.5 c 128,-1,14
 -59 -265 -59 -265 -59 -131 c 0,15,16
 -59 -4 -59 -4 2.5 95 c 128,-1,17
 64 194 64 194 211 299 c 0,18,19
 283 349 283 349 318 385 c 128,-1,20
 353 421 353 421 372.5 463 c 128,-1,21
 392 505 392 505 416 621 c 1,22,-1
 506 621 l 1,23,24
 479 468 479 468 429 389 c 128,-1,25
 379 310 379 310 264 231 c 0,26,27
 140 146 140 146 88.5 66 c 128,-1,28
 37 -14 37 -14 37 -121 c 0,29,30
 37 -226 37 -226 96.5 -288 c 128,-1,31
 156 -350 156 -350 262 -350 c 0,32,33
 383 -350 383 -350 532 -272 c 1,34,-1
 514 -373 l 1,35,36
 371 -434 371 -434 250 -434 c 0,12,13
EndSplineSet
Position2: "SegoeUI-LightItalic-'case' Case-Sensitive Forms lookup 3 subtable" dx=86 dy=406 dh=0 dv=0
EndChar

StartChar: exclamdown
Encoding: 161 161 263
Width: 537
GlyphClass: 2
Flags: W
LayerCount: 2
Fore
SplineSet
356 881 m 256,0,1
 322 881 322 881 298 903.5 c 128,-1,2
 274 926 274 926 274 961 c 0,3,4
 274 995 274 995 298 1018.5 c 128,-1,5
 322 1042 322 1042 356 1042 c 256,6,7
 390 1042 390 1042 413 1018.5 c 128,-1,8
 436 995 436 995 436 961 c 0,9,10
 436 926 436 926 413 903.5 c 128,-1,11
 390 881 390 881 356 881 c 256,0,1
252 621 m 1,12,-1
 338 621 l 1,13,-1
 129 -410 l 1,14,-1
 23 -410 l 1,15,-1
 252 621 l 1,12,-1
EndSplineSet
Position2: "SegoeUI-LightItalic-'case' Case-Sensitive Forms lookup 3 subtable" dx=86 dy=406 dh=0 dv=0
EndChar

StartChar: logicalnot
Encoding: 172 172 264
Width: 1331
GlyphClass: 2
Flags: W
LayerCount: 2
Fore
SplineSet
233 639 m 1,0,-1
 1141 639 l 1,1,-1
 1141 147 l 1,2,-1
 1055 147 l 1,3,-1
 1055 555 l 1,4,-1
 233 555 l 1,5,-1
 233 639 l 1,0,-1
EndSplineSet
EndChar

StartChar: radical
Encoding: 8730 8730 265
Width: 1331
GlyphClass: 2
Flags: W
LayerCount: 2
Fore
SplineSet
334 776 m 1,0,-1
 170 776 l 1,1,-1
 170 858 l 1,2,-1
 397 858 l 1,3,-1
 684 145 l 1,4,-1
 1028 1516 l 1,5,-1
 1110 1516 l 1,6,-1
 731 -2 l 1,7,-1
 653 -2 l 1,8,-1
 334 776 l 1,0,-1
EndSplineSet
EndChar

StartChar: florin
Encoding: 402 402 266
Width: 1055
GlyphClass: 2
Flags: W
AnchorPoint: "Anchor-16" 180 2100 basechar 0
AnchorPoint: "Anchor-15" 1284 2100 basechar 0
AnchorPoint: "Anchor-12" 150 -242 basechar 0
AnchorPoint: "Anchor-9" 892 -420 basechar 0
AnchorPoint: "Anchor-8" 1222 1900 basechar 0
AnchorPoint: "Anchor-3" 181 -300 basechar 0
AnchorPoint: "Anchor-2" 1130 1434 basechar 0
AnchorPoint: "Anchor-1" 830 1650 basechar 0
LayerCount: 2
Fore
SplineSet
33 -182 m 1,0,1
 78 -197 78 -197 104 -197 c 0,2,3
 199 -197 199 -197 254 -126 c 128,-1,4
 309 -55 309 -55 348 127 c 2,5,-1
 498 838 l 1,6,-1
 387 838 l 1,7,-1
 406 920 l 1,8,-1
 516 920 l 1,9,-1
 567 1151 l 2,10,11
 630 1434 630 1434 868 1434 c 0,12,13
 900 1434 900 1434 979 1417 c 1,14,-1
 958 1335 l 1,15,16
 940 1341 940 1341 909 1346.5 c 128,-1,17
 878 1352 878 1352 868 1352 c 0,18,19
 790 1352 790 1352 738.5 1306.5 c 128,-1,20
 687 1261 687 1261 662 1151 c 2,21,-1
 610 920 l 1,22,-1
 795 920 l 1,23,-1
 778 838 l 1,24,-1
 592 838 l 1,25,-1
 442 133 l 2,26,27
 396 -83 396 -83 316.5 -181 c 128,-1,28
 237 -279 237 -279 102 -279 c 0,29,30
 68 -279 68 -279 23 -264 c 1,31,-1
 33 -182 l 1,0,1
EndSplineSet
EndChar

StartChar: approxequal
Encoding: 8776 8776 267
Width: 1331
GlyphClass: 2
Flags: W
LayerCount: 2
Fore
SplineSet
276 676 m 1,0,1
 282 789 282 789 344 853.5 c 128,-1,2
 406 918 406 918 510 918 c 0,3,4
 604 918 604 918 705 838 c 0,5,6
 768 787 768 787 807 767.5 c 128,-1,7
 846 748 846 748 889 748 c 0,8,9
 955 748 955 748 994 788.5 c 128,-1,10
 1033 829 1033 829 1040 907 c 1,11,-1
 1118 907 l 1,12,13
 1112 795 1112 795 1050 730.5 c 128,-1,14
 988 666 988 666 885 666 c 0,15,16
 786 666 786 666 684 750 c 0,17,18
 620 802 620 802 584.5 818 c 128,-1,19
 549 834 549 834 508 834 c 0,20,21
 366 834 366 834 354 676 c 1,22,-1
 276 676 l 1,0,1
276 287 m 1,23,24
 282 401 282 401 344.5 464.5 c 128,-1,25
 407 528 407 528 510 528 c 0,26,27
 611 528 611 528 705 449 c 0,28,29
 755 407 755 407 797.5 382.5 c 128,-1,30
 840 358 840 358 889 358 c 0,31,32
 955 358 955 358 994 400 c 128,-1,33
 1033 442 1033 442 1040 518 c 1,34,-1
 1118 518 l 1,35,36
 1112 404 1112 404 1051 340 c 128,-1,37
 990 276 990 276 885 276 c 0,38,39
 787 276 787 276 684 360 c 0,40,41
 624 409 624 409 587.5 426.5 c 128,-1,42
 551 444 551 444 508 444 c 0,43,44
 366 444 366 444 354 287 c 1,45,-1
 276 287 l 1,23,24
EndSplineSet
EndChar

StartChar: uni0394
Encoding: 916 916 268
Width: 1288
GlyphClass: 2
Flags: W
LayerCount: 2
Fore
SplineSet
795 1434 m 1,0,-1
 889 1434 l 1,1,-1
 1110 59 l 1,2,-1
 1098 0 l 1,3,-1
 -27 0 l 1,4,-1
 -14 59 l 1,5,-1
 795 1434 l 1,0,-1
1001 90 m 1,6,-1
 829 1200 l 2,7,8
 826 1217 826 1217 819 1309 c 1,9,-1
 815 1309 l 1,10,-1
 785 1248 l 1,11,-1
 117 90 l 1,12,-1
 1001 90 l 1,6,-1
EndSplineSet
Substitution2: "SegoeUI-LightItalic-'c2sc' Capitals to Small Capitals lookup 15 subtable" uni0394.c2sc
Position2: "SegoeUI-LightItalic-'cpsp' Capital Spacing lookup 2 subtable" dx=36 dy=0 dh=72 dv=0
EndChar

StartChar: guillemotleft
Encoding: 171 171 269
Width: 948
GlyphClass: 2
Flags: W
LayerCount: 2
Fore
SplineSet
420 537 m 1,0,-1
 770 881 l 1,1,-1
 891 881 l 1,2,-1
 528 528 l 1,3,-1
 731 201 l 1,4,-1
 627 201 l 1,5,-1
 420 537 l 1,0,-1
102 537 m 1,6,-1
 451 881 l 1,7,-1
 571 881 l 1,8,-1
 211 528 l 1,9,-1
 414 201 l 1,10,-1
 309 201 l 1,11,-1
 102 537 l 1,6,-1
EndSplineSet
Position2: "SegoeUI-LightItalic-'case' Case-Sensitive Forms lookup 3 subtable" dx=23 dy=110 dh=0 dv=0
EndChar

StartChar: guillemotright
Encoding: 187 187 270
Width: 948
GlyphClass: 2
Flags: W
LayerCount: 2
Fore
SplineSet
737 555 m 1,0,-1
 532 883 l 1,1,-1
 637 883 l 1,2,-1
 846 547 l 1,3,-1
 496 203 l 1,4,-1
 375 203 l 1,5,-1
 737 555 l 1,0,-1
420 555 m 1,6,-1
 217 883 l 1,7,-1
 322 883 l 1,8,-1
 528 547 l 1,9,-1
 178 203 l 1,10,-1
 57 203 l 1,11,-1
 420 555 l 1,6,-1
EndSplineSet
Position2: "SegoeUI-LightItalic-'case' Case-Sensitive Forms lookup 3 subtable" dx=23 dy=110 dh=0 dv=0
EndChar

StartChar: ellipsis
Encoding: 8230 8230 271
Width: 1364
GlyphClass: 2
Flags: W
LayerCount: 2
Fore
SplineSet
1044 -16 m 0,0,1
 1010 -16 1010 -16 987.5 7.5 c 128,-1,2
 965 31 965 31 965 66 c 0,3,4
 965 100 965 100 987.5 122.5 c 128,-1,5
 1010 145 1010 145 1044 145 c 0,6,7
 1079 145 1079 145 1102.5 122.5 c 128,-1,8
 1126 100 1126 100 1126 66 c 0,9,10
 1126 31 1126 31 1102.5 7.5 c 128,-1,11
 1079 -16 1079 -16 1044 -16 c 0,0,1
504 66 m 0,12,13
 504 100 504 100 527 122.5 c 128,-1,14
 550 145 550 145 584 145 c 256,15,16
 618 145 618 145 642 122.5 c 128,-1,17
 666 100 666 100 666 66 c 0,18,19
 666 31 666 31 642 7.5 c 128,-1,20
 618 -16 618 -16 584 -16 c 256,21,22
 550 -16 550 -16 527 7.5 c 128,-1,23
 504 31 504 31 504 66 c 0,12,13
127 -16 m 256,24,25
 93 -16 93 -16 70 7.5 c 128,-1,26
 47 31 47 31 47 66 c 0,27,28
 47 100 47 100 70 122.5 c 128,-1,29
 93 145 93 145 127 145 c 256,30,31
 161 145 161 145 185 122.5 c 128,-1,32
 209 100 209 100 209 66 c 0,33,34
 209 31 209 31 185 7.5 c 128,-1,35
 161 -16 161 -16 127 -16 c 256,24,25
EndSplineSet
EndChar

StartChar: OE
Encoding: 338 338 275
Width: 1907
GlyphClass: 2
Flags: W
AnchorPoint: "Anchor-16" 180 2100 basechar 0
AnchorPoint: "Anchor-15" 2072 2100 basechar 0
AnchorPoint: "Anchor-12" 1460 0 basechar 0
AnchorPoint: "Anchor-9" 1824 -420 basechar 0
AnchorPoint: "Anchor-8" 2154 1900 basechar 0
AnchorPoint: "Anchor-3" 970 -25 basechar 0
AnchorPoint: "Anchor-2" 2086 1500 basechar 0
AnchorPoint: "Anchor-1" 1320 1600 basechar 0
LayerCount: 2
Fore
SplineSet
1715 90 m 1,0,-1
 1696 0 l 1,1,-1
 1062 0 l 1,2,-1
 993 -4 l 1,3,4
 788 -25 788 -25 726 -25 c 0,5,6
 459 -25 459 -25 305.5 142.5 c 128,-1,7
 152 310 152 310 152 594 c 0,8,9
 152 833 152 833 252.5 1033 c 128,-1,10
 353 1233 353 1233 533 1345.5 c 128,-1,11
 713 1458 713 1458 939 1458 c 0,12,13
 1016 1458 1016 1458 1176 1446 c 2,14,-1
 1348 1434 l 1,15,-1
 1967 1434 l 1,16,-1
 1948 1343 l 1,17,-1
 1377 1343 l 1,18,-1
 1254 768 l 1,19,-1
 1785 768 l 1,20,-1
 1766 678 l 1,21,-1
 1236 678 l 1,22,-1
 1111 90 l 1,23,-1
 1715 90 l 1,0,-1
1277 1337 m 1,24,25
 1101 1368 1101 1368 939 1368 c 0,26,27
 737 1368 737 1368 582 1270.5 c 128,-1,28
 427 1173 427 1173 341 995 c 128,-1,29
 255 817 255 817 255 596 c 0,30,31
 255 350 255 350 380 208 c 128,-1,32
 505 66 505 66 730 66 c 0,33,34
 910 66 910 66 1017 102 c 1,35,-1
 1277 1337 l 1,24,25
EndSplineSet
Substitution2: "SegoeUI-LightItalic-'c2sc' Capitals to Small Capitals lookup 17 subtable" OE.c2sc
Position2: "SegoeUI-LightItalic-'cpsp' Capital Spacing lookup 0 subtable" dx=36 dy=0 dh=72 dv=0
EndChar

StartChar: oe
Encoding: 339 339 276
Width: 1735
GlyphClass: 2
Flags: W
AnchorPoint: "Anchor-16" 180 2100 basechar 0
AnchorPoint: "Anchor-15" 1923 2100 basechar 0
AnchorPoint: "Anchor-12" 1270 0 basechar 0
AnchorPoint: "Anchor-9" 1556 -420 basechar 0
AnchorPoint: "Anchor-8" 1886 1900 basechar 0
AnchorPoint: "Anchor-6" 1810 910 basechar 0
AnchorPoint: "Anchor-3" 800 -25 basechar 0
AnchorPoint: "Anchor-2" 1800 1200 basechar 0
AnchorPoint: "Anchor-1" 1070 1300 basechar 0
LayerCount: 2
Fore
SplineSet
879 268 m 1,0,1
 807 125 807 125 694 50 c 128,-1,2
 581 -25 581 -25 440 -25 c 0,3,4
 272 -25 272 -25 177 80 c 128,-1,5
 82 185 82 185 82 371 c 256,6,7
 82 557 82 557 154.5 715 c 128,-1,8
 227 873 227 873 351 961 c 128,-1,9
 475 1049 475 1049 623 1049 c 0,10,11
 760 1049 760 1049 847 973.5 c 128,-1,12
 934 898 934 898 956 760 c 1,13,-1
 961 760 l 1,14,15
 1034 899 1034 899 1149 974 c 128,-1,16
 1264 1049 1264 1049 1401 1049 c 0,17,18
 1534 1049 1534 1049 1614 982.5 c 128,-1,19
 1694 916 1694 916 1694 799 c 0,20,21
 1694 627 1694 627 1522.5 546 c 128,-1,22
 1351 465 1351 465 958 457 c 1,23,-1
 956 426 l 1,24,-1
 956 395 l 2,25,26
 956 236 956 236 1036.5 147.5 c 128,-1,27
 1117 59 1117 59 1264 59 c 0,28,29
 1391 59 1391 59 1544 143 c 1,30,-1
 1526 47 l 1,31,32
 1394 -25 1394 -25 1249 -25 c 0,33,34
 1091 -25 1091 -25 1001 52.5 c 128,-1,35
 911 130 911 130 883 268 c 1,36,-1
 879 268 l 1,0,1
971 541 m 1,37,38
 1291 541 1291 541 1444 600 c 128,-1,39
 1597 659 1597 659 1597 793 c 0,40,41
 1597 965 1597 965 1386 965 c 0,42,43
 1234 965 1234 965 1121.5 849 c 128,-1,44
 1009 733 1009 733 971 541 c 1,37,38
449 59 m 0,45,46
 567 59 567 59 667 134.5 c 128,-1,47
 767 210 767 210 825 345.5 c 128,-1,48
 883 481 883 481 883 645 c 0,49,50
 883 802 883 802 812 883.5 c 128,-1,51
 741 965 741 965 612 965 c 0,52,53
 496 965 496 965 395 889 c 128,-1,54
 294 813 294 813 236 677.5 c 128,-1,55
 178 542 178 542 178 379 c 0,56,57
 178 228 178 228 250.5 143.5 c 128,-1,58
 323 59 323 59 449 59 c 0,45,46
EndSplineSet
Substitution2: "SegoeUI-LightItalic-'smcp' Lowercase to Small Capitals lookup 18 subtable" OE.c2sc
EndChar

StartChar: endash
Encoding: 8211 8211 277
Width: 1024
GlyphClass: 2
Flags: W
LayerCount: 2
Fore
SplineSet
27 645 m 1,0,-1
 1051 645 l 1,1,-1
 1032 555 l 1,2,-1
 8 555 l 1,3,-1
 27 645 l 1,0,-1
EndSplineSet
Position2: "SegoeUI-LightItalic-'case' Case-Sensitive Forms lookup 3 subtable" dx=23 dy=110 dh=0 dv=0
EndChar

StartChar: emdash
Encoding: 8212 8212 278
Width: 2048
GlyphClass: 2
Flags: W
LayerCount: 2
Fore
SplineSet
27 645 m 1,0,-1
 2075 645 l 1,1,-1
 2056 555 l 1,2,-1
 8 555 l 1,3,-1
 27 645 l 1,0,-1
EndSplineSet
Position2: "SegoeUI-LightItalic-'case' Case-Sensitive Forms lookup 3 subtable" dx=23 dy=110 dh=0 dv=0
EndChar

StartChar: quotedblleft
Encoding: 8220 8220 279
Width: 662
GlyphClass: 2
Flags: W
LayerCount: 2
Fore
SplineSet
645 1434 m 1,0,-1
 719 1434 l 1,1,-1
 594 985 l 1,2,-1
 489 985 l 1,3,-1
 645 1434 l 1,0,-1
395 1434 m 1,4,-1
 471 1434 l 1,5,-1
 348 985 l 1,6,-1
 242 985 l 1,7,-1
 395 1434 l 1,4,-1
EndSplineSet
Substitution2: "SegoeUI-LightItalic-'ss19' Style Set 19 lookup 28 subtable" quotedblleft.ss19
EndChar

StartChar: quotedblright
Encoding: 8221 8221 280
Width: 662
GlyphClass: 2
Flags: W
LayerCount: 2
Fore
SplineSet
612 1434 m 1,0,-1
 719 1434 l 1,1,-1
 565 985 l 1,2,-1
 489 985 l 1,3,-1
 612 1434 l 1,0,-1
367 1434 m 1,4,-1
 471 1434 l 1,5,-1
 315 985 l 1,6,-1
 242 985 l 1,7,-1
 367 1434 l 1,4,-1
EndSplineSet
Substitution2: "SegoeUI-LightItalic-'ss19' Style Set 19 lookup 28 subtable" quotedblright.ss19
EndChar

StartChar: quoteleft
Encoding: 8216 8216 281
Width: 414
GlyphClass: 2
Flags: W
LayerCount: 2
Fore
SplineSet
395 1434 m 1,0,-1
 471 1434 l 1,1,-1
 348 985 l 1,2,-1
 242 985 l 1,3,-1
 395 1434 l 1,0,-1
EndSplineSet
Substitution2: "SegoeUI-LightItalic-'ss19' Style Set 19 lookup 28 subtable" quoteleft.ss19
EndChar

StartChar: quoteright
Encoding: 8217 8217 282
Width: 414
GlyphClass: 2
Flags: W
LayerCount: 2
Fore
SplineSet
367 1434 m 1,0,-1
 471 1434 l 1,1,-1
 315 985 l 1,2,-1
 242 985 l 1,3,-1
 367 1434 l 1,0,-1
EndSplineSet
Substitution2: "SegoeUI-LightItalic-'ss19' Style Set 19 lookup 28 subtable" quoteright.ss19
EndChar

StartChar: divide
Encoding: 247 247 283
Width: 1331
GlyphClass: 2
Flags: W
LayerCount: 2
Fore
SplineSet
688 866 m 256,0,1
 656 866 656 866 633 889 c 128,-1,2
 610 912 610 912 610 944 c 256,3,4
 610 976 610 976 633 998 c 128,-1,5
 656 1020 656 1020 688 1020 c 256,6,7
 720 1020 720 1020 742 998 c 128,-1,8
 764 976 764 976 764 944 c 256,9,10
 764 912 764 912 742 889 c 128,-1,11
 720 866 720 866 688 866 c 256,0,1
233 639 m 1,12,-1
 1141 639 l 1,13,-1
 1141 555 l 1,14,-1
 233 555 l 1,15,-1
 233 639 l 1,12,-1
610 252 m 256,16,17
 610 284 610 284 633 306 c 128,-1,18
 656 328 656 328 688 328 c 256,19,20
 720 328 720 328 742 306 c 128,-1,21
 764 284 764 284 764 252 c 256,22,23
 764 220 764 220 742 197 c 128,-1,24
 720 174 720 174 688 174 c 256,25,26
 656 174 656 174 633 197 c 128,-1,27
 610 220 610 220 610 252 c 256,16,17
EndSplineSet
EndChar

StartChar: lozenge
Encoding: 9674 9674 284
Width: 1135
GlyphClass: 2
Flags: W
LayerCount: 2
Fore
SplineSet
129 715 m 1,0,-1
 569 1434 l 1,1,-1
 629 1434 l 1,2,-1
 1071 717 l 1,3,-1
 629 0 l 1,4,-1
 569 0 l 1,5,-1
 129 715 l 1,0,-1
975 717 m 1,6,-1
 600 1335 l 1,7,-1
 225 717 l 1,8,-1
 600 96 l 1,9,-1
 975 717 l 1,6,-1
EndSplineSet
EndChar

StartChar: fraction
Encoding: 8260 8260 287
AltUni2: 002215.ffffffff.0 002215.ffffffff.0
Width: 274
GlyphClass: 2
Flags: W
LayerCount: 2
Fore
SplineSet
664 1434 m 1,0,-1
 772 1434 l 1,1,-1
 -389 0 l 1,2,-1
 -498 0 l 1,3,-1
 664 1434 l 1,0,-1
EndSplineSet
EndChar

StartChar: Euro
Encoding: 8364 8364 288
Width: 1055
GlyphClass: 2
Flags: W
LayerCount: 2
Fore
SplineSet
88 584 m 1,0,-1
 238 584 l 1,1,2
 242 710 242 710 266 821 c 1,3,-1
 137 821 l 1,4,-1
 156 905 l 1,5,-1
 289 905 l 1,6,7
 369 1167 369 1167 539.5 1312.5 c 128,-1,8
 710 1458 710 1458 942 1458 c 0,9,10
 1057 1458 1057 1458 1184 1405 c 1,11,-1
 1165 1309 l 1,12,13
 1053 1374 1053 1374 934 1374 c 0,14,15
 744 1374 744 1374 601.5 1252 c 128,-1,16
 459 1130 459 1130 387 905 c 1,17,-1
 952 905 l 1,18,-1
 934 821 l 1,19,-1
 365 821 l 1,20,21
 340 715 340 715 336 584 c 1,22,-1
 885 584 l 1,23,-1
 866 500 l 1,24,-1
 336 500 l 1,25,26
 358 59 358 59 690 59 c 0,27,28
 759 59 759 59 819.5 81 c 128,-1,29
 880 103 880 103 934 129 c 1,30,-1
 918 35 l 1,31,32
 842 1 842 1 789 -12 c 128,-1,33
 736 -25 736 -25 670 -25 c 0,34,35
 471 -25 471 -25 360.5 110.5 c 128,-1,36
 250 246 250 246 238 500 c 1,37,-1
 70 500 l 1,38,-1
 88 584 l 1,0,-1
EndSplineSet
EndChar

StartChar: guilsinglleft
Encoding: 8249 8249 289
Width: 629
GlyphClass: 2
Flags: W
LayerCount: 2
Fore
SplineSet
102 537 m 1,0,-1
 451 881 l 1,1,-1
 571 881 l 1,2,-1
 211 528 l 1,3,-1
 414 201 l 1,4,-1
 309 201 l 1,5,-1
 102 537 l 1,0,-1
EndSplineSet
Position2: "SegoeUI-LightItalic-'case' Case-Sensitive Forms lookup 3 subtable" dx=23 dy=110 dh=0 dv=0
EndChar

StartChar: guilsinglright
Encoding: 8250 8250 290
Width: 629
GlyphClass: 2
Flags: W
LayerCount: 2
Fore
SplineSet
418 555 m 1,0,-1
 215 883 l 1,1,-1
 319 883 l 1,2,-1
 526 547 l 1,3,-1
 178 203 l 1,4,-1
 57 203 l 1,5,-1
 418 555 l 1,0,-1
EndSplineSet
Position2: "SegoeUI-LightItalic-'case' Case-Sensitive Forms lookup 3 subtable" dx=23 dy=110 dh=0 dv=0
EndChar

StartChar: daggerdbl
Encoding: 8225 8225 293
Width: 764
GlyphClass: 2
Flags: W
LayerCount: 2
Fore
SplineSet
352 588 m 1,0,-1
 94 588 l 1,1,-1
 113 672 l 1,2,-1
 371 672 l 1,3,-1
 442 1014 l 1,4,-1
 184 1014 l 1,5,-1
 203 1098 l 1,6,-1
 461 1098 l 1,7,-1
 528 1419 l 1,8,-1
 621 1419 l 1,9,-1
 553 1098 l 1,10,-1
 811 1098 l 1,11,-1
 793 1014 l 1,12,-1
 535 1014 l 1,13,-1
 463 672 l 1,14,-1
 721 672 l 1,15,-1
 702 588 l 1,16,-1
 444 588 l 1,17,-1
 375 256 l 1,18,-1
 283 256 l 1,19,-1
 352 588 l 1,0,-1
EndSplineSet
EndChar

StartChar: periodcentered
Encoding: 183 183 294
Width: 455
GlyphClass: 2
Flags: W
LayerCount: 2
Fore
SplineSet
267 625 m 256,0,1
 233 625 233 625 210 649 c 128,-1,2
 187 673 187 673 187 707 c 256,3,4
 187 741 187 741 210 763.5 c 128,-1,5
 233 786 233 786 267 786 c 256,6,7
 301 786 301 786 325 763.5 c 128,-1,8
 349 741 349 741 349 707 c 256,9,10
 349 673 349 673 325 649 c 128,-1,11
 301 625 301 625 267 625 c 256,0,1
EndSplineSet
EndChar

StartChar: quotesinglbase
Encoding: 8218 8218 295
Width: 414
GlyphClass: 2
Flags: W
LayerCount: 2
Fore
SplineSet
109 219 m 1,0,-1
 213 219 l 1,1,-1
 57 -225 l 1,2,-1
 -16 -225 l 1,3,-1
 109 219 l 1,0,-1
EndSplineSet
Substitution2: "SegoeUI-LightItalic-'ss19' Style Set 19 lookup 28 subtable" quotesinglbase.ss19
EndChar

StartChar: quotedblbase
Encoding: 8222 8222 296
Width: 662
GlyphClass: 2
Flags: W
LayerCount: 2
Fore
SplineSet
354 219 m 1,0,-1
 461 219 l 1,1,-1
 307 -229 l 1,2,-1
 231 -229 l 1,3,-1
 354 219 l 1,0,-1
109 219 m 1,4,-1
 213 219 l 1,5,-1
 57 -229 l 1,6,-1
 -16 -229 l 1,7,-1
 109 219 l 1,4,-1
EndSplineSet
Substitution2: "SegoeUI-LightItalic-'ss19' Style Set 19 lookup 28 subtable" quotedblbase.ss19
EndChar

StartChar: perthousand
Encoding: 8240 8240 297
Width: 2398
GlyphClass: 2
Flags: W
LayerCount: 2
Fore
SplineSet
1939 -20 m 0,0,1
 1820 -20 1820 -20 1748.5 54.5 c 128,-1,2
 1677 129 1677 129 1677 256 c 0,3,4
 1677 449 1677 449 1787 580 c 128,-1,5
 1897 711 1897 711 2058 711 c 0,6,7
 2178 711 2178 711 2247 636 c 128,-1,8
 2316 561 2316 561 2316 434 c 0,9,10
 2316 239 2316 239 2210 109.5 c 128,-1,11
 2104 -20 2104 -20 1939 -20 c 0,0,1
1174 -20 m 0,12,13
 1053 -20 1053 -20 982 54.5 c 128,-1,14
 911 129 911 129 911 256 c 0,15,16
 911 449 911 449 1021 580 c 128,-1,17
 1131 711 1131 711 1292 711 c 0,18,19
 1412 711 1412 711 1481 636 c 128,-1,20
 1550 561 1550 561 1550 434 c 0,21,22
 1550 239 1550 239 1443.5 109.5 c 128,-1,23
 1337 -20 1337 -20 1174 -20 c 0,12,13
1395 1434 m 1,24,-1
 1503 1434 l 1,25,-1
 334 0 l 1,26,-1
 225 0 l 1,27,-1
 1395 1434 l 1,24,-1
416 723 m 0,28,29
 295 723 295 723 224.5 796 c 128,-1,30
 154 869 154 869 154 999 c 0,31,32
 154 1192 154 1192 264 1323 c 128,-1,33
 374 1454 374 1454 535 1454 c 0,34,35
 653 1454 653 1454 723 1379.5 c 128,-1,36
 793 1305 793 1305 793 1178 c 0,37,38
 793 983 793 983 686.5 853 c 128,-1,39
 580 723 580 723 416 723 c 0,28,29
1946 59 m 0,40,41
 2065 59 2065 59 2145.5 164 c 128,-1,42
 2226 269 2226 269 2226 426 c 0,43,44
 2226 526 2226 526 2180.5 578.5 c 128,-1,45
 2135 631 2135 631 2050 631 c 0,46,47
 1929 631 1929 631 1849 524.5 c 128,-1,48
 1769 418 1769 418 1769 262 c 0,49,50
 1769 165 1769 165 1815.5 112 c 128,-1,51
 1862 59 1862 59 1946 59 c 0,40,41
1180 59 m 0,52,53
 1299 59 1299 59 1379.5 164 c 128,-1,54
 1460 269 1460 269 1460 426 c 0,55,56
 1460 526 1460 526 1414.5 578.5 c 128,-1,57
 1369 631 1369 631 1284 631 c 0,58,59
 1163 631 1163 631 1083.5 524.5 c 128,-1,60
 1004 418 1004 418 1004 262 c 0,61,62
 1004 165 1004 165 1051 112 c 128,-1,63
 1098 59 1098 59 1180 59 c 0,52,53
422 803 m 0,64,65
 542 803 542 803 622 907.5 c 128,-1,66
 702 1012 702 1012 702 1169 c 0,67,68
 702 1269 702 1269 656.5 1321.5 c 128,-1,69
 611 1374 611 1374 526 1374 c 0,70,71
 407 1374 407 1374 326.5 1268.5 c 128,-1,72
 246 1163 246 1163 246 1006 c 0,73,74
 246 909 246 909 291.5 856 c 128,-1,75
 337 803 337 803 422 803 c 0,64,65
EndSplineSet
EndChar

StartChar: dotlessi
Encoding: 305 305 313
Width: 428
GlyphClass: 2
Flags: W
AnchorPoint: "Anchor-16" 180 2100 basechar 0
AnchorPoint: "Anchor-15" 710 2100 basechar 0
AnchorPoint: "Anchor-12" 180 0 basechar 0
AnchorPoint: "Anchor-9" 292 -420 basechar 0
AnchorPoint: "Anchor-8" 622 1900 basechar 0
AnchorPoint: "Anchor-6" 500 1030 basechar 0
AnchorPoint: "Anchor-3" 160 -15 basechar 0
AnchorPoint: "Anchor-2" 550 1104 basechar 0
AnchorPoint: "Anchor-1" 370 1184 basechar 0
LayerCount: 2
Fore
SplineSet
264 1024 m 1,0,-1
 357 1024 l 1,1,-1
 203 297 l 2,2,3
 179 177 179 177 179 123 c 0,4,5
 179 63 179 63 241 63 c 0,6,7
 284 63 284 63 326 80 c 1,8,-1
 309 3 l 1,9,10
 260 -20 260 -20 211 -20 c 0,11,12
 84 -20 84 -20 84 116 c 0,13,14
 84 168 84 168 110 301 c 2,15,-1
 264 1024 l 1,0,-1
EndSplineSet
Substitution2: "SegoeUI-LightItalic-'smcp' Lowercase to Small Capitals lookup 18 subtable" I.c2sc
EndChar

StartChar: circumflex
Encoding: 710 710 314
Width: 614
GlyphClass: 2
Flags: W
LayerCount: 2
Fore
SplineSet
494 1524 m 1,0,-1
 539 1524 l 1,1,-1
 696 1188 l 1,2,-1
 616 1188 l 1,3,-1
 504 1434 l 1,4,-1
 299 1188 l 1,5,-1
 213 1188 l 1,6,-1
 494 1524 l 1,0,-1
EndSplineSet
EndChar

StartChar: tilde
Encoding: 732 732 315
Width: 614
GlyphClass: 2
Flags: W
LayerCount: 2
Fore
SplineSet
147 1188 m 1,0,1
 188 1409 188 1409 360 1409 c 0,2,3
 403 1409 403 1409 433 1388.5 c 128,-1,4
 463 1368 463 1368 489 1343.5 c 128,-1,5
 515 1319 515 1319 542 1298.5 c 128,-1,6
 569 1278 569 1278 605 1278 c 0,7,8
 701 1278 701 1278 733 1423 c 1,9,-1
 807 1423 l 1,10,11
 759 1200 759 1200 594 1200 c 0,12,13
 549 1200 549 1200 519.5 1220.5 c 128,-1,14
 490 1241 490 1241 464.5 1265.5 c 128,-1,15
 439 1290 439 1290 413 1310.5 c 128,-1,16
 387 1331 387 1331 350 1331 c 0,17,18
 300 1331 300 1331 268 1298.5 c 128,-1,19
 236 1266 236 1266 219 1188 c 1,20,-1
 147 1188 l 1,0,1
EndSplineSet
EndChar

StartChar: uni02C9
Encoding: 713 713 316
Width: 635
GlyphClass: 2
Flags: W
LayerCount: 2
Fore
SplineSet
78 1292 m 1,0,-1
 586 1292 l 1,1,-1
 569 1208 l 1,2,-1
 61 1208 l 1,3,-1
 78 1292 l 1,0,-1
EndSplineSet
EndChar

StartChar: breve
Encoding: 728 728 317
Width: 614
GlyphClass: 2
Flags: W
LayerCount: 2
Fore
SplineSet
307 1423 m 1,0,-1
 305 1403 l 1,1,2
 305 1334 305 1334 348 1299 c 128,-1,3
 391 1264 391 1264 463 1264 c 0,4,5
 543 1264 543 1264 593 1300 c 128,-1,6
 643 1336 643 1336 674 1423 c 1,7,-1
 762 1423 l 1,8,9
 689 1188 689 1188 459 1188 c 0,10,11
 350 1188 350 1188 287.5 1242 c 128,-1,12
 225 1296 225 1296 225 1395 c 1,13,-1
 227 1423 l 1,14,-1
 307 1423 l 1,0,-1
EndSplineSet
EndChar

StartChar: dotaccent
Encoding: 729 729 318
Width: 614
GlyphClass: 2
Flags: W
LayerCount: 2
Fore
SplineSet
465 1188 m 256,0,1
 433 1188 433 1188 410 1210.5 c 128,-1,2
 387 1233 387 1233 387 1266 c 256,3,4
 387 1299 387 1299 410 1319 c 128,-1,5
 433 1339 433 1339 463 1339 c 0,6,7
 494 1339 494 1339 518.5 1319.5 c 128,-1,8
 543 1300 543 1300 543 1266 c 0,9,10
 543 1234 543 1234 520 1211 c 128,-1,11
 497 1188 497 1188 465 1188 c 256,0,1
EndSplineSet
EndChar

StartChar: ring
Encoding: 730 730 319
Width: 614
GlyphClass: 2
Flags: W
LayerCount: 2
Fore
SplineSet
293 1372 m 0,0,1
 293 1451 293 1451 350 1503.5 c 128,-1,2
 407 1556 407 1556 494 1556 c 0,3,4
 582 1556 582 1556 638 1505.5 c 128,-1,5
 694 1455 694 1455 694 1372 c 0,6,7
 694 1294 694 1294 636.5 1241 c 128,-1,8
 579 1188 579 1188 494 1188 c 0,9,10
 406 1188 406 1188 349.5 1239 c 128,-1,11
 293 1290 293 1290 293 1372 c 0,0,1
494 1255 m 0,12,13
 551 1255 551 1255 587 1287.5 c 128,-1,14
 623 1320 623 1320 623 1372 c 0,15,16
 623 1426 623 1426 588.5 1457.5 c 128,-1,17
 554 1489 554 1489 494 1489 c 0,18,19
 437 1489 437 1489 402 1457.5 c 128,-1,20
 367 1426 367 1426 367 1372 c 256,21,22
 367 1318 367 1318 404 1286.5 c 128,-1,23
 441 1255 441 1255 494 1255 c 0,12,13
EndSplineSet
EndChar

StartChar: cedilla
Encoding: 184 184 320
Width: 614
GlyphClass: 2
Flags: W
LayerCount: 2
Fore
SplineSet
53 -352 m 1,0,1
 97 -362 97 -362 143 -362 c 0,2,3
 231 -362 231 -362 270 -340 c 128,-1,4
 309 -318 309 -318 309 -270 c 0,5,6
 309 -184 309 -184 178 -184 c 1,7,-1
 115 -188 l 1,8,-1
 154 0 l 1,9,-1
 227 0 l 1,10,-1
 203 -117 l 1,11,12
 299 -117 299 -117 348 -155.5 c 128,-1,13
 397 -194 397 -194 397 -264 c 0,14,15
 397 -346 397 -346 332 -391 c 128,-1,16
 267 -436 267 -436 137 -436 c 0,17,18
 123 -436 123 -436 85 -432 c 128,-1,19
 47 -428 47 -428 39 -426 c 1,20,-1
 53 -352 l 1,0,1
EndSplineSet
EndChar

StartChar: hungarumlaut
Encoding: 733 733 321
Width: 614
GlyphClass: 2
Flags: W
LayerCount: 2
Fore
SplineSet
664 1505 m 1,0,-1
 774 1505 l 1,1,-1
 526 1188 l 1,2,-1
 453 1188 l 1,3,-1
 664 1505 l 1,0,-1
442 1505 m 1,4,-1
 553 1505 l 1,5,-1
 305 1188 l 1,6,-1
 231 1188 l 1,7,-1
 442 1505 l 1,4,-1
EndSplineSet
EndChar

StartChar: ogonek
Encoding: 731 731 322
Width: 614
GlyphClass: 2
Flags: W
LayerCount: 2
Fore
SplineSet
299 -381 m 1,0,1
 249 -399 249 -399 205 -399 c 0,2,3
 135 -399 135 -399 92 -358.5 c 128,-1,4
 49 -318 49 -318 49 -246 c 0,5,6
 49 -186 49 -186 93.5 -120 c 128,-1,7
 138 -54 138 -54 217 0 c 1,8,-1
 305 0 l 1,9,10
 135 -135 135 -135 135 -240 c 0,11,12
 135 -328 135 -328 219 -328 c 0,13,14
 256 -328 256 -328 299 -311 c 1,15,-1
 299 -381 l 1,0,1
EndSplineSet
EndChar

StartChar: caron
Encoding: 711 711 323
Width: 614
GlyphClass: 2
Flags: W
LayerCount: 2
Fore
SplineSet
279 1524 m 1,0,-1
 358 1524 l 1,1,-1
 471 1278 l 1,2,-1
 676 1524 l 1,3,-1
 762 1524 l 1,4,-1
 481 1188 l 1,5,-1
 436 1188 l 1,6,-1
 279 1524 l 1,0,-1
EndSplineSet
EndChar

StartChar: Lslash
Encoding: 321 321 324
Width: 868
GlyphClass: 2
Flags: W
AnchorPoint: "Anchor-16" 180 2100 basechar 0
AnchorPoint: "Anchor-15" 1128 2100 basechar 0
AnchorPoint: "Anchor-12" 580 0 basechar 0
AnchorPoint: "Anchor-9" 700 -420 basechar 0
AnchorPoint: "Anchor-8" 1030 1900 basechar 0
AnchorPoint: "Anchor-3" 420 -15 basechar 0
AnchorPoint: "Anchor-2" 1080 1500 basechar 0
AnchorPoint: "Anchor-1" 770 1600 basechar 0
LayerCount: 2
Fore
SplineSet
195 565 m 1,0,-1
 74 492 l 1,1,-1
 96 600 l 1,2,-1
 219 674 l 1,3,-1
 379 1434 l 1,4,-1
 477 1434 l 1,5,-1
 332 743 l 1,6,-1
 676 952 l 1,7,-1
 653 844 l 1,8,-1
 307 633 l 1,9,-1
 193 90 l 1,10,-1
 768 90 l 1,11,-1
 750 0 l 1,12,-1
 76 0 l 1,13,-1
 195 565 l 1,0,-1
EndSplineSet
Substitution2: "SegoeUI-LightItalic-'c2sc' Capitals to Small Capitals lookup 17 subtable" Lslash.c2sc
Position2: "SegoeUI-LightItalic-'cpsp' Capital Spacing lookup 0 subtable" dx=36 dy=0 dh=72 dv=0
EndChar

StartChar: lslash
Encoding: 322 322 325
Width: 428
GlyphClass: 2
Flags: W
AnchorPoint: "Anchor-16" 180 2100 basechar 0
AnchorPoint: "Anchor-15" 743 2100 basechar 0
AnchorPoint: "Anchor-12" 200 0 basechar 0
AnchorPoint: "Anchor-9" 468 -420 basechar 0
AnchorPoint: "Anchor-8" 798 1900 basechar 0
AnchorPoint: "Anchor-3" 160 -15 basechar 0
AnchorPoint: "Anchor-2" 600 1600 basechar 0
AnchorPoint: "Anchor-1" 530 1650 basechar 0
LayerCount: 2
Fore
SplineSet
184 631 m 1,0,-1
 -5 512 l 1,1,-1
 20 621 l 1,2,-1
 207 739 l 1,3,-1
 372 1516 l 1,4,-1
 465 1516 l 1,5,-1
 315 807 l 1,6,-1
 503 926 l 1,7,-1
 478 817 l 1,8,-1
 292 700 l 1,9,-1
 207 297 l 2,10,11
 183 177 183 177 183 123 c 0,12,13
 183 63 183 63 245 63 c 0,14,15
 288 63 288 63 330 80 c 1,16,-1
 313 3 l 1,17,18
 264 -20 264 -20 215 -20 c 0,19,20
 88 -20 88 -20 88 116 c 0,21,22
 88 161 88 161 100.5 230 c 128,-1,23
 113 299 113 299 184 631 c 1,0,-1
EndSplineSet
Substitution2: "SegoeUI-LightItalic-'smcp' Lowercase to Small Capitals lookup 18 subtable" Lslash.c2sc
EndChar

StartChar: brokenbar
Encoding: 166 166 330
Width: 463
GlyphClass: 2
Flags: W
LayerCount: 2
Fore
SplineSet
184 1567 m 1,0,-1
 279 1567 l 1,1,-1
 279 715 l 1,2,-1
 184 715 l 1,3,-1
 184 1567 l 1,0,-1
184 371 m 1,4,-1
 279 371 l 1,5,-1
 279 -481 l 1,6,-1
 184 -481 l 1,7,-1
 184 371 l 1,4,-1
EndSplineSet
EndChar

StartChar: Eth
Encoding: 208 208 331
Width: 1386
GlyphClass: 2
Flags: W
AnchorPoint: "Anchor-16" 180 2100 basechar 0
AnchorPoint: "Anchor-15" 1638 2100 basechar 0
AnchorPoint: "Anchor-12" 602 27 basechar 0
AnchorPoint: "Anchor-9" 1251 -420 basechar 0
AnchorPoint: "Anchor-8" 1581 1900 basechar 0
AnchorPoint: "Anchor-3" 530 -15 basechar 0
AnchorPoint: "Anchor-2" 1410 1500 basechar 0
AnchorPoint: "Anchor-1" 880 1600 basechar 0
LayerCount: 2
Fore
SplineSet
219 666 m 1,0,-1
 66 666 l 1,1,-1
 84 756 l 1,2,-1
 238 756 l 1,3,-1
 383 1434 l 1,4,-1
 715 1434 l 2,5,6
 1016 1434 1016 1434 1176.5 1285 c 128,-1,7
 1337 1136 1337 1136 1337 850 c 0,8,9
 1337 590 1337 590 1232.5 397 c 128,-1,10
 1128 204 1128 204 933.5 102 c 128,-1,11
 739 0 739 0 483 0 c 2,12,-1
 76 0 l 1,13,-1
 219 666 l 1,0,-1
483 90 m 2,14,15
 837 90 837 90 1036 287 c 128,-1,16
 1235 484 1235 484 1235 842 c 0,17,18
 1235 1343 1235 1343 696 1343 c 2,19,-1
 461 1343 l 1,20,-1
 336 756 l 1,21,-1
 737 756 l 1,22,-1
 719 666 l 1,23,-1
 317 666 l 1,24,-1
 195 90 l 1,25,-1
 483 90 l 2,14,15
EndSplineSet
Substitution2: "SegoeUI-LightItalic-'c2sc' Capitals to Small Capitals lookup 17 subtable" Eth.c2sc
Position2: "SegoeUI-LightItalic-'cpsp' Capital Spacing lookup 0 subtable" dx=36 dy=0 dh=72 dv=0
EndChar

